# Blender 5.2.0 LTS
# www.blender.org
mtllib bld_sectruin.mtl
o bld_sectruin
v -0.560000 0.000000 -0.560000
v -0.560000 0.100000 -0.560000
v 0.560000 0.100000 -0.560000
v 0.560000 0.000000 -0.560000
v -0.560000 0.000000 0.560000
v 0.560000 0.000000 0.560000
v 0.560000 0.100000 0.560000
v -0.560000 0.100000 0.560000
v 0.280000 0.000000 -0.560000
v 0.280000 0.050000 -0.560000
v 0.560000 0.050000 -0.560000
v 0.280000 0.000000 -0.280000
v 0.560000 0.000000 -0.280000
v 0.560000 0.050000 -0.280000
v 0.280000 0.050000 -0.280000
v -0.500000 0.100000 0.420000
v -0.500000 0.640000 0.420000
v 0.060000 0.640000 0.420000
v 0.060000 0.100000 0.420000
v -0.500000 0.100000 0.500000
v 0.060000 0.100000 0.500000
v 0.060000 0.640000 0.500000
v -0.500000 0.640000 0.500000
v 0.060000 0.320000 0.420000
v 0.500000 0.320000 0.420000
v 0.500000 0.100000 0.420000
v 0.500000 0.100000 0.500000
v 0.500000 0.320000 0.500000
v 0.060000 0.320000 0.500000
v -0.560000 0.100000 -0.320000
v -0.560000 0.460000 -0.320000
v -0.480000 0.460000 -0.320000
v -0.480000 0.100000 -0.320000
v -0.560000 0.100000 0.500000
v -0.480000 0.100000 0.500000
v -0.480000 0.460000 0.500000
v -0.560000 0.460000 0.500000
v -0.340000 0.100000 0.060000
v -0.340000 0.640000 0.060000
v -0.260000 0.640000 0.060000
v -0.260000 0.100000 0.060000
v -0.340000 0.100000 0.140000
v -0.260000 0.100000 0.140000
v -0.260000 0.640000 0.140000
v -0.340000 0.640000 0.140000
v 0.260000 0.100000 -0.120000
v 0.260000 0.560000 -0.120000
v 0.340000 0.560000 -0.120000
v 0.340000 0.100000 -0.120000
v 0.260000 0.100000 -0.040000
v 0.340000 0.100000 -0.040000
v 0.340000 0.560000 -0.040000
v 0.260000 0.560000 -0.040000
v -0.340000 0.100000 -0.400000
v -0.340000 0.180000 -0.400000
v 0.340000 0.180000 -0.400000
v 0.340000 0.100000 -0.400000
v -0.340000 0.100000 -0.320000
v 0.340000 0.100000 -0.320000
v 0.340000 0.180000 -0.320000
v -0.340000 0.180000 -0.320000
v -0.560000 0.640000 0.080000
v -0.560000 0.900000 0.300000
v 0.020000 0.900000 0.300000
v 0.020000 0.640000 0.080000
v -0.560000 0.640000 0.520000
v 0.020000 0.640000 0.520000
v -0.560000 0.900000 0.288000
v 0.020000 0.900000 0.288000
v 0.020000 0.900000 0.312000
v -0.560000 0.900000 0.312000
v -0.440000 0.100000 -0.060000
v -0.440000 0.180000 -0.060000
v 0.180000 0.180000 -0.060000
v 0.180000 0.100000 -0.060000
v -0.440000 0.100000 0.020000
v 0.180000 0.100000 0.020000
v 0.180000 0.180000 0.020000
v -0.440000 0.180000 0.020000
vn -0.0000 -0.0000 -1.0000
vn -0.0000 -0.0000 1.0000
vn -1.0000 -0.0000 -0.0000
vn 1.0000 -0.0000 -0.0000
vn -0.0000 -1.0000 -0.0000
vn -0.0000 1.0000 -0.0000
vn -0.0000 0.6459 -0.7634
vn -0.0000 0.6459 0.7634
vt 0.937500 0.937500
vt 0.062500 0.812500
vt 0.312500 0.937500
vt 0.187500 0.937500
vt 0.562500 0.812500
vt 0.687500 0.812500
vt 0.687500 0.937500
vt 0.562500 0.937500
vt 0.312500 0.812500
vt 0.187500 0.812500
s 0
usemtl inkbox_entity_atlas
f 1/1/1 2/1/1 3/1/1 4/1/1
f 5/1/2 6/1/2 7/1/2 8/1/2
f 1/1/3 5/1/3 8/1/3 2/1/3
f 4/1/4 3/1/4 7/1/4 6/1/4
f 1/1/5 4/1/5 6/1/5 5/1/5
f 2/2/6 8/2/6 7/2/6 3/2/6
f 9/2/1 10/2/1 11/2/1 4/2/1
f 12/2/2 13/2/2 14/2/2 15/2/2
f 9/2/3 12/2/3 15/2/3 10/2/3
f 4/2/4 11/2/4 14/2/4 13/2/4
f 9/2/5 4/2/5 13/2/5 12/2/5
f 10/1/6 15/1/6 14/1/6 11/1/6
f 16/3/1 17/3/1 18/3/1 19/3/1
f 20/3/2 21/3/2 22/3/2 23/3/2
f 16/3/3 20/3/3 23/3/3 17/3/3
f 19/3/4 18/3/4 22/3/4 21/3/4
f 16/3/5 19/3/5 21/3/5 20/3/5
f 17/4/6 23/4/6 22/4/6 18/4/6
f 19/3/1 24/3/1 25/3/1 26/3/1
f 21/3/2 27/3/2 28/3/2 29/3/2
f 19/3/3 21/3/3 29/3/3 24/3/3
f 26/3/4 25/3/4 28/3/4 27/3/4
f 19/3/5 26/3/5 27/3/5 21/3/5
f 24/4/6 29/4/6 28/4/6 25/4/6
f 30/3/1 31/3/1 32/3/1 33/3/1
f 34/3/2 35/3/2 36/3/2 37/3/2
f 30/3/3 34/3/3 37/3/3 31/3/3
f 33/3/4 32/3/4 36/3/4 35/3/4
f 30/3/5 33/3/5 35/3/5 34/3/5
f 31/4/6 37/4/6 36/4/6 32/4/6
f 38/5/1 39/5/1 40/5/1 41/5/1
f 42/5/2 43/5/2 44/5/2 45/5/2
f 38/5/3 42/5/3 45/5/3 39/5/3
f 41/5/4 40/5/4 44/5/4 43/5/4
f 38/5/5 41/5/5 43/5/5 42/5/5
f 39/6/6 45/6/6 44/6/6 40/6/6
f 46/5/1 47/5/1 48/5/1 49/5/1
f 50/5/2 51/5/2 52/5/2 53/5/2
f 46/5/3 50/5/3 53/5/3 47/5/3
f 49/5/4 48/5/4 52/5/4 51/5/4
f 46/5/5 49/5/5 51/5/5 50/5/5
f 47/6/6 53/6/6 52/6/6 48/6/6
f 54/5/1 55/5/1 56/5/1 57/5/1
f 58/5/2 59/5/2 60/5/2 61/5/2
f 54/5/3 58/5/3 61/5/3 55/5/3
f 57/5/4 56/5/4 60/5/4 59/5/4
f 54/5/5 57/5/5 59/5/5 58/5/5
f 55/6/6 61/6/6 60/6/6 56/6/6
f 62/7/7 63/7/7 64/7/7 65/7/7
f 66/7/8 67/7/8 64/7/8 63/7/8
f 62/8/3 66/8/3 63/8/3
f 65/8/4 64/8/4 67/8/4
f 68/8/5 69/8/5 70/8/5 71/8/5
f 72/9/1 73/9/1 74/9/1 75/9/1
f 76/9/2 77/9/2 78/9/2 79/9/2
f 72/9/3 76/9/3 79/9/3 73/9/3
f 75/9/4 74/9/4 78/9/4 77/9/4
f 72/9/5 75/9/5 77/9/5 76/9/5
f 73/10/6 79/10/6 78/10/6 74/10/6
