# Blender 5.2.0 LTS
# www.blender.org
mtllib bld_relic.mtl
o bld_relic
v -0.480000 0.000000 -0.480000
v -0.480000 0.080000 -0.480000
v 0.480000 0.080000 -0.480000
v 0.480000 0.000000 -0.480000
v -0.480000 0.000000 0.480000
v 0.480000 0.000000 0.480000
v 0.480000 0.080000 0.480000
v -0.480000 0.080000 0.480000
v -0.380000 0.080000 -0.380000
v -0.380000 0.160000 -0.380000
v 0.380000 0.160000 -0.380000
v 0.380000 0.080000 -0.380000
v -0.380000 0.080000 0.380000
v 0.380000 0.080000 0.380000
v 0.380000 0.160000 0.380000
v -0.380000 0.160000 0.380000
v -0.340000 0.160000 0.120000
v -0.340000 0.175000 0.120000
v -0.140000 0.175000 0.120000
v -0.140000 0.160000 0.120000
v -0.340000 0.160000 0.300000
v -0.140000 0.160000 0.300000
v -0.140000 0.175000 0.300000
v -0.340000 0.175000 0.300000
v 0.160000 0.160000 -0.280000
v 0.160000 0.172000 -0.280000
v 0.340000 0.172000 -0.280000
v 0.340000 0.160000 -0.280000
v 0.160000 0.160000 -0.100000
v 0.340000 0.160000 -0.100000
v 0.340000 0.172000 -0.100000
v 0.160000 0.172000 -0.100000
v -0.060000 0.160000 -0.060000
v -0.060000 0.680000 -0.060000
v 0.060000 0.680000 -0.060000
v 0.060000 0.160000 -0.060000
v -0.060000 0.160000 0.060000
v 0.060000 0.160000 0.060000
v 0.060000 0.680000 0.060000
v -0.060000 0.680000 0.060000
v -0.060000 0.780000 -0.060000
v 0.000000 0.780000 -0.060000
v 0.000000 0.680000 -0.060000
v -0.060000 0.680000 0.000000
v 0.000000 0.680000 0.000000
v 0.000000 0.780000 0.000000
v -0.060000 0.780000 0.000000
v -0.340000 0.160000 -0.340000
v -0.340000 0.500000 -0.340000
v -0.240000 0.500000 -0.340000
v -0.240000 0.160000 -0.340000
v -0.340000 0.160000 -0.240000
v -0.240000 0.160000 -0.240000
v -0.240000 0.500000 -0.240000
v -0.340000 0.500000 -0.240000
v 0.240000 0.160000 -0.300000
v 0.240000 0.440000 -0.300000
v 0.340000 0.440000 -0.300000
v 0.340000 0.160000 -0.300000
v 0.240000 0.160000 -0.200000
v 0.340000 0.160000 -0.200000
v 0.340000 0.440000 -0.200000
v 0.240000 0.440000 -0.200000
v -0.320000 0.160000 0.200000
v -0.320000 0.380000 0.200000
v -0.220000 0.380000 0.200000
v -0.220000 0.160000 0.200000
v -0.320000 0.160000 0.300000
v -0.220000 0.160000 0.300000
v -0.220000 0.380000 0.300000
v -0.320000 0.380000 0.300000
v 0.220000 0.160000 0.180000
v 0.220000 0.520000 0.180000
v 0.320000 0.520000 0.180000
v 0.320000 0.160000 0.180000
v 0.220000 0.160000 0.280000
v 0.320000 0.160000 0.280000
v 0.320000 0.520000 0.280000
v 0.220000 0.520000 0.280000
v 0.100000 0.160000 -0.060000
v 0.100000 0.240000 -0.060000
v 0.380000 0.240000 -0.060000
v 0.380000 0.160000 -0.060000
v 0.100000 0.160000 0.040000
v 0.380000 0.160000 0.040000
v 0.380000 0.240000 0.040000
v 0.100000 0.240000 0.040000
vn -0.0000 -0.0000 -1.0000
vn -0.0000 -0.0000 1.0000
vn -1.0000 -0.0000 -0.0000
vn 1.0000 -0.0000 -0.0000
vn -0.0000 -1.0000 -0.0000
vn -0.0000 1.0000 -0.0000
vt 0.937500 0.937500
vt 0.062500 0.812500
vt 0.312500 0.687500
vt 0.187500 0.687500
vt 0.687500 0.937500
vt 0.812500 0.937500
s 0
usemtl inkbox_entity_atlas
f 1/1/1 2/1/1 3/1/1 4/1/1
f 5/1/2 6/1/2 7/1/2 8/1/2
f 1/1/3 5/1/3 8/1/3 2/1/3
f 4/1/4 3/1/4 7/1/4 6/1/4
f 1/1/5 4/1/5 6/1/5 5/1/5
f 2/2/6 8/2/6 7/2/6 3/2/6
f 9/2/1 10/2/1 11/2/1 12/2/1
f 13/2/2 14/2/2 15/2/2 16/2/2
f 9/2/3 13/2/3 16/2/3 10/2/3
f 12/2/4 11/2/4 15/2/4 14/2/4
f 9/2/5 12/2/5 14/2/5 13/2/5
f 10/1/6 16/1/6 15/1/6 11/1/6
f 17/3/1 18/3/1 19/3/1 20/3/1
f 21/3/2 22/3/2 23/3/2 24/3/2
f 17/3/3 21/3/3 24/3/3 18/3/3
f 20/3/4 19/3/4 23/3/4 22/3/4
f 17/3/5 20/3/5 22/3/5 21/3/5
f 18/3/6 24/3/6 23/3/6 19/3/6
f 25/4/1 26/4/1 27/4/1 28/4/1
f 29/4/2 30/4/2 31/4/2 32/4/2
f 25/4/3 29/4/3 32/4/3 26/4/3
f 28/4/4 27/4/4 31/4/4 30/4/4
f 25/4/5 28/4/5 30/4/5 29/4/5
f 26/4/6 32/4/6 31/4/6 27/4/6
f 33/5/1 34/5/1 35/5/1 36/5/1
f 37/6/2 38/6/2 39/6/2 40/6/2
f 33/6/3 37/6/3 40/6/3 34/6/3
f 36/6/4 35/6/4 39/6/4 38/6/4
f 33/6/5 36/6/5 38/6/5 37/6/5
f 34/5/6 40/5/6 39/5/6 35/5/6
f 34/6/1 41/6/1 42/6/1 43/6/1
f 44/6/2 45/6/2 46/6/2 47/6/2
f 34/6/3 44/6/3 47/6/3 41/6/3
f 43/6/4 42/6/4 46/6/4 45/6/4
f 34/6/5 43/6/5 45/6/5 44/6/5
f 41/5/6 47/5/6 46/5/6 42/5/6
f 48/1/1 49/1/1 50/1/1 51/1/1
f 52/1/2 53/1/2 54/1/2 55/1/2
f 48/1/3 52/1/3 55/1/3 49/1/3
f 51/1/4 50/1/4 54/1/4 53/1/4
f 48/1/5 51/1/5 53/1/5 52/1/5
f 49/2/6 55/2/6 54/2/6 50/2/6
f 56/1/1 57/1/1 58/1/1 59/1/1
f 60/1/2 61/1/2 62/1/2 63/1/2
f 56/1/3 60/1/3 63/1/3 57/1/3
f 59/1/4 58/1/4 62/1/4 61/1/4
f 56/1/5 59/1/5 61/1/5 60/1/5
f 57/2/6 63/2/6 62/2/6 58/2/6
f 64/1/1 65/1/1 66/1/1 67/1/1
f 68/1/2 69/1/2 70/1/2 71/1/2
f 64/1/3 68/1/3 71/1/3 65/1/3
f 67/1/4 66/1/4 70/1/4 69/1/4
f 64/1/5 67/1/5 69/1/5 68/1/5
f 65/2/6 71/2/6 70/2/6 66/2/6
f 72/1/1 73/1/1 74/1/1 75/1/1
f 76/1/2 77/1/2 78/1/2 79/1/2
f 72/1/3 76/1/3 79/1/3 73/1/3
f 75/1/4 74/1/4 78/1/4 77/1/4
f 72/1/5 75/1/5 77/1/5 76/1/5
f 73/2/6 79/2/6 78/2/6 74/2/6
f 80/2/1 81/2/1 82/2/1 83/2/1
f 84/2/2 85/2/2 86/2/2 87/2/2
f 80/2/3 84/2/3 87/2/3 81/2/3
f 83/2/4 82/2/4 86/2/4 85/2/4
f 80/2/5 83/2/5 85/2/5 84/2/5
f 81/1/6 87/1/6 86/1/6 82/1/6
