# Blender 5.2.0 LTS
# www.blender.org
mtllib bld_tower.mtl
o bld_tower
v -0.360000 0.000000 -0.360000
v -0.360000 0.100000 -0.360000
v 0.360000 0.100000 -0.360000
v 0.360000 0.000000 -0.360000
v -0.360000 0.000000 0.360000
v 0.360000 0.000000 0.360000
v 0.360000 0.100000 0.360000
v -0.360000 0.100000 0.360000
v -0.300000 0.100000 -0.300000
v -0.300000 0.520000 -0.300000
v 0.300000 0.520000 -0.300000
v 0.300000 0.100000 -0.300000
v -0.300000 0.100000 0.300000
v 0.300000 0.100000 0.300000
v 0.300000 0.520000 0.300000
v -0.300000 0.520000 0.300000
v -0.355000 0.520000 -0.355000
v -0.355000 0.575000 -0.355000
v 0.355000 0.575000 -0.355000
v 0.355000 0.520000 -0.355000
v -0.355000 0.520000 0.355000
v 0.355000 0.520000 0.355000
v 0.355000 0.575000 0.355000
v -0.355000 0.575000 0.355000
v -0.200000 0.220000 -0.312000
v -0.200000 0.380000 -0.312000
v 0.200000 0.380000 -0.312000
v 0.200000 0.220000 -0.312000
v -0.200000 0.220000 -0.300000
v 0.200000 0.220000 -0.300000
v 0.200000 0.380000 -0.300000
v -0.200000 0.380000 -0.300000
v -0.240000 0.560000 -0.240000
v -0.240000 0.940000 -0.240000
v 0.240000 0.940000 -0.240000
v 0.240000 0.560000 -0.240000
v -0.240000 0.560000 0.240000
v 0.240000 0.560000 0.240000
v 0.240000 0.940000 0.240000
v -0.240000 0.940000 0.240000
v -0.295000 0.940000 -0.295000
v -0.295000 0.995000 -0.295000
v 0.295000 0.995000 -0.295000
v 0.295000 0.940000 -0.295000
v -0.295000 0.940000 0.295000
v 0.295000 0.940000 0.295000
v 0.295000 0.995000 0.295000
v -0.295000 0.995000 0.295000
v -0.140000 0.680000 -0.252000
v -0.140000 0.840000 -0.252000
v 0.140000 0.840000 -0.252000
v 0.140000 0.680000 -0.252000
v -0.140000 0.680000 -0.240000
v 0.140000 0.680000 -0.240000
v 0.140000 0.840000 -0.240000
v -0.140000 0.840000 -0.240000
v -0.170000 0.980000 -0.170000
v -0.170000 1.300000 -0.170000
v 0.170000 1.300000 -0.170000
v 0.170000 0.980000 -0.170000
v -0.170000 0.980000 0.170000
v 0.170000 0.980000 0.170000
v 0.170000 1.300000 0.170000
v -0.170000 1.300000 0.170000
v -0.225000 1.300000 -0.225000
v -0.225000 1.355000 -0.225000
v 0.225000 1.355000 -0.225000
v 0.225000 1.300000 -0.225000
v -0.225000 1.300000 0.225000
v 0.225000 1.300000 0.225000
v 0.225000 1.355000 0.225000
v -0.225000 1.355000 0.225000
v -0.070000 1.100000 -0.182000
v -0.070000 1.260000 -0.182000
v 0.070000 1.260000 -0.182000
v 0.070000 1.100000 -0.182000
v -0.070000 1.100000 -0.170000
v 0.070000 1.100000 -0.170000
v 0.070000 1.260000 -0.170000
v -0.070000 1.260000 -0.170000
v -0.220000 1.355000 -0.220000
v 0.000000 1.620000 0.000000
v 0.220000 1.355000 -0.220000
v 0.220000 1.355000 0.220000
v -0.220000 1.355000 0.220000
v -0.020000 1.620000 -0.020000
v -0.020000 1.720000 -0.020000
v 0.020000 1.720000 -0.020000
v 0.020000 1.620000 -0.020000
v -0.020000 1.620000 0.020000
v 0.020000 1.620000 0.020000
v 0.020000 1.720000 0.020000
v -0.020000 1.720000 0.020000
vn -0.0000 -0.0000 -1.0000
vn -0.0000 -0.0000 1.0000
vn -1.0000 -0.0000 -0.0000
vn 1.0000 -0.0000 -0.0000
vn -0.0000 -1.0000 -0.0000
vn -0.0000 1.0000 -0.0000
vn -0.0000 0.6388 -0.7694
vn 0.7694 0.6388 -0.0000
vn -0.0000 0.6388 0.7694
vn -0.7694 0.6388 -0.0000
vt 0.937500 0.937500
vt 0.062500 0.812500
vt 0.062500 0.937500
vt 0.187500 0.937500
vt 0.687500 0.937500
vt 0.562500 0.937500
vt 0.812500 0.812500
s 0
usemtl inkbox_entity_atlas
f 1/1/1 2/1/1 3/1/1 4/1/1
f 5/1/2 6/1/2 7/1/2 8/1/2
f 1/1/3 5/1/3 8/1/3 2/1/3
f 4/1/4 3/1/4 7/1/4 6/1/4
f 1/1/5 4/1/5 6/1/5 5/1/5
f 2/2/6 8/2/6 7/2/6 3/2/6
f 9/3/1 10/3/1 11/3/1 12/3/1
f 13/3/2 14/3/2 15/3/2 16/3/2
f 9/4/3 13/4/3 16/4/3 10/4/3
f 12/4/4 11/4/4 15/4/4 14/4/4
f 9/3/5 12/3/5 14/3/5 13/3/5
f 10/4/6 16/4/6 15/4/6 11/4/6
f 17/5/1 18/5/1 19/5/1 20/5/1
f 21/5/2 22/5/2 23/5/2 24/5/2
f 17/5/3 21/5/3 24/5/3 18/5/3
f 20/5/4 19/5/4 23/5/4 22/5/4
f 17/5/5 20/5/5 22/5/5 21/5/5
f 18/6/6 24/6/6 23/6/6 19/6/6
f 25/6/1 26/6/1 27/6/1 28/6/1
f 29/6/2 30/6/2 31/6/2 32/6/2
f 25/6/3 29/6/3 32/6/3 26/6/3
f 28/6/4 27/6/4 31/6/4 30/6/4
f 25/6/5 28/6/5 30/6/5 29/6/5
f 26/6/6 32/6/6 31/6/6 27/6/6
f 33/3/1 34/3/1 35/3/1 36/3/1
f 37/3/2 38/3/2 39/3/2 40/3/2
f 33/4/3 37/4/3 40/4/3 34/4/3
f 36/4/4 35/4/4 39/4/4 38/4/4
f 33/3/5 36/3/5 38/3/5 37/3/5
f 34/4/6 40/4/6 39/4/6 35/4/6
f 41/5/1 42/5/1 43/5/1 44/5/1
f 45/5/2 46/5/2 47/5/2 48/5/2
f 41/5/3 45/5/3 48/5/3 42/5/3
f 44/5/4 43/5/4 47/5/4 46/5/4
f 41/5/5 44/5/5 46/5/5 45/5/5
f 42/6/6 48/6/6 47/6/6 43/6/6
f 49/6/1 50/6/1 51/6/1 52/6/1
f 53/6/2 54/6/2 55/6/2 56/6/2
f 49/6/3 53/6/3 56/6/3 50/6/3
f 52/6/4 51/6/4 55/6/4 54/6/4
f 49/6/5 52/6/5 54/6/5 53/6/5
f 50/6/6 56/6/6 55/6/6 51/6/6
f 57/3/1 58/3/1 59/3/1 60/3/1
f 61/3/2 62/3/2 63/3/2 64/3/2
f 57/4/3 61/4/3 64/4/3 58/4/3
f 60/4/4 59/4/4 63/4/4 62/4/4
f 57/3/5 60/3/5 62/3/5 61/3/5
f 58/4/6 64/4/6 63/4/6 59/4/6
f 65/5/1 66/5/1 67/5/1 68/5/1
f 69/5/2 70/5/2 71/5/2 72/5/2
f 65/5/3 69/5/3 72/5/3 66/5/3
f 68/5/4 67/5/4 71/5/4 70/5/4
f 65/5/5 68/5/5 70/5/5 69/5/5
f 66/6/6 72/6/6 71/6/6 67/6/6
f 73/6/1 74/6/1 75/6/1 76/6/1
f 77/6/2 78/6/2 79/6/2 80/6/2
f 73/6/3 77/6/3 80/6/3 74/6/3
f 76/6/4 75/6/4 79/6/4 78/6/4
f 73/6/5 76/6/5 78/6/5 77/6/5
f 74/6/6 80/6/6 79/6/6 75/6/6
f 81/5/7 82/5/7 83/5/7
f 83/5/8 82/5/8 84/5/8
f 84/5/9 82/5/9 85/5/9
f 85/5/10 82/5/10 81/5/10
f 86/7/1 87/7/1 88/7/1 89/7/1
f 90/7/2 91/7/2 92/7/2 93/7/2
f 86/7/3 90/7/3 93/7/3 87/7/3
f 89/7/4 88/7/4 92/7/4 91/7/4
f 86/7/5 89/7/5 91/7/5 90/7/5
f 87/7/6 93/7/6 92/7/6 88/7/6
