# Blender 5.2.0 LTS
# www.blender.org
mtllib bld_ruin.mtl
o bld_ruin
v -0.500000 0.000000 -0.100000
v -0.500000 0.420000 -0.100000
v 0.500000 0.420000 -0.100000
v 0.500000 0.000000 -0.100000
v -0.500000 0.000000 0.100000
v 0.500000 0.000000 0.100000
v 0.500000 0.420000 0.100000
v -0.500000 0.420000 0.100000
v -0.500000 0.420000 -0.095000
v -0.500000 0.620000 -0.095000
v -0.240000 0.620000 -0.095000
v -0.240000 0.420000 -0.095000
v -0.500000 0.420000 0.095000
v -0.240000 0.420000 0.095000
v -0.240000 0.620000 0.095000
v -0.500000 0.620000 0.095000
v -0.240000 0.500000 -0.095000
v -0.020000 0.500000 -0.095000
v -0.020000 0.420000 -0.095000
v -0.020000 0.420000 0.095000
v -0.020000 0.500000 0.095000
v -0.240000 0.500000 0.095000
v -0.020000 0.660000 -0.095000
v 0.200000 0.660000 -0.095000
v 0.200000 0.420000 -0.095000
v 0.200000 0.420000 0.095000
v 0.200000 0.660000 0.095000
v -0.020000 0.660000 0.095000
v 0.200000 0.480000 -0.095000
v 0.380000 0.480000 -0.095000
v 0.380000 0.420000 -0.095000
v 0.380000 0.420000 0.095000
v 0.380000 0.480000 0.095000
v 0.200000 0.480000 0.095000
v 0.380000 0.580000 -0.095000
v 0.500000 0.580000 -0.095000
v 0.500000 0.420000 -0.095000
v 0.500000 0.420000 0.095000
v 0.500000 0.580000 0.095000
v 0.380000 0.580000 0.095000
v -0.140000 0.000000 -0.115000
v -0.140000 0.300000 -0.115000
v 0.020000 0.300000 -0.115000
v 0.020000 0.000000 -0.115000
v -0.140000 0.000000 -0.085000
v 0.020000 0.000000 -0.085000
v 0.020000 0.300000 -0.085000
v -0.140000 0.300000 -0.085000
vn -0.0000 -0.0000 -1.0000
vn -0.0000 -0.0000 1.0000
vn -1.0000 -0.0000 -0.0000
vn 1.0000 -0.0000 -0.0000
vn -0.0000 -1.0000 -0.0000
vn -0.0000 1.0000 -0.0000
vt 0.312500 0.937500
vt 0.062500 0.937500
vt 0.187500 0.937500
vt 0.562500 0.937500
s 0
usemtl inkbox_entity_atlas
f 1/1/1 2/1/1 3/1/1 4/1/1
f 5/1/2 6/1/2 7/1/2 8/1/2
f 1/2/3 5/2/3 8/2/3 2/2/3
f 4/2/4 3/2/4 7/2/4 6/2/4
f 1/2/5 4/2/5 6/2/5 5/2/5
f 2/3/6 8/3/6 7/3/6 3/3/6
f 9/1/1 10/1/1 11/1/1 12/1/1
f 13/1/2 14/1/2 15/1/2 16/1/2
f 9/1/3 13/1/3 16/1/3 10/1/3
f 12/1/4 11/1/4 15/1/4 14/1/4
f 9/1/5 12/1/5 14/1/5 13/1/5
f 10/3/6 16/3/6 15/3/6 11/3/6
f 12/1/1 17/1/1 18/1/1 19/1/1
f 14/1/2 20/1/2 21/1/2 22/1/2
f 12/1/3 14/1/3 22/1/3 17/1/3
f 19/1/4 18/1/4 21/1/4 20/1/4
f 12/1/5 19/1/5 20/1/5 14/1/5
f 17/3/6 22/3/6 21/3/6 18/3/6
f 19/1/1 23/1/1 24/1/1 25/1/1
f 20/1/2 26/1/2 27/1/2 28/1/2
f 19/1/3 20/1/3 28/1/3 23/1/3
f 25/1/4 24/1/4 27/1/4 26/1/4
f 19/1/5 25/1/5 26/1/5 20/1/5
f 23/3/6 28/3/6 27/3/6 24/3/6
f 25/1/1 29/1/1 30/1/1 31/1/1
f 26/1/2 32/1/2 33/1/2 34/1/2
f 25/1/3 26/1/3 34/1/3 29/1/3
f 31/1/4 30/1/4 33/1/4 32/1/4
f 25/1/5 31/1/5 32/1/5 26/1/5
f 29/3/6 34/3/6 33/3/6 30/3/6
f 31/1/1 35/1/1 36/1/1 37/1/1
f 32/1/2 38/1/2 39/1/2 40/1/2
f 31/1/3 32/1/3 40/1/3 35/1/3
f 37/1/4 36/1/4 39/1/4 38/1/4
f 31/1/5 37/1/5 38/1/5 32/1/5
f 35/3/6 40/3/6 39/3/6 36/3/6
f 41/4/1 42/4/1 43/4/1 44/4/1
f 45/4/2 46/4/2 47/4/2 48/4/2
f 41/4/3 45/4/3 48/4/3 42/4/3
f 44/4/4 43/4/4 47/4/4 46/4/4
f 41/4/5 44/4/5 46/4/5 45/4/5
f 42/4/6 48/4/6 47/4/6 43/4/6
