# Blender 5.2.0 LTS
# www.blender.org
mtllib bld_hall.mtl
o bld_hall
v -0.620000 0.000000 -0.520000
v -0.620000 0.120000 -0.520000
v 0.620000 0.120000 -0.520000
v 0.620000 0.000000 -0.520000
v -0.620000 0.000000 0.520000
v 0.620000 0.000000 0.520000
v 0.620000 0.120000 0.520000
v -0.620000 0.120000 0.520000
v -0.220000 0.000000 -0.640000
v -0.220000 0.060000 -0.640000
v 0.220000 0.060000 -0.640000
v 0.220000 0.000000 -0.640000
v -0.220000 0.000000 -0.580000
v 0.220000 0.000000 -0.580000
v 0.220000 0.060000 -0.580000
v -0.220000 0.060000 -0.580000
v -0.220000 0.120000 -0.580000
v 0.220000 0.120000 -0.580000
v -0.220000 0.000000 -0.520000
v 0.220000 0.000000 -0.520000
v 0.220000 0.120000 -0.520000
v -0.220000 0.120000 -0.520000
v -0.540000 0.120000 -0.440000
v -0.540000 0.660000 -0.440000
v 0.540000 0.660000 -0.440000
v 0.540000 0.120000 -0.440000
v -0.540000 0.120000 0.440000
v 0.540000 0.120000 0.440000
v 0.540000 0.660000 0.440000
v -0.540000 0.660000 0.440000
v -0.500000 0.120000 -0.400000
v -0.500000 0.700000 -0.400000
v -0.430000 0.700000 -0.400000
v -0.430000 0.120000 -0.400000
v -0.500000 0.120000 -0.330000
v -0.430000 0.120000 -0.330000
v -0.430000 0.700000 -0.330000
v -0.500000 0.700000 -0.330000
v -0.500000 0.120000 0.340000
v -0.500000 0.700000 0.340000
v -0.430000 0.700000 0.340000
v -0.430000 0.120000 0.340000
v -0.500000 0.120000 0.410000
v -0.430000 0.120000 0.410000
v -0.430000 0.700000 0.410000
v -0.500000 0.700000 0.410000
v 0.440000 0.120000 -0.400000
v 0.440000 0.700000 -0.400000
v 0.510000 0.700000 -0.400000
v 0.510000 0.120000 -0.400000
v 0.440000 0.120000 -0.330000
v 0.510000 0.120000 -0.330000
v 0.510000 0.700000 -0.330000
v 0.440000 0.700000 -0.330000
v 0.440000 0.120000 0.340000
v 0.440000 0.700000 0.340000
v 0.510000 0.700000 0.340000
v 0.510000 0.120000 0.340000
v 0.440000 0.120000 0.410000
v 0.510000 0.120000 0.410000
v 0.510000 0.700000 0.410000
v 0.440000 0.700000 0.410000
v -0.160000 0.120000 -0.465000
v -0.160000 0.460000 -0.465000
v 0.160000 0.460000 -0.465000
v 0.160000 0.120000 -0.465000
v -0.160000 0.120000 -0.435000
v 0.160000 0.120000 -0.435000
v 0.160000 0.460000 -0.435000
v -0.160000 0.460000 -0.435000
v -0.660000 0.660000 -0.580000
v -0.396000 1.000000 0.000000
v 0.396000 1.000000 0.000000
v 0.660000 0.660000 -0.580000
v 0.660000 0.660000 0.580000
v -0.660000 0.660000 0.580000
v -0.396000 1.000000 -0.012000
v 0.396000 1.000000 -0.012000
v 0.396000 1.000000 0.012000
v -0.396000 1.000000 0.012000
vn -0.0000 -0.0000 -1.0000
vn -0.0000 -0.0000 1.0000
vn -1.0000 -0.0000 -0.0000
vn 1.0000 -0.0000 -0.0000
vn -0.0000 -1.0000 -0.0000
vn -0.0000 1.0000 -0.0000
vn -0.0000 0.8627 -0.5057
vn -0.0000 0.8627 0.5057
vn -0.7899 0.6133 -0.0000
vn 0.7899 0.6133 -0.0000
vt 0.937500 0.937500
vt 0.062500 0.812500
vt 0.062500 0.937500
vt 0.187500 0.937500
vt 0.562500 0.812500
vt 0.687500 0.812500
vt 0.562500 0.937500
vt 0.687500 0.937500
s 0
usemtl inkbox_entity_atlas
f 1/1/1 2/1/1 3/1/1 4/1/1
f 5/1/2 6/1/2 7/1/2 8/1/2
f 1/1/3 5/1/3 8/1/3 2/1/3
f 4/1/4 3/1/4 7/1/4 6/1/4
f 1/1/5 4/1/5 6/1/5 5/1/5
f 2/2/6 8/2/6 7/2/6 3/2/6
f 9/1/1 10/1/1 11/1/1 12/1/1
f 13/1/2 14/1/2 15/1/2 16/1/2
f 9/1/3 13/1/3 16/1/3 10/1/3
f 12/1/4 11/1/4 15/1/4 14/1/4
f 9/1/5 12/1/5 14/1/5 13/1/5
f 10/2/6 16/2/6 15/2/6 11/2/6
f 13/1/1 17/1/1 18/1/1 14/1/1
f 19/1/2 20/1/2 21/1/2 22/1/2
f 13/1/3 19/1/3 22/1/3 17/1/3
f 14/1/4 18/1/4 21/1/4 20/1/4
f 13/1/5 14/1/5 20/1/5 19/1/5
f 17/2/6 22/2/6 21/2/6 18/2/6
f 23/3/1 24/3/1 25/3/1 26/3/1
f 27/3/2 28/3/2 29/3/2 30/3/2
f 23/4/3 27/4/3 30/4/3 24/4/3
f 26/4/4 25/4/4 29/4/4 28/4/4
f 23/3/5 26/3/5 28/3/5 27/3/5
f 24/4/6 30/4/6 29/4/6 25/4/6
f 31/5/1 32/5/1 33/5/1 34/5/1
f 35/5/2 36/5/2 37/5/2 38/5/2
f 31/5/3 35/5/3 38/5/3 32/5/3
f 34/5/4 33/5/4 37/5/4 36/5/4
f 31/5/5 34/5/5 36/5/5 35/5/5
f 32/6/6 38/6/6 37/6/6 33/6/6
f 39/5/1 40/5/1 41/5/1 42/5/1
f 43/5/2 44/5/2 45/5/2 46/5/2
f 39/5/3 43/5/3 46/5/3 40/5/3
f 42/5/4 41/5/4 45/5/4 44/5/4
f 39/5/5 42/5/5 44/5/5 43/5/5
f 40/6/6 46/6/6 45/6/6 41/6/6
f 47/5/1 48/5/1 49/5/1 50/5/1
f 51/5/2 52/5/2 53/5/2 54/5/2
f 47/5/3 51/5/3 54/5/3 48/5/3
f 50/5/4 49/5/4 53/5/4 52/5/4
f 47/5/5 50/5/5 52/5/5 51/5/5
f 48/6/6 54/6/6 53/6/6 49/6/6
f 55/5/1 56/5/1 57/5/1 58/5/1
f 59/5/2 60/5/2 61/5/2 62/5/2
f 55/5/3 59/5/3 62/5/3 56/5/3
f 58/5/4 57/5/4 61/5/4 60/5/4
f 55/5/5 58/5/5 60/5/5 59/5/5
f 56/6/6 62/6/6 61/6/6 57/6/6
f 63/7/1 64/7/1 65/7/1 66/7/1
f 67/7/2 68/7/2 69/7/2 70/7/2
f 63/7/3 67/7/3 70/7/3 64/7/3
f 66/7/4 65/7/4 69/7/4 68/7/4
f 63/7/5 66/7/5 68/7/5 67/7/5
f 64/7/6 70/7/6 69/7/6 65/7/6
f 71/8/7 72/8/7 73/8/7 74/8/7
f 75/8/8 73/8/8 72/8/8 76/8/8
f 71/7/9 76/7/9 72/7/9
f 75/7/10 74/7/10 73/7/10
f 77/7/5 78/7/5 79/7/5 80/7/5
