# Blender 5.2.0 LTS
# www.blender.org
mtllib bld_gate.mtl
o bld_gate
v -0.515000 0.000000 -0.060000
v -0.515000 0.900000 -0.060000
v -0.405000 0.900000 -0.060000
v -0.405000 0.000000 -0.060000
v -0.515000 0.000000 0.060000
v -0.405000 0.000000 0.060000
v -0.405000 0.900000 0.060000
v -0.515000 0.900000 0.060000
v -0.550000 0.000000 -0.090000
v -0.550000 0.070000 -0.090000
v -0.370000 0.070000 -0.090000
v -0.370000 0.000000 -0.090000
v -0.550000 0.000000 0.090000
v -0.370000 0.000000 0.090000
v -0.370000 0.070000 0.090000
v -0.550000 0.070000 0.090000
v 0.405000 0.000000 -0.060000
v 0.405000 0.900000 -0.060000
v 0.515000 0.900000 -0.060000
v 0.515000 0.000000 -0.060000
v 0.405000 0.000000 0.060000
v 0.515000 0.000000 0.060000
v 0.515000 0.900000 0.060000
v 0.405000 0.900000 0.060000
v 0.370000 0.000000 -0.090000
v 0.370000 0.070000 -0.090000
v 0.550000 0.070000 -0.090000
v 0.550000 0.000000 -0.090000
v 0.370000 0.000000 0.090000
v 0.550000 0.000000 0.090000
v 0.550000 0.070000 0.090000
v 0.370000 0.070000 0.090000
v -0.600000 0.720000 -0.070000
v -0.600000 0.800000 -0.070000
v 0.600000 0.800000 -0.070000
v 0.600000 0.720000 -0.070000
v -0.600000 0.720000 0.070000
v 0.600000 0.720000 0.070000
v 0.600000 0.800000 0.070000
v -0.600000 0.800000 0.070000
v -0.660000 0.940000 -0.070000
v -0.660000 1.000000 -0.070000
v 0.660000 1.000000 -0.070000
v 0.660000 0.940000 -0.070000
v -0.660000 0.940000 0.070000
v 0.660000 0.940000 0.070000
v 0.660000 1.000000 0.070000
v -0.660000 1.000000 0.070000
v -0.100000 0.800000 -0.075000
v -0.100000 0.940000 -0.075000
v 0.100000 0.940000 -0.075000
v 0.100000 0.800000 -0.075000
v -0.100000 0.800000 -0.055000
v 0.100000 0.800000 -0.055000
v 0.100000 0.940000 -0.055000
v -0.100000 0.940000 -0.055000
v -0.740000 1.000000 -0.140000
v -0.740000 1.200000 0.000000
v 0.740000 1.200000 0.000000
v 0.740000 1.000000 -0.140000
v -0.740000 1.000000 0.140000
v 0.740000 1.000000 0.140000
v -0.740000 1.200000 -0.012000
v 0.740000 1.200000 -0.012000
v 0.740000 1.200000 0.012000
v -0.740000 1.200000 0.012000
vn -0.0000 -0.0000 -1.0000
vn -0.0000 -0.0000 1.0000
vn -1.0000 -0.0000 -0.0000
vn 1.0000 -0.0000 -0.0000
vn -0.0000 -1.0000 -0.0000
vn -0.0000 1.0000 -0.0000
vn -0.0000 0.5735 -0.8192
vn -0.0000 0.5735 0.8192
vt 0.312500 0.812500
vt 0.187500 0.812500
vt 0.937500 0.937500
vt 0.062500 0.812500
vt 0.562500 0.812500
vt 0.687500 0.812500
vt 0.812500 0.812500
vt 0.687500 0.937500
vt 0.312500 0.937500
vt 0.562500 0.937500
s 0
usemtl inkbox_entity_atlas
f 1/1/1 2/1/1 3/1/1 4/1/1
f 5/1/2 6/1/2 7/1/2 8/1/2
f 1/2/3 5/2/3 8/2/3 2/2/3
f 4/2/4 3/2/4 7/2/4 6/2/4
f 1/2/5 4/2/5 6/2/5 5/2/5
f 2/1/6 8/1/6 7/1/6 3/1/6
f 9/3/1 10/3/1 11/3/1 12/3/1
f 13/3/2 14/3/2 15/3/2 16/3/2
f 9/3/3 13/3/3 16/3/3 10/3/3
f 12/3/4 11/3/4 15/3/4 14/3/4
f 9/3/5 12/3/5 14/3/5 13/3/5
f 10/4/6 16/4/6 15/4/6 11/4/6
f 17/1/1 18/1/1 19/1/1 20/1/1
f 21/1/2 22/1/2 23/1/2 24/1/2
f 17/2/3 21/2/3 24/2/3 18/2/3
f 20/2/4 19/2/4 23/2/4 22/2/4
f 17/2/5 20/2/5 22/2/5 21/2/5
f 18/1/6 24/1/6 23/1/6 19/1/6
f 25/3/1 26/3/1 27/3/1 28/3/1
f 29/3/2 30/3/2 31/3/2 32/3/2
f 25/3/3 29/3/3 32/3/3 26/3/3
f 28/3/4 27/3/4 31/3/4 30/3/4
f 25/3/5 28/3/5 30/3/5 29/3/5
f 26/4/6 32/4/6 31/4/6 27/4/6
f 33/5/1 34/5/1 35/5/1 36/5/1
f 37/5/2 38/5/2 39/5/2 40/5/2
f 33/5/3 37/5/3 40/5/3 34/5/3
f 36/5/4 35/5/4 39/5/4 38/5/4
f 33/5/5 36/5/5 38/5/5 37/5/5
f 34/6/6 40/6/6 39/6/6 35/6/6
f 41/5/1 42/5/1 43/5/1 44/5/1
f 45/5/2 46/5/2 47/5/2 48/5/2
f 41/5/3 45/5/3 48/5/3 42/5/3
f 44/5/4 43/5/4 47/5/4 46/5/4
f 41/5/5 44/5/5 46/5/5 45/5/5
f 42/6/6 48/6/6 47/6/6 43/6/6
f 49/7/1 50/7/1 51/7/1 52/7/1
f 53/7/2 54/7/2 55/7/2 56/7/2
f 49/7/3 53/7/3 56/7/3 50/7/3
f 52/7/4 51/7/4 55/7/4 54/7/4
f 49/7/5 52/7/5 54/7/5 53/7/5
f 50/7/6 56/7/6 55/7/6 51/7/6
f 57/8/7 58/8/7 59/8/7 60/8/7
f 61/8/8 62/8/8 59/8/8 58/8/8
f 57/9/3 61/9/3 58/9/3
f 60/9/4 59/9/4 62/9/4
f 63/10/5 64/10/5 65/10/5 66/10/5
