# Blender 5.2.0 LTS
# www.blender.org
mtllib bld_wall.mtl
o bld_wall
v -0.500000 0.000000 -0.100000
v -0.500000 0.520000 -0.100000
v 0.500000 0.520000 -0.100000
v 0.500000 0.000000 -0.100000
v -0.500000 0.000000 0.100000
v 0.500000 0.000000 0.100000
v 0.500000 0.520000 0.100000
v -0.500000 0.520000 0.100000
v -0.520000 0.520000 -0.130000
v -0.520000 0.600000 -0.130000
v 0.520000 0.600000 -0.130000
v 0.520000 0.520000 -0.130000
v -0.520000 0.520000 0.130000
v 0.520000 0.520000 0.130000
v 0.520000 0.600000 0.130000
v -0.520000 0.600000 0.130000
vn -0.0000 -0.0000 -1.0000
vn -0.0000 -0.0000 1.0000
vn -1.0000 -0.0000 -0.0000
vn 1.0000 -0.0000 -0.0000
vn -0.0000 -1.0000 -0.0000
vn -0.0000 1.0000 -0.0000
vt 0.187500 0.937500
vt 0.312500 0.937500
vt 0.062500 0.937500
vt 0.687500 0.937500
vt 0.562500 0.937500
s 0
usemtl inkbox_entity_atlas
f 1/1/1 2/1/1 3/1/1 4/1/1
f 5/1/2 6/1/2 7/1/2 8/1/2
f 1/2/3 5/2/3 8/2/3 2/2/3
f 4/2/4 3/2/4 7/2/4 6/2/4
f 1/3/5 4/3/5 6/3/5 5/3/5
f 2/1/6 8/1/6 7/1/6 3/1/6
f 9/4/1 10/4/1 11/4/1 12/4/1
f 13/4/2 14/4/2 15/4/2 16/4/2
f 9/4/3 13/4/3 16/4/3 10/4/3
f 12/4/4 11/4/4 15/4/4 14/4/4
f 9/4/5 12/4/5 14/4/5 13/4/5
f 10/5/6 16/5/6 15/5/6 11/5/6
