# Blender 5.2.0 LTS
# www.blender.org
mtllib bld_bridge.mtl
o bld_bridge
v 0.340000 0.300000 -0.300000
v 0.306330 0.447520 -0.300000
v 0.306330 0.447520 0.300000
v 0.340000 0.300000 0.300000
v 0.240000 0.300000 0.300000
v 0.216230 0.404130 0.300000
v 0.216230 0.404130 -0.300000
v 0.240000 0.300000 -0.300000
v 0.211990 0.565820 -0.300000
v 0.211990 0.565820 0.300000
v 0.149640 0.487640 0.300000
v 0.149640 0.487640 -0.300000
v 0.075660 0.631480 -0.300000
v 0.075660 0.631480 0.300000
v 0.053410 0.533980 0.300000
v 0.053410 0.533980 -0.300000
v -0.075660 0.631480 -0.300000
v -0.075660 0.631480 0.300000
v -0.053410 0.533980 0.300000
v -0.053410 0.533980 -0.300000
v -0.211990 0.565820 -0.300000
v -0.211990 0.565820 0.300000
v -0.149640 0.487640 0.300000
v -0.149640 0.487640 -0.300000
v -0.306330 0.447520 -0.300000
v -0.306330 0.447520 0.300000
v -0.216230 0.404130 0.300000
v -0.216230 0.404130 -0.300000
v -0.340000 0.300000 -0.300000
v -0.340000 0.300000 0.300000
v -0.240000 0.300000 0.300000
v -0.240000 0.300000 -0.300000
v -0.520000 0.620000 -0.300000
v -0.520000 0.720000 -0.300000
v 0.520000 0.720000 -0.300000
v 0.520000 0.620000 -0.300000
v -0.520000 0.620000 0.300000
v 0.520000 0.620000 0.300000
v 0.520000 0.720000 0.300000
v -0.520000 0.720000 0.300000
v -0.520000 0.840000 -0.300000
v 0.520000 0.840000 -0.300000
v -0.520000 0.720000 -0.260000
v 0.520000 0.720000 -0.260000
v 0.520000 0.840000 -0.260000
v -0.520000 0.840000 -0.260000
v -0.520000 0.720000 0.260000
v -0.520000 0.840000 0.260000
v 0.520000 0.840000 0.260000
v 0.520000 0.720000 0.260000
v 0.520000 0.840000 0.300000
v -0.520000 0.840000 0.300000
vn 0.9749 0.2225 -0.0000
vn -0.9749 -0.2225 -0.0000
vn -0.0000 -0.0000 -1.0000
vn -0.0000 -0.0000 1.0000
vn 0.7818 0.6235 -0.0000
vn -0.7819 -0.6234 -0.0000
vn 0.4339 0.9010 -0.0000
vn -0.4339 -0.9010 -0.0000
vn -0.0000 1.0000 -0.0000
vn -0.0000 -1.0000 -0.0000
vn -0.4339 0.9010 -0.0000
vn 0.4339 -0.9010 -0.0000
vn -0.7818 0.6235 -0.0000
vn 0.7819 -0.6234 -0.0000
vn -0.9749 0.2225 -0.0000
vn 0.9749 -0.2225 -0.0000
vn -1.0000 -0.0000 -0.0000
vn 1.0000 -0.0000 -0.0000
vt 0.937500 0.937500
vt 0.062500 0.812500
vt 0.812500 0.937500
s 0
usemtl inkbox_entity_atlas
f 1/1/1 2/1/1 3/1/1 4/1/1
f 5/2/2 6/2/2 7/2/2 8/2/2
f 1/1/3 8/1/3 7/1/3 2/1/3
f 3/1/4 6/1/4 5/1/4 4/1/4
f 2/1/5 9/1/5 10/1/5 3/1/5
f 6/2/6 11/2/6 12/2/6 7/2/6
f 2/1/3 7/1/3 12/1/3 9/1/3
f 10/1/4 11/1/4 6/1/4 3/1/4
f 9/1/7 13/1/7 14/1/7 10/1/7
f 11/2/8 15/2/8 16/2/8 12/2/8
f 9/1/3 12/1/3 16/1/3 13/1/3
f 14/1/4 15/1/4 11/1/4 10/1/4
f 13/1/9 17/1/9 18/1/9 14/1/9
f 15/2/10 19/2/10 20/2/10 16/2/10
f 13/1/3 16/1/3 20/1/3 17/1/3
f 18/1/4 19/1/4 15/1/4 14/1/4
f 17/1/11 21/1/11 22/1/11 18/1/11
f 19/2/12 23/2/12 24/2/12 20/2/12
f 17/1/3 20/1/3 24/1/3 21/1/3
f 22/1/4 23/1/4 19/1/4 18/1/4
f 21/1/13 25/1/13 26/1/13 22/1/13
f 23/2/14 27/2/14 28/2/14 24/2/14
f 21/1/3 24/1/3 28/1/3 25/1/3
f 26/1/4 27/1/4 23/1/4 22/1/4
f 25/1/15 29/1/15 30/1/15 26/1/15
f 27/2/16 31/2/16 32/2/16 28/2/16
f 25/1/3 28/1/3 32/1/3 29/1/3
f 30/1/4 31/1/4 27/1/4 26/1/4
f 33/1/3 34/1/3 35/1/3 36/1/3
f 37/1/4 38/1/4 39/1/4 40/1/4
f 33/1/17 37/1/17 40/1/17 34/1/17
f 36/1/18 35/1/18 39/1/18 38/1/18
f 33/1/10 36/1/10 38/1/10 37/1/10
f 34/2/9 40/2/9 39/2/9 35/2/9
f 34/2/3 41/2/3 42/2/3 35/2/3
f 43/2/4 44/2/4 45/2/4 46/2/4
f 34/2/17 43/2/17 46/2/17 41/2/17
f 35/2/18 42/2/18 45/2/18 44/2/18
f 34/2/10 35/2/10 44/2/10 43/2/10
f 41/3/9 46/3/9 45/3/9 42/3/9
f 47/2/3 48/2/3 49/2/3 50/2/3
f 40/2/4 39/2/4 51/2/4 52/2/4
f 47/2/17 40/2/17 52/2/17 48/2/17
f 50/2/18 49/2/18 51/2/18 39/2/18
f 47/2/10 50/2/10 39/2/10 40/2/10
f 48/3/9 52/3/9 51/3/9 49/3/9
