# Blender 5.2.0 LTS
# www.blender.org
mtllib bld_altar.mtl
o bld_altar
v -0.440000 0.000000 -0.440000
v -0.440000 0.100000 -0.440000
v 0.440000 0.100000 -0.440000
v 0.440000 0.000000 -0.440000
v -0.440000 0.000000 0.440000
v 0.440000 0.000000 0.440000
v 0.440000 0.100000 0.440000
v -0.440000 0.100000 0.440000
v -0.300000 0.100000 -0.300000
v -0.300000 0.200000 -0.300000
v 0.300000 0.200000 -0.300000
v 0.300000 0.100000 -0.300000
v -0.300000 0.100000 0.300000
v 0.300000 0.100000 0.300000
v 0.300000 0.200000 0.300000
v -0.300000 0.200000 0.300000
v -0.090000 0.200000 -0.060000
v -0.090000 0.720000 -0.060000
v 0.090000 0.720000 -0.060000
v 0.090000 0.200000 -0.060000
v -0.090000 0.200000 0.060000
v 0.090000 0.200000 0.060000
v 0.090000 0.720000 0.060000
v -0.090000 0.720000 0.060000
v -0.130000 0.720000 -0.090000
v -0.130000 0.800000 -0.090000
v 0.130000 0.800000 -0.090000
v 0.130000 0.720000 -0.090000
v -0.130000 0.720000 0.090000
v 0.130000 0.720000 0.090000
v 0.130000 0.800000 0.090000
v -0.130000 0.800000 0.090000
v -0.035000 0.800000 -0.035000
v -0.035000 0.900000 -0.035000
v 0.035000 0.900000 -0.035000
v 0.035000 0.800000 -0.035000
v -0.035000 0.800000 0.035000
v 0.035000 0.800000 0.035000
v 0.035000 0.900000 0.035000
v -0.035000 0.900000 0.035000
vn -0.0000 -0.0000 -1.0000
vn -0.0000 -0.0000 1.0000
vn -1.0000 -0.0000 -0.0000
vn 1.0000 -0.0000 -0.0000
vn -0.0000 -1.0000 -0.0000
vn -0.0000 1.0000 -0.0000
vt 0.937500 0.937500
vt 0.062500 0.812500
vt 0.687500 0.937500
vt 0.812500 0.937500
vt 0.562500 0.937500
vt 0.312500 0.562500
s 0
usemtl inkbox_entity_atlas
f 1/1/1 2/1/1 3/1/1 4/1/1
f 5/1/2 6/1/2 7/1/2 8/1/2
f 1/1/3 5/1/3 8/1/3 2/1/3
f 4/1/4 3/1/4 7/1/4 6/1/4
f 1/1/5 4/1/5 6/1/5 5/1/5
f 2/2/6 8/2/6 7/2/6 3/2/6
f 9/2/1 10/2/1 11/2/1 12/2/1
f 13/2/2 14/2/2 15/2/2 16/2/2
f 9/2/3 13/2/3 16/2/3 10/2/3
f 12/2/4 11/2/4 15/2/4 14/2/4
f 9/2/5 12/2/5 14/2/5 13/2/5
f 10/1/6 16/1/6 15/1/6 11/1/6
f 17/3/1 18/3/1 19/3/1 20/3/1
f 21/3/2 22/3/2 23/3/2 24/3/2
f 17/4/3 21/4/3 24/4/3 18/4/3
f 20/4/4 19/4/4 23/4/4 22/4/4
f 17/4/5 20/4/5 22/4/5 21/4/5
f 18/3/6 24/3/6 23/3/6 19/3/6
f 25/3/1 26/3/1 27/3/1 28/3/1
f 29/3/2 30/3/2 31/3/2 32/3/2
f 25/3/3 29/3/3 32/3/3 26/3/3
f 28/3/4 27/3/4 31/3/4 30/3/4
f 25/3/5 28/3/5 30/3/5 29/3/5
f 26/5/6 32/5/6 31/5/6 27/5/6
f 33/6/1 34/6/1 35/6/1 36/6/1
f 37/6/2 38/6/2 39/6/2 40/6/2
f 33/6/3 37/6/3 40/6/3 34/6/3
f 36/6/4 35/6/4 39/6/4 38/6/4
f 33/6/5 36/6/5 38/6/5 37/6/5
f 34/6/6 40/6/6 39/6/6 35/6/6
