# Blender 5.2.0 LTS
# www.blender.org
mtllib bld_house.mtl
o bld_house
v -0.420000 0.000000 -0.380000
v -0.420000 0.080000 -0.380000
v 0.420000 0.080000 -0.380000
v 0.420000 0.000000 -0.380000
v -0.420000 0.000000 0.380000
v 0.420000 0.000000 0.380000
v 0.420000 0.080000 0.380000
v -0.420000 0.080000 0.380000
v -0.360000 0.080000 -0.320000
v -0.360000 0.560000 -0.320000
v 0.360000 0.560000 -0.320000
v 0.360000 0.080000 -0.320000
v -0.360000 0.080000 0.320000
v 0.360000 0.080000 0.320000
v 0.360000 0.560000 0.320000
v -0.360000 0.560000 0.320000
v -0.100000 0.080000 -0.345000
v -0.100000 0.380000 -0.345000
v 0.100000 0.380000 -0.345000
v 0.100000 0.080000 -0.345000
v -0.100000 0.080000 -0.315000
v 0.100000 0.080000 -0.315000
v 0.100000 0.380000 -0.315000
v -0.100000 0.380000 -0.315000
v 0.180000 0.200000 -0.345000
v 0.180000 0.340000 -0.345000
v 0.300000 0.340000 -0.345000
v 0.300000 0.200000 -0.345000
v 0.180000 0.200000 -0.325000
v 0.300000 0.200000 -0.325000
v 0.300000 0.340000 -0.325000
v 0.180000 0.340000 -0.325000
v -0.460000 0.560000 -0.420000
v -0.460000 0.860000 0.000000
v 0.460000 0.860000 0.000000
v 0.460000 0.560000 -0.420000
v -0.460000 0.560000 0.420000
v 0.460000 0.560000 0.420000
v -0.460000 0.860000 -0.012000
v 0.460000 0.860000 -0.012000
v 0.460000 0.860000 0.012000
v -0.460000 0.860000 0.012000
v -0.420000 0.560000 -0.380000
v -0.360000 0.560000 -0.380000
v -0.360000 0.080000 -0.380000
v -0.420000 0.080000 -0.320000
v -0.420000 0.560000 -0.320000
v 0.360000 0.080000 -0.380000
v 0.360000 0.560000 -0.380000
v 0.420000 0.560000 -0.380000
v 0.420000 0.080000 -0.320000
v 0.420000 0.560000 -0.320000
vn -0.0000 -0.0000 -1.0000
vn -0.0000 -0.0000 1.0000
vn -1.0000 -0.0000 -0.0000
vn 1.0000 -0.0000 -0.0000
vn -0.0000 -1.0000 -0.0000
vn -0.0000 1.0000 -0.0000
vn -0.0000 0.8137 -0.5812
vn -0.0000 0.8137 0.5812
vt 0.937500 0.937500
vt 0.062500 0.812500
vt 0.062500 0.937500
vt 0.187500 0.937500
vt 0.562500 0.937500
vt 0.312500 0.812500
vt 0.687500 0.937500
vt 0.312500 0.937500
vt 0.187500 0.812500
s 0
usemtl inkbox_entity_atlas
f 1/1/1 2/1/1 3/1/1 4/1/1
f 5/1/2 6/1/2 7/1/2 8/1/2
f 1/1/3 5/1/3 8/1/3 2/1/3
f 4/1/4 3/1/4 7/1/4 6/1/4
f 1/1/5 4/1/5 6/1/5 5/1/5
f 2/2/6 8/2/6 7/2/6 3/2/6
f 9/3/1 10/3/1 11/3/1 12/3/1
f 13/3/2 14/3/2 15/3/2 16/3/2
f 9/4/3 13/4/3 16/4/3 10/4/3
f 12/4/4 11/4/4 15/4/4 14/4/4
f 9/3/5 12/3/5 14/3/5 13/3/5
f 10/4/6 16/4/6 15/4/6 11/4/6
f 17/5/1 18/5/1 19/5/1 20/5/1
f 21/5/2 22/5/2 23/5/2 24/5/2
f 17/5/3 21/5/3 24/5/3 18/5/3
f 20/5/4 19/5/4 23/5/4 22/5/4
f 17/5/5 20/5/5 22/5/5 21/5/5
f 18/5/6 24/5/6 23/5/6 19/5/6
f 25/6/1 26/6/1 27/6/1 28/6/1
f 29/6/2 30/6/2 31/6/2 32/6/2
f 25/6/3 29/6/3 32/6/3 26/6/3
f 28/6/4 27/6/4 31/6/4 30/6/4
f 25/6/5 28/6/5 30/6/5 29/6/5
f 26/6/6 32/6/6 31/6/6 27/6/6
f 33/7/7 34/7/7 35/7/7 36/7/7
f 37/7/8 38/7/8 35/7/8 34/7/8
f 33/8/3 37/8/3 34/8/3
f 36/8/4 35/8/4 38/8/4
f 39/5/5 40/5/5 41/5/5 42/5/5
f 2/9/1 43/9/1 44/9/1 45/9/1
f 46/9/2 9/9/2 10/9/2 47/9/2
f 2/9/3 46/9/3 47/9/3 43/9/3
f 45/9/4 44/9/4 10/9/4 9/9/4
f 2/9/5 45/9/5 9/9/5 46/9/5
f 43/6/6 47/6/6 10/6/6 44/6/6
f 48/9/1 49/9/1 50/9/1 3/9/1
f 12/9/2 51/9/2 52/9/2 11/9/2
f 48/9/3 12/9/3 11/9/3 49/9/3
f 3/9/4 50/9/4 52/9/4 51/9/4
f 48/9/5 3/9/5 51/9/5 12/9/5
f 49/6/6 11/6/6 52/6/6 50/6/6
