# Blender 5.2.0 LTS
# www.blender.org
mtllib bld_beastpen.mtl
o bld_beastpen
v -0.520000 0.000000 -0.520000
v -0.520000 0.060000 -0.520000
v 0.520000 0.060000 -0.520000
v 0.520000 0.000000 -0.520000
v -0.520000 0.000000 0.520000
v 0.520000 0.000000 0.520000
v 0.520000 0.060000 0.520000
v -0.520000 0.060000 0.520000
v -0.520000 0.060000 0.440000
v -0.520000 0.400000 0.440000
v 0.520000 0.400000 0.440000
v 0.520000 0.060000 0.440000
v 0.520000 0.400000 0.520000
v -0.520000 0.400000 0.520000
v -0.520000 0.060000 -0.440000
v -0.520000 0.400000 -0.440000
v -0.440000 0.400000 -0.440000
v -0.440000 0.060000 -0.440000
v -0.440000 0.060000 0.520000
v -0.440000 0.400000 0.520000
v 0.440000 0.060000 -0.440000
v 0.440000 0.400000 -0.440000
v 0.520000 0.400000 -0.440000
v 0.520000 0.060000 -0.440000
v 0.440000 0.060000 0.520000
v 0.440000 0.400000 0.520000
v -0.520000 0.400000 -0.520000
v -0.180000 0.400000 -0.520000
v -0.180000 0.060000 -0.520000
v -0.180000 0.060000 -0.440000
v -0.180000 0.400000 -0.440000
v 0.180000 0.060000 -0.520000
v 0.180000 0.400000 -0.520000
v 0.520000 0.400000 -0.520000
v 0.180000 0.060000 -0.440000
v 0.180000 0.400000 -0.440000
v -0.560000 0.400000 0.040000
v -0.560000 0.700000 0.310000
v 0.560000 0.700000 0.310000
v 0.560000 0.400000 0.040000
v -0.560000 0.400000 0.580000
v 0.560000 0.400000 0.580000
v -0.560000 0.700000 0.298000
v 0.560000 0.700000 0.298000
v 0.560000 0.700000 0.322000
v -0.560000 0.700000 0.322000
v -0.170000 0.060000 0.140000
v -0.170000 0.220000 0.140000
v 0.170000 0.220000 0.140000
v 0.170000 0.060000 0.140000
v -0.170000 0.060000 0.300000
v 0.170000 0.060000 0.300000
v 0.170000 0.220000 0.300000
v -0.170000 0.220000 0.300000
v -0.220000 0.060000 -0.260000
v -0.220000 0.240000 -0.260000
v 0.100000 0.240000 -0.260000
v 0.100000 0.060000 -0.260000
v -0.220000 0.060000 -0.060000
v 0.100000 0.060000 -0.060000
v 0.100000 0.240000 -0.060000
v -0.220000 0.240000 -0.060000
v -0.310000 0.100000 -0.240000
v -0.310000 0.280000 -0.240000
v -0.200000 0.280000 -0.240000
v -0.200000 0.100000 -0.240000
v -0.310000 0.100000 -0.100000
v -0.200000 0.100000 -0.100000
v -0.200000 0.280000 -0.100000
v -0.310000 0.280000 -0.100000
vn -0.0000 -0.0000 -1.0000
vn -0.0000 -0.0000 1.0000
vn -1.0000 -0.0000 -0.0000
vn 1.0000 -0.0000 -0.0000
vn -0.0000 -1.0000 -0.0000
vn -0.0000 1.0000 -0.0000
vn -0.0000 0.6690 -0.7433
vn -0.0000 0.6690 0.7433
vt 0.937500 0.937500
vt 0.062500 0.812500
vt 0.312500 0.812500
vt 0.187500 0.812500
vt 0.687500 0.937500
vt 0.312500 0.937500
vt 0.562500 0.937500
vt 0.312500 0.562500
s 0
usemtl inkbox_entity_atlas
f 1/1/1 2/1/1 3/1/1 4/1/1
f 5/1/2 6/1/2 7/1/2 8/1/2
f 1/1/3 5/1/3 8/1/3 2/1/3
f 4/1/4 3/1/4 7/1/4 6/1/4
f 1/1/5 4/1/5 6/1/5 5/1/5
f 2/2/6 8/2/6 7/2/6 3/2/6
f 9/3/1 10/3/1 11/3/1 12/3/1
f 8/3/2 7/3/2 13/3/2 14/3/2
f 9/4/3 8/4/3 14/4/3 10/4/3
f 12/4/4 11/4/4 13/4/4 7/4/4
f 9/4/5 12/4/5 7/4/5 8/4/5
f 10/3/6 14/3/6 13/3/6 11/3/6
f 15/4/1 16/4/1 17/4/1 18/4/1
f 8/4/2 19/4/2 20/4/2 14/4/2
f 15/4/3 8/4/3 14/4/3 16/4/3
f 18/4/4 17/4/4 20/4/4 19/4/4
f 15/4/5 18/4/5 19/4/5 8/4/5
f 16/3/6 14/3/6 20/3/6 17/3/6
f 21/4/1 22/4/1 23/4/1 24/4/1
f 25/4/2 7/4/2 13/4/2 26/4/2
f 21/4/3 25/4/3 26/4/3 22/4/3
f 24/4/4 23/4/4 13/4/4 7/4/4
f 21/4/5 24/4/5 7/4/5 25/4/5
f 22/3/6 26/3/6 13/3/6 23/3/6
f 2/4/1 27/4/1 28/4/1 29/4/1
f 15/4/2 30/4/2 31/4/2 16/4/2
f 2/4/3 15/4/3 16/4/3 27/4/3
f 29/4/4 28/4/4 31/4/4 30/4/4
f 2/4/5 29/4/5 30/4/5 15/4/5
f 27/3/6 16/3/6 31/3/6 28/3/6
f 32/4/1 33/4/1 34/4/1 3/4/1
f 35/4/2 24/4/2 23/4/2 36/4/2
f 32/4/3 35/4/3 36/4/3 33/4/3
f 3/4/4 34/4/4 23/4/4 24/4/4
f 32/4/5 3/4/5 24/4/5 35/4/5
f 33/3/6 36/3/6 23/3/6 34/3/6
f 37/5/7 38/5/7 39/5/7 40/5/7
f 41/5/8 42/5/8 39/5/8 38/5/8
f 37/6/3 41/6/3 38/6/3
f 40/6/4 39/6/4 42/6/4
f 43/7/5 44/7/5 45/7/5 46/7/5
f 47/3/1 48/3/1 49/3/1 50/3/1
f 51/3/2 52/3/2 53/3/2 54/3/2
f 47/3/3 51/3/3 54/3/3 48/3/3
f 50/3/4 49/3/4 53/3/4 52/3/4
f 47/3/5 50/3/5 52/3/5 51/3/5
f 48/4/6 54/4/6 53/4/6 49/4/6
f 55/8/1 56/8/1 57/8/1 58/8/1
f 59/8/2 60/8/2 61/8/2 62/8/2
f 55/8/3 59/8/3 62/8/3 56/8/3
f 58/8/4 57/8/4 61/8/4 60/8/4
f 55/8/5 58/8/5 60/8/5 59/8/5
f 56/8/6 62/8/6 61/8/6 57/8/6
f 63/8/1 64/8/1 65/8/1 66/8/1
f 67/8/2 68/8/2 69/8/2 70/8/2
f 63/8/3 67/8/3 70/8/3 64/8/3
f 66/8/4 65/8/4 69/8/4 68/8/4
f 63/8/5 66/8/5 68/8/5 67/8/5
f 64/8/6 70/8/6 69/8/6 65/8/6
