# Blender 5.2.0 LTS
# www.blender.org
mtllib bld_forge.mtl
o bld_forge
v -0.480000 0.000000 -0.440000
v -0.480000 0.080000 -0.440000
v 0.480000 0.080000 -0.440000
v 0.480000 0.000000 -0.440000
v -0.480000 0.000000 0.400000
v 0.480000 0.000000 0.400000
v 0.480000 0.080000 0.400000
v -0.480000 0.080000 0.400000
v -0.420000 0.080000 -0.380000
v -0.420000 0.520000 -0.380000
v 0.420000 0.520000 -0.380000
v 0.420000 0.080000 -0.380000
v -0.420000 0.080000 0.340000
v 0.420000 0.080000 0.340000
v 0.420000 0.520000 0.340000
v -0.420000 0.520000 0.340000
v -0.480000 0.520000 -0.440000
v -0.480000 0.800000 -0.020000
v 0.480000 0.800000 -0.020000
v 0.480000 0.520000 -0.440000
v -0.480000 0.520000 0.400000
v 0.480000 0.520000 0.400000
v -0.480000 0.800000 -0.032000
v 0.480000 0.800000 -0.032000
v 0.480000 0.800000 -0.008000
v -0.480000 0.800000 -0.008000
v 0.140000 0.520000 -0.100000
v 0.140000 1.300000 -0.100000
v 0.340000 1.300000 -0.100000
v 0.340000 0.520000 -0.100000
v 0.140000 0.520000 0.100000
v 0.340000 0.520000 0.100000
v 0.340000 1.300000 0.100000
v 0.140000 1.300000 0.100000
v 0.120000 1.300000 -0.120000
v 0.120000 1.360000 -0.120000
v 0.360000 1.360000 -0.120000
v 0.360000 1.300000 -0.120000
v 0.120000 1.300000 0.120000
v 0.360000 1.300000 0.120000
v 0.360000 1.360000 0.120000
v 0.120000 1.360000 0.120000
v 0.170000 1.360000 -0.070000
v 0.170000 1.560000 -0.070000
v 0.310000 1.560000 -0.070000
v 0.310000 1.360000 -0.070000
v 0.170000 1.360000 0.070000
v 0.310000 1.360000 0.070000
v 0.310000 1.560000 0.070000
v 0.170000 1.560000 0.070000
v -0.320000 0.080000 -0.420000
v -0.320000 0.340000 -0.420000
v -0.080000 0.340000 -0.420000
v -0.080000 0.080000 -0.420000
v -0.320000 0.080000 -0.360000
v -0.080000 0.080000 -0.360000
v -0.080000 0.340000 -0.360000
v -0.320000 0.340000 -0.360000
v -0.280000 0.120000 -0.440000
v -0.280000 0.280000 -0.440000
v -0.120000 0.280000 -0.440000
v -0.120000 0.120000 -0.440000
v -0.280000 0.120000 -0.420000
v -0.120000 0.120000 -0.420000
v -0.120000 0.280000 -0.420000
v -0.280000 0.280000 -0.420000
v 0.040000 0.080000 -0.405000
v 0.040000 0.400000 -0.405000
v 0.220000 0.400000 -0.405000
v 0.220000 0.080000 -0.405000
v 0.040000 0.080000 -0.375000
v 0.220000 0.080000 -0.375000
v 0.220000 0.400000 -0.375000
v 0.040000 0.400000 -0.375000
v -0.460000 0.000000 -0.640000
v -0.460000 0.160000 -0.640000
v -0.260000 0.160000 -0.640000
v -0.260000 0.000000 -0.640000
v -0.460000 0.000000 -0.440000
v -0.260000 0.000000 -0.440000
v -0.260000 0.160000 -0.440000
v -0.460000 0.160000 -0.440000
v -0.380000 0.160000 -0.600000
v -0.380000 0.280000 -0.600000
v -0.220000 0.280000 -0.600000
v -0.220000 0.160000 -0.600000
v -0.380000 0.160000 -0.480000
v -0.220000 0.160000 -0.480000
v -0.220000 0.280000 -0.480000
v -0.380000 0.280000 -0.480000
vn -0.0000 -0.0000 -1.0000
vn -0.0000 -0.0000 1.0000
vn -1.0000 -0.0000 -0.0000
vn 1.0000 -0.0000 -0.0000
vn -0.0000 -1.0000 -0.0000
vn -0.0000 1.0000 -0.0000
vn -0.0000 0.8321 -0.5547
vn -0.0000 0.8321 0.5547
vt 0.937500 0.937500
vt 0.062500 0.812500
vt 0.312500 0.937500
vt 0.187500 0.937500
vt 0.687500 0.937500
vt 0.562500 0.937500
vt 0.437500 0.937500
vt 0.562500 0.812500
s 0
usemtl inkbox_entity_atlas
f 1/1/1 2/1/1 3/1/1 4/1/1
f 5/1/2 6/1/2 7/1/2 8/1/2
f 1/1/3 5/1/3 8/1/3 2/1/3
f 4/1/4 3/1/4 7/1/4 6/1/4
f 1/1/5 4/1/5 6/1/5 5/1/5
f 2/2/6 8/2/6 7/2/6 3/2/6
f 9/3/1 10/3/1 11/3/1 12/3/1
f 13/3/2 14/3/2 15/3/2 16/3/2
f 9/1/3 13/1/3 16/1/3 10/1/3
f 12/1/4 11/1/4 15/1/4 14/1/4
f 9/3/5 12/3/5 14/3/5 13/3/5
f 10/4/6 16/4/6 15/4/6 11/4/6
f 17/5/7 18/5/7 19/5/7 20/5/7
f 21/5/8 22/5/8 19/5/8 18/5/8
f 17/2/3 21/2/3 18/2/3
f 20/2/4 19/2/4 22/2/4
f 23/6/5 24/6/5 25/6/5 26/6/5
f 27/2/1 28/2/1 29/2/1 30/2/1
f 31/2/2 32/2/2 33/2/2 34/2/2
f 27/2/3 31/2/3 34/2/3 28/2/3
f 30/2/4 29/2/4 33/2/4 32/2/4
f 27/2/5 30/2/5 32/2/5 31/2/5
f 28/6/6 34/6/6 33/6/6 29/6/6
f 35/6/1 36/6/1 37/6/1 38/6/1
f 39/6/2 40/6/2 41/6/2 42/6/2
f 35/6/3 39/6/3 42/6/3 36/6/3
f 38/6/4 37/6/4 41/6/4 40/6/4
f 35/6/5 38/6/5 40/6/5 39/6/5
f 36/6/6 42/6/6 41/6/6 37/6/6
f 43/7/1 44/7/1 45/7/1 46/7/1
f 47/7/2 48/7/2 49/7/2 50/7/2
f 43/7/3 47/7/3 50/7/3 44/7/3
f 46/7/4 45/7/4 49/7/4 48/7/4
f 43/7/5 46/7/5 48/7/5 47/7/5
f 44/7/6 50/7/6 49/7/6 45/7/6
f 51/6/1 52/6/1 53/6/1 54/6/1
f 55/6/2 56/6/2 57/6/2 58/6/2
f 51/6/3 55/6/3 58/6/3 52/6/3
f 54/6/4 53/6/4 57/6/4 56/6/4
f 51/6/5 54/6/5 56/6/5 55/6/5
f 52/6/6 58/6/6 57/6/6 53/6/6
f 59/8/1 60/8/1 61/8/1 62/8/1
f 63/8/2 64/8/2 65/8/2 66/8/2
f 59/8/3 63/8/3 66/8/3 60/8/3
f 62/8/4 61/8/4 65/8/4 64/8/4
f 59/8/5 62/8/5 64/8/5 63/8/5
f 60/8/6 66/8/6 65/8/6 61/8/6
f 67/6/1 68/6/1 69/6/1 70/6/1
f 71/6/2 72/6/2 73/6/2 74/6/2
f 67/6/3 71/6/3 74/6/3 68/6/3
f 70/6/4 69/6/4 73/6/4 72/6/4
f 67/6/5 70/6/5 72/6/5 71/6/5
f 68/6/6 74/6/6 73/6/6 69/6/6
f 75/1/1 76/1/1 77/1/1 78/1/1
f 79/1/2 80/1/2 81/1/2 82/1/2
f 75/1/3 79/1/3 82/1/3 76/1/3
f 78/1/4 77/1/4 81/1/4 80/1/4
f 75/1/5 78/1/5 80/1/5 79/1/5
f 76/2/6 82/2/6 81/2/6 77/2/6
f 83/2/1 84/2/1 85/2/1 86/2/1
f 87/2/2 88/2/2 89/2/2 90/2/2
f 83/2/3 87/2/3 90/2/3 84/2/3
f 86/2/4 85/2/4 89/2/4 88/2/4
f 83/2/5 86/2/5 88/2/5 87/2/5
f 84/1/6 90/1/6 89/1/6 85/1/6
