# Blender 5.2.0 LTS
# www.blender.org
mtllib bld_alchemy.mtl
o bld_alchemy
v -0.420000 0.000000 -0.380000
v -0.420000 0.080000 -0.380000
v 0.420000 0.080000 -0.380000
v 0.420000 0.000000 -0.380000
v -0.420000 0.000000 0.380000
v 0.420000 0.000000 0.380000
v 0.420000 0.080000 0.380000
v -0.420000 0.080000 0.380000
v -0.360000 0.080000 -0.320000
v -0.360000 0.500000 -0.320000
v 0.360000 0.500000 -0.320000
v 0.360000 0.080000 -0.320000
v -0.360000 0.080000 0.300000
v 0.360000 0.080000 0.300000
v 0.360000 0.500000 0.300000
v -0.360000 0.500000 0.300000
v -0.420000 0.500000 -0.380000
v -0.420000 0.760000 -0.010000
v 0.420000 0.760000 -0.010000
v 0.420000 0.500000 -0.380000
v -0.420000 0.500000 0.360000
v 0.420000 0.500000 0.360000
v -0.420000 0.760000 -0.022000
v 0.420000 0.760000 -0.022000
v 0.420000 0.760000 0.002000
v -0.420000 0.760000 0.002000
v 0.140000 0.760000 -0.050000
v 0.140000 1.020000 -0.050000
v 0.280000 1.020000 -0.050000
v 0.280000 0.760000 -0.050000
v 0.140000 0.760000 0.090000
v 0.280000 0.760000 0.090000
v 0.280000 1.020000 0.090000
v 0.140000 1.020000 0.090000
v 0.120000 1.020000 -0.070000
v 0.120000 1.080000 -0.070000
v 0.300000 1.080000 -0.070000
v 0.300000 1.020000 -0.070000
v 0.120000 1.020000 0.110000
v 0.300000 1.020000 0.110000
v 0.300000 1.080000 0.110000
v 0.120000 1.080000 0.110000
v 0.160000 1.080000 -0.020000
v 0.160000 1.260000 -0.020000
v 0.260000 1.260000 -0.020000
v 0.260000 1.080000 -0.020000
v 0.160000 1.080000 0.060000
v 0.260000 1.080000 0.060000
v 0.260000 1.260000 0.060000
v 0.160000 1.260000 0.060000
v -0.100000 0.080000 -0.345000
v -0.100000 0.360000 -0.345000
v 0.100000 0.360000 -0.345000
v 0.100000 0.080000 -0.345000
v -0.100000 0.080000 -0.315000
v 0.100000 0.080000 -0.315000
v 0.100000 0.360000 -0.315000
v -0.100000 0.360000 -0.315000
v -0.170000 0.000000 -0.620000
v -0.170000 0.050000 -0.620000
v 0.170000 0.050000 -0.620000
v 0.170000 0.000000 -0.620000
v -0.170000 0.000000 -0.340000
v 0.170000 0.000000 -0.340000
v 0.170000 0.050000 -0.340000
v -0.170000 0.050000 -0.340000
v -0.120000 0.050000 -0.560000
v -0.120000 0.300000 -0.560000
v 0.120000 0.300000 -0.560000
v 0.120000 0.050000 -0.560000
v -0.120000 0.050000 -0.400000
v 0.120000 0.050000 -0.400000
v 0.120000 0.300000 -0.400000
v -0.120000 0.300000 -0.400000
v -0.060000 0.130000 -0.585000
v -0.060000 0.230000 -0.585000
v 0.060000 0.230000 -0.585000
v 0.060000 0.130000 -0.585000
v -0.060000 0.130000 -0.555000
v 0.060000 0.130000 -0.555000
v 0.060000 0.230000 -0.555000
v -0.060000 0.230000 -0.555000
v -0.130000 0.300000 -0.580000
v 0.000000 0.420000 -0.480000
v 0.130000 0.300000 -0.580000
v 0.130000 0.300000 -0.380000
v -0.130000 0.300000 -0.380000
v -0.025000 0.420000 -0.505000
v -0.025000 0.470000 -0.505000
v 0.025000 0.470000 -0.505000
v 0.025000 0.420000 -0.505000
v -0.025000 0.420000 -0.455000
v 0.025000 0.420000 -0.455000
v 0.025000 0.470000 -0.455000
v -0.025000 0.470000 -0.455000
vn -0.0000 -0.0000 -1.0000
vn -0.0000 -0.0000 1.0000
vn -1.0000 -0.0000 -0.0000
vn 1.0000 -0.0000 -0.0000
vn -0.0000 -1.0000 -0.0000
vn -0.0000 1.0000 -0.0000
vn -0.0000 0.8182 -0.5749
vn -0.0000 0.8182 0.5749
vn -0.0000 0.6402 -0.7682
vn 0.6783 0.7348 -0.0000
vn -0.0000 0.6402 0.7682
vn -0.6783 0.7348 -0.0000
vt 0.937500 0.937500
vt 0.062500 0.812500
vt 0.312500 0.937500
vt 0.187500 0.937500
vt 0.687500 0.937500
vt 0.562500 0.937500
vt 0.437500 0.937500
vt 0.562500 0.812500
vt 0.812500 0.812500
s 0
usemtl inkbox_entity_atlas
f 1/1/1 2/1/1 3/1/1 4/1/1
f 5/1/2 6/1/2 7/1/2 8/1/2
f 1/1/3 5/1/3 8/1/3 2/1/3
f 4/1/4 3/1/4 7/1/4 6/1/4
f 1/1/5 4/1/5 6/1/5 5/1/5
f 2/2/6 8/2/6 7/2/6 3/2/6
f 9/3/1 10/3/1 11/3/1 12/3/1
f 13/3/2 14/3/2 15/3/2 16/3/2
f 9/3/3 13/3/3 16/3/3 10/3/3
f 12/3/4 11/3/4 15/3/4 14/3/4
f 9/3/5 12/3/5 14/3/5 13/3/5
f 10/4/6 16/4/6 15/4/6 11/4/6
f 17/5/7 18/5/7 19/5/7 20/5/7
f 21/5/8 22/5/8 19/5/8 18/5/8
f 17/3/3 21/3/3 18/3/3
f 20/3/4 19/3/4 22/3/4
f 23/6/5 24/6/5 25/6/5 26/6/5
f 27/2/1 28/2/1 29/2/1 30/2/1
f 31/2/2 32/2/2 33/2/2 34/2/2
f 27/2/3 31/2/3 34/2/3 28/2/3
f 30/2/4 29/2/4 33/2/4 32/2/4
f 27/2/5 30/2/5 32/2/5 31/2/5
f 28/6/6 34/6/6 33/6/6 29/6/6
f 35/6/1 36/6/1 37/6/1 38/6/1
f 39/6/2 40/6/2 41/6/2 42/6/2
f 35/6/3 39/6/3 42/6/3 36/6/3
f 38/6/4 37/6/4 41/6/4 40/6/4
f 35/6/5 38/6/5 40/6/5 39/6/5
f 36/6/6 42/6/6 41/6/6 37/6/6
f 43/7/1 44/7/1 45/7/1 46/7/1
f 47/7/2 48/7/2 49/7/2 50/7/2
f 43/7/3 47/7/3 50/7/3 44/7/3
f 46/7/4 45/7/4 49/7/4 48/7/4
f 43/7/5 46/7/5 48/7/5 47/7/5
f 44/7/6 50/7/6 49/7/6 45/7/6
f 51/6/1 52/6/1 53/6/1 54/6/1
f 55/6/2 56/6/2 57/6/2 58/6/2
f 51/6/3 55/6/3 58/6/3 52/6/3
f 54/6/4 53/6/4 57/6/4 56/6/4
f 51/6/5 54/6/5 56/6/5 55/6/5
f 52/6/6 58/6/6 57/6/6 53/6/6
f 59/2/1 60/2/1 61/2/1 62/2/1
f 63/2/2 64/2/2 65/2/2 66/2/2
f 59/2/3 63/2/3 66/2/3 60/2/3
f 62/2/4 61/2/4 65/2/4 64/2/4
f 59/2/5 62/2/5 64/2/5 63/2/5
f 60/1/6 66/1/6 65/1/6 61/1/6
f 67/2/1 68/2/1 69/2/1 70/2/1
f 71/2/2 72/2/2 73/2/2 74/2/2
f 67/1/3 71/1/3 74/1/3 68/1/3
f 70/1/4 69/1/4 73/1/4 72/1/4
f 67/1/5 70/1/5 72/1/5 71/1/5
f 68/2/6 74/2/6 73/2/6 69/2/6
f 75/8/1 76/8/1 77/8/1 78/8/1
f 79/8/2 80/8/2 81/8/2 82/8/2
f 75/8/3 79/8/3 82/8/3 76/8/3
f 78/8/4 77/8/4 81/8/4 80/8/4
f 75/8/5 78/8/5 80/8/5 79/8/5
f 76/8/6 82/8/6 81/8/6 77/8/6
f 83/5/9 84/5/9 85/5/9
f 85/5/10 84/5/10 86/5/10
f 86/5/11 84/5/11 87/5/11
f 87/5/12 84/5/12 83/5/12
f 88/9/1 89/9/1 90/9/1 91/9/1
f 92/9/2 93/9/2 94/9/2 95/9/2
f 88/9/3 92/9/3 95/9/3 89/9/3
f 91/9/4 90/9/4 94/9/4 93/9/4
f 88/9/5 91/9/5 93/9/5 92/9/5
f 89/9/6 95/9/6 94/9/6 90/9/6
