# Blender 5.2.0 LTS
# www.blender.org
mtllib bld_dorm.mtl
o bld_dorm
v -0.600000 0.000000 -0.260000
v -0.600000 0.050000 -0.260000
v 0.600000 0.050000 -0.260000
v 0.600000 0.000000 -0.260000
v -0.600000 0.000000 0.260000
v 0.600000 0.000000 0.260000
v 0.600000 0.050000 0.260000
v -0.600000 0.050000 0.260000
v -0.560000 0.050000 -0.220000
v -0.560000 0.420000 -0.220000
v 0.560000 0.420000 -0.220000
v 0.560000 0.050000 -0.220000
v -0.560000 0.050000 0.220000
v 0.560000 0.050000 0.220000
v 0.560000 0.420000 0.220000
v -0.560000 0.420000 0.220000
v -0.600000 0.420000 -0.280000
v -0.600000 0.680000 0.000000
v 0.600000 0.680000 0.000000
v 0.600000 0.420000 -0.280000
v -0.600000 0.420000 0.280000
v 0.600000 0.420000 0.280000
v -0.600000 0.680000 -0.012000
v 0.600000 0.680000 -0.012000
v 0.600000 0.680000 0.012000
v -0.600000 0.680000 0.012000
v -0.415000 0.050000 -0.235000
v -0.415000 0.300000 -0.235000
v -0.265000 0.300000 -0.235000
v -0.265000 0.050000 -0.235000
v -0.415000 0.050000 -0.215000
v -0.265000 0.050000 -0.215000
v -0.265000 0.300000 -0.215000
v -0.415000 0.300000 -0.215000
v -0.075000 0.050000 -0.235000
v -0.075000 0.300000 -0.235000
v 0.075000 0.300000 -0.235000
v 0.075000 0.050000 -0.235000
v -0.075000 0.050000 -0.215000
v 0.075000 0.050000 -0.215000
v 0.075000 0.300000 -0.215000
v -0.075000 0.300000 -0.215000
v 0.265000 0.050000 -0.235000
v 0.265000 0.300000 -0.235000
v 0.415000 0.300000 -0.235000
v 0.415000 0.050000 -0.235000
v 0.265000 0.050000 -0.215000
v 0.415000 0.050000 -0.215000
v 0.415000 0.300000 -0.215000
v 0.265000 0.300000 -0.215000
v -0.520000 0.050000 -0.245000
v -0.520000 0.420000 -0.245000
v -0.480000 0.420000 -0.245000
v -0.480000 0.050000 -0.245000
v -0.520000 0.050000 -0.215000
v -0.480000 0.050000 -0.215000
v -0.480000 0.420000 -0.215000
v -0.520000 0.420000 -0.215000
v -0.190000 0.050000 -0.245000
v -0.190000 0.420000 -0.245000
v -0.150000 0.420000 -0.245000
v -0.150000 0.050000 -0.245000
v -0.190000 0.050000 -0.215000
v -0.150000 0.050000 -0.215000
v -0.150000 0.420000 -0.215000
v -0.190000 0.420000 -0.215000
v 0.150000 0.050000 -0.245000
v 0.150000 0.420000 -0.245000
v 0.190000 0.420000 -0.245000
v 0.190000 0.050000 -0.245000
v 0.150000 0.050000 -0.215000
v 0.190000 0.050000 -0.215000
v 0.190000 0.420000 -0.215000
v 0.150000 0.420000 -0.215000
v 0.480000 0.050000 -0.245000
v 0.480000 0.420000 -0.245000
v 0.520000 0.420000 -0.245000
v 0.520000 0.050000 -0.245000
v 0.480000 0.050000 -0.215000
v 0.520000 0.050000 -0.215000
v 0.520000 0.420000 -0.215000
v 0.480000 0.420000 -0.215000
vn -0.0000 -0.0000 -1.0000
vn -0.0000 -0.0000 1.0000
vn -1.0000 -0.0000 -0.0000
vn 1.0000 -0.0000 -0.0000
vn -0.0000 -1.0000 -0.0000
vn -0.0000 1.0000 -0.0000
vn -0.0000 0.7328 -0.6805
vn -0.0000 0.7328 0.6805
vt 0.937500 0.937500
vt 0.062500 0.812500
vt 0.062500 0.937500
vt 0.312500 0.937500
vt 0.187500 0.937500
vt 0.687500 0.937500
vt 0.562500 0.937500
vt 0.187500 0.812500
vt 0.312500 0.812500
s 0
usemtl inkbox_entity_atlas
f 1/1/1 2/1/1 3/1/1 4/1/1
f 5/1/2 6/1/2 7/1/2 8/1/2
f 1/1/3 5/1/3 8/1/3 2/1/3
f 4/1/4 3/1/4 7/1/4 6/1/4
f 1/1/5 4/1/5 6/1/5 5/1/5
f 2/2/6 8/2/6 7/2/6 3/2/6
f 9/3/1 10/3/1 11/3/1 12/3/1
f 13/3/2 14/3/2 15/3/2 16/3/2
f 9/4/3 13/4/3 16/4/3 10/4/3
f 12/4/4 11/4/4 15/4/4 14/4/4
f 9/3/5 12/3/5 14/3/5 13/3/5
f 10/5/6 16/5/6 15/5/6 11/5/6
f 17/6/7 18/6/7 19/6/7 20/6/7
f 21/6/8 22/6/8 19/6/8 18/6/8
f 17/4/3 21/4/3 18/4/3
f 20/4/4 19/4/4 22/4/4
f 23/7/5 24/7/5 25/7/5 26/7/5
f 27/7/1 28/7/1 29/7/1 30/7/1
f 31/7/2 32/7/2 33/7/2 34/7/2
f 27/7/3 31/7/3 34/7/3 28/7/3
f 30/7/4 29/7/4 33/7/4 32/7/4
f 27/7/5 30/7/5 32/7/5 31/7/5
f 28/7/6 34/7/6 33/7/6 29/7/6
f 35/7/1 36/7/1 37/7/1 38/7/1
f 39/7/2 40/7/2 41/7/2 42/7/2
f 35/7/3 39/7/3 42/7/3 36/7/3
f 38/7/4 37/7/4 41/7/4 40/7/4
f 35/7/5 38/7/5 40/7/5 39/7/5
f 36/7/6 42/7/6 41/7/6 37/7/6
f 43/7/1 44/7/1 45/7/1 46/7/1
f 47/7/2 48/7/2 49/7/2 50/7/2
f 43/7/3 47/7/3 50/7/3 44/7/3
f 46/7/4 45/7/4 49/7/4 48/7/4
f 43/7/5 46/7/5 48/7/5 47/7/5
f 44/7/6 50/7/6 49/7/6 45/7/6
f 51/8/1 52/8/1 53/8/1 54/8/1
f 55/8/2 56/8/2 57/8/2 58/8/2
f 51/8/3 55/8/3 58/8/3 52/8/3
f 54/8/4 53/8/4 57/8/4 56/8/4
f 51/8/5 54/8/5 56/8/5 55/8/5
f 52/9/6 58/9/6 57/9/6 53/9/6
f 59/8/1 60/8/1 61/8/1 62/8/1
f 63/8/2 64/8/2 65/8/2 66/8/2
f 59/8/3 63/8/3 66/8/3 60/8/3
f 62/8/4 61/8/4 65/8/4 64/8/4
f 59/8/5 62/8/5 64/8/5 63/8/5
f 60/9/6 66/9/6 65/9/6 61/9/6
f 67/8/1 68/8/1 69/8/1 70/8/1
f 71/8/2 72/8/2 73/8/2 74/8/2
f 67/8/3 71/8/3 74/8/3 68/8/3
f 70/8/4 69/8/4 73/8/4 72/8/4
f 67/8/5 70/8/5 72/8/5 71/8/5
f 68/9/6 74/9/6 73/9/6 69/9/6
f 75/8/1 76/8/1 77/8/1 78/8/1
f 79/8/2 80/8/2 81/8/2 82/8/2
f 75/8/3 79/8/3 82/8/3 76/8/3
f 78/8/4 77/8/4 81/8/4 80/8/4
f 75/8/5 78/8/5 80/8/5 79/8/5
f 76/9/6 82/9/6 81/9/6 77/9/6
