# Blender 5.2.0 LTS
# www.blender.org
mtllib bld_manor.mtl
o bld_manor
v -0.600000 0.000000 -0.600000
v -0.600000 0.080000 -0.600000
v 0.600000 0.080000 -0.600000
v 0.600000 0.000000 -0.600000
v -0.600000 0.000000 0.600000
v 0.600000 0.000000 0.600000
v 0.600000 0.080000 0.600000
v -0.600000 0.080000 0.600000
v -0.600000 0.400000 -0.600000
v -0.530000 0.400000 -0.600000
v -0.530000 0.080000 -0.600000
v -0.600000 0.080000 0.460000
v -0.530000 0.080000 0.460000
v -0.530000 0.400000 0.460000
v -0.600000 0.400000 0.460000
v 0.530000 0.080000 -0.600000
v 0.530000 0.400000 -0.600000
v 0.600000 0.400000 -0.600000
v 0.530000 0.080000 0.460000
v 0.600000 0.080000 0.460000
v 0.600000 0.400000 0.460000
v 0.530000 0.400000 0.460000
v -0.200000 0.400000 -0.600000
v -0.200000 0.080000 -0.600000
v -0.600000 0.080000 -0.530000
v -0.200000 0.080000 -0.530000
v -0.200000 0.400000 -0.530000
v -0.600000 0.400000 -0.530000
v 0.200000 0.080000 -0.600000
v 0.200000 0.400000 -0.600000
v 0.200000 0.080000 -0.530000
v 0.600000 0.080000 -0.530000
v 0.600000 0.400000 -0.530000
v 0.200000 0.400000 -0.530000
v -0.420000 0.080000 -0.140000
v -0.420000 0.520000 -0.140000
v 0.420000 0.520000 -0.140000
v 0.420000 0.080000 -0.140000
v -0.420000 0.080000 0.460000
v 0.420000 0.080000 0.460000
v 0.420000 0.520000 0.460000
v -0.420000 0.520000 0.460000
v -0.480000 0.520000 -0.200000
v -0.288000 0.880000 0.160000
v 0.288000 0.880000 0.160000
v 0.480000 0.520000 -0.200000
v 0.480000 0.520000 0.520000
v -0.480000 0.520000 0.520000
v -0.288000 0.880000 0.148000
v 0.288000 0.880000 0.148000
v 0.288000 0.880000 0.172000
v -0.288000 0.880000 0.172000
v -0.150000 0.080000 -0.155000
v -0.150000 0.420000 -0.155000
v 0.150000 0.420000 -0.155000
v 0.150000 0.080000 -0.155000
v -0.150000 0.080000 -0.125000
v 0.150000 0.080000 -0.125000
v 0.150000 0.420000 -0.125000
v -0.150000 0.420000 -0.125000
v -0.115000 0.160000 -0.160000
v -0.115000 0.400000 -0.160000
v -0.095000 0.400000 -0.160000
v -0.095000 0.160000 -0.160000
v -0.115000 0.160000 -0.150000
v -0.095000 0.160000 -0.150000
v -0.095000 0.400000 -0.150000
v -0.115000 0.400000 -0.150000
v 0.095000 0.160000 -0.160000
v 0.095000 0.400000 -0.160000
v 0.115000 0.400000 -0.160000
v 0.115000 0.160000 -0.160000
v 0.095000 0.160000 -0.150000
v 0.115000 0.160000 -0.150000
v 0.115000 0.400000 -0.150000
v 0.095000 0.400000 -0.150000
v -0.520000 0.080000 -0.480000
v -0.520000 0.320000 -0.480000
v -0.300000 0.320000 -0.480000
v -0.300000 0.080000 -0.480000
v -0.520000 0.080000 -0.180000
v -0.300000 0.080000 -0.180000
v -0.300000 0.320000 -0.180000
v -0.520000 0.320000 -0.180000
v -0.550000 0.320000 -0.510000
v -0.550000 0.480000 -0.330000
v -0.270000 0.480000 -0.330000
v -0.270000 0.320000 -0.510000
v -0.550000 0.320000 -0.150000
v -0.270000 0.320000 -0.150000
v -0.550000 0.480000 -0.342000
v -0.270000 0.480000 -0.342000
v -0.270000 0.480000 -0.318000
v -0.550000 0.480000 -0.318000
v 0.300000 0.080000 -0.480000
v 0.300000 0.320000 -0.480000
v 0.520000 0.320000 -0.480000
v 0.520000 0.080000 -0.480000
v 0.300000 0.080000 -0.180000
v 0.520000 0.080000 -0.180000
v 0.520000 0.320000 -0.180000
v 0.300000 0.320000 -0.180000
v 0.270000 0.320000 -0.510000
v 0.270000 0.480000 -0.330000
v 0.550000 0.480000 -0.330000
v 0.550000 0.320000 -0.510000
v 0.270000 0.320000 -0.150000
v 0.550000 0.320000 -0.150000
v 0.270000 0.480000 -0.342000
v 0.550000 0.480000 -0.342000
v 0.550000 0.480000 -0.318000
v 0.270000 0.480000 -0.318000
v -0.270000 0.080000 -0.605000
v -0.270000 0.580000 -0.605000
v -0.210000 0.580000 -0.605000
v -0.210000 0.080000 -0.605000
v -0.270000 0.080000 -0.525000
v -0.210000 0.080000 -0.525000
v -0.210000 0.580000 -0.525000
v -0.270000 0.580000 -0.525000
v 0.210000 0.080000 -0.605000
v 0.210000 0.580000 -0.605000
v 0.270000 0.580000 -0.605000
v 0.270000 0.080000 -0.605000
v 0.210000 0.080000 -0.525000
v 0.270000 0.080000 -0.525000
v 0.270000 0.580000 -0.525000
v 0.210000 0.580000 -0.525000
v -0.320000 0.580000 -0.630000
v -0.320000 0.800000 -0.565000
v 0.320000 0.800000 -0.565000
v 0.320000 0.580000 -0.630000
v -0.320000 0.580000 -0.500000
v 0.320000 0.580000 -0.500000
v -0.320000 0.800000 -0.577000
v 0.320000 0.800000 -0.577000
v 0.320000 0.800000 -0.553000
v -0.320000 0.800000 -0.553000
vn -0.0000 -0.0000 -1.0000
vn -0.0000 -0.0000 1.0000
vn -1.0000 -0.0000 -0.0000
vn 1.0000 -0.0000 -0.0000
vn -0.0000 -1.0000 -0.0000
vn -0.0000 1.0000 -0.0000
vn -0.0000 0.7071 -0.7071
vn -0.0000 0.7071 0.7071
vn -0.8824 0.4706 -0.0000
vn 0.8824 0.4706 -0.0000
vn -0.0000 0.7474 -0.6644
vn -0.0000 0.7474 0.6644
vn -0.0000 0.2833 -0.9590
vn -0.0000 0.2833 0.9590
vt 0.937500 0.937500
vt 0.062500 0.812500
vt 0.187500 0.937500
vt 0.312500 0.937500
vt 0.062500 0.937500
vt 0.687500 0.937500
vt 0.562500 0.937500
vt 0.562500 0.812500
vt 0.687500 0.812500
vt 0.812500 0.812500
vt 0.312500 0.812500
vt 0.187500 0.812500
s 0
usemtl inkbox_entity_atlas
f 1/1/1 2/1/1 3/1/1 4/1/1
f 5/1/2 6/1/2 7/1/2 8/1/2
f 1/1/3 5/1/3 8/1/3 2/1/3
f 4/1/4 3/1/4 7/1/4 6/1/4
f 1/1/5 4/1/5 6/1/5 5/1/5
f 2/2/6 8/2/6 7/2/6 3/2/6
f 2/3/1 9/3/1 10/3/1 11/3/1
f 12/3/2 13/3/2 14/3/2 15/3/2
f 2/4/3 12/4/3 15/4/3 9/4/3
f 11/4/4 10/4/4 14/4/4 13/4/4
f 2/5/5 11/5/5 13/5/5 12/5/5
f 9/3/6 15/3/6 14/3/6 10/3/6
f 16/3/1 17/3/1 18/3/1 3/3/1
f 19/3/2 20/3/2 21/3/2 22/3/2
f 16/4/3 19/4/3 22/4/3 17/4/3
f 3/4/4 18/4/4 21/4/4 20/4/4
f 16/5/5 3/5/5 20/5/5 19/5/5
f 17/3/6 22/3/6 21/3/6 18/3/6
f 2/5/1 9/5/1 23/5/1 24/5/1
f 25/5/2 26/5/2 27/5/2 28/5/2
f 2/5/3 25/5/3 28/5/3 9/5/3
f 24/5/4 23/5/4 27/5/4 26/5/4
f 2/5/5 24/5/5 26/5/5 25/5/5
f 9/3/6 28/3/6 27/3/6 23/3/6
f 29/5/1 30/5/1 18/5/1 3/5/1
f 31/5/2 32/5/2 33/5/2 34/5/2
f 29/5/3 31/5/3 34/5/3 30/5/3
f 3/5/4 18/5/4 33/5/4 32/5/4
f 29/5/5 3/5/5 32/5/5 31/5/5
f 30/3/6 34/3/6 33/3/6 18/3/6
f 35/5/1 36/5/1 37/5/1 38/5/1
f 39/5/2 40/5/2 41/5/2 42/5/2
f 35/3/3 39/3/3 42/3/3 36/3/3
f 38/3/4 37/3/4 41/3/4 40/3/4
f 35/5/5 38/5/5 40/5/5 39/5/5
f 36/3/6 42/3/6 41/3/6 37/3/6
f 43/6/7 44/6/7 45/6/7 46/6/7
f 47/6/8 45/6/8 44/6/8 48/6/8
f 43/7/9 48/7/9 44/7/9
f 47/7/10 46/7/10 45/7/10
f 49/7/5 50/7/5 51/7/5 52/7/5
f 53/8/1 54/8/1 55/8/1 56/8/1
f 57/8/2 58/8/2 59/8/2 60/8/2
f 53/8/3 57/8/3 60/8/3 54/8/3
f 56/8/4 55/8/4 59/8/4 58/8/4
f 53/8/5 56/8/5 58/8/5 57/8/5
f 54/9/6 60/9/6 59/9/6 55/9/6
f 61/10/1 62/10/1 63/10/1 64/10/1
f 65/10/2 66/10/2 67/10/2 68/10/2
f 61/10/3 65/10/3 68/10/3 62/10/3
f 64/10/4 63/10/4 67/10/4 66/10/4
f 61/10/5 64/10/5 66/10/5 65/10/5
f 62/10/6 68/10/6 67/10/6 63/10/6
f 69/10/1 70/10/1 71/10/1 72/10/1
f 73/10/2 74/10/2 75/10/2 76/10/2
f 69/10/3 73/10/3 76/10/3 70/10/3
f 72/10/4 71/10/4 75/10/4 74/10/4
f 69/10/5 72/10/5 74/10/5 73/10/5
f 70/10/6 76/10/6 75/10/6 71/10/6
f 77/4/1 78/4/1 79/4/1 80/4/1
f 81/4/2 82/4/2 83/4/2 84/4/2
f 77/4/3 81/4/3 84/4/3 78/4/3
f 80/4/4 79/4/4 83/4/4 82/4/4
f 77/4/5 80/4/5 82/4/5 81/4/5
f 78/5/6 84/5/6 83/5/6 79/5/6
f 85/6/11 86/6/11 87/6/11 88/6/11
f 89/6/12 90/6/12 87/6/12 86/6/12
f 85/4/3 89/4/3 86/4/3
f 88/4/4 87/4/4 90/4/4
f 91/7/5 92/7/5 93/7/5 94/7/5
f 95/4/1 96/4/1 97/4/1 98/4/1
f 99/4/2 100/4/2 101/4/2 102/4/2
f 95/4/3 99/4/3 102/4/3 96/4/3
f 98/4/4 97/4/4 101/4/4 100/4/4
f 95/4/5 98/4/5 100/4/5 99/4/5
f 96/5/6 102/5/6 101/5/6 97/5/6
f 103/6/11 104/6/11 105/6/11 106/6/11
f 107/6/12 108/6/12 105/6/12 104/6/12
f 103/4/3 107/4/3 104/4/3
f 106/4/4 105/4/4 108/4/4
f 109/7/5 110/7/5 111/7/5 112/7/5
f 113/11/1 114/11/1 115/11/1 116/11/1
f 117/11/2 118/11/2 119/11/2 120/11/2
f 113/12/3 117/12/3 120/12/3 114/12/3
f 116/12/4 115/12/4 119/12/4 118/12/4
f 113/12/5 116/12/5 118/12/5 117/12/5
f 114/11/6 120/11/6 119/11/6 115/11/6
f 121/11/1 122/11/1 123/11/1 124/11/1
f 125/11/2 126/11/2 127/11/2 128/11/2
f 121/12/3 125/12/3 128/12/3 122/12/3
f 124/12/4 123/12/4 127/12/4 126/12/4
f 121/12/5 124/12/5 126/12/5 125/12/5
f 122/11/6 128/11/6 127/11/6 123/11/6
f 129/6/13 130/6/13 131/6/13 132/6/13
f 133/6/14 134/6/14 131/6/14 130/6/14
f 129/4/3 133/4/3 130/4/3
f 132/4/4 131/4/4 134/4/4
f 135/7/5 136/7/5 137/7/5 138/7/5
