# Blender 5.2.0 LTS
# www.blender.org
mtllib bld_scripture.mtl
o bld_scripture
v -0.440000 0.000000 -0.440000
v -0.440000 0.100000 -0.440000
v 0.440000 0.100000 -0.440000
v 0.440000 0.000000 -0.440000
v -0.440000 0.000000 0.440000
v 0.440000 0.000000 0.440000
v 0.440000 0.100000 0.440000
v -0.440000 0.100000 0.440000
v -0.360000 0.100000 -0.360000
v -0.360000 0.520000 -0.360000
v 0.360000 0.520000 -0.360000
v 0.360000 0.100000 -0.360000
v -0.360000 0.100000 0.360000
v 0.360000 0.100000 0.360000
v 0.360000 0.520000 0.360000
v -0.360000 0.520000 0.360000
v -0.430000 0.520000 -0.430000
v -0.430000 0.580000 -0.430000
v 0.430000 0.580000 -0.430000
v 0.430000 0.520000 -0.430000
v -0.430000 0.520000 0.430000
v 0.430000 0.520000 0.430000
v 0.430000 0.580000 0.430000
v -0.430000 0.580000 0.430000
v -0.300000 0.580000 -0.300000
v -0.300000 0.940000 -0.300000
v 0.300000 0.940000 -0.300000
v 0.300000 0.580000 -0.300000
v -0.300000 0.580000 0.300000
v 0.300000 0.580000 0.300000
v 0.300000 0.940000 0.300000
v -0.300000 0.940000 0.300000
v -0.370000 0.940000 -0.370000
v -0.370000 1.000000 -0.370000
v 0.370000 1.000000 -0.370000
v 0.370000 0.940000 -0.370000
v -0.370000 0.940000 0.370000
v 0.370000 0.940000 0.370000
v 0.370000 1.000000 0.370000
v -0.370000 1.000000 0.370000
v -0.240000 1.000000 -0.240000
v -0.240000 1.340000 -0.240000
v 0.240000 1.340000 -0.240000
v 0.240000 1.000000 -0.240000
v -0.240000 1.000000 0.240000
v 0.240000 1.000000 0.240000
v 0.240000 1.340000 0.240000
v -0.240000 1.340000 0.240000
v -0.310000 1.340000 -0.310000
v -0.310000 1.400000 -0.310000
v 0.310000 1.400000 -0.310000
v 0.310000 1.340000 -0.310000
v -0.310000 1.340000 0.310000
v 0.310000 1.340000 0.310000
v 0.310000 1.400000 0.310000
v -0.310000 1.400000 0.310000
v -0.300000 1.400000 -0.300000
v 0.000000 1.700000 0.000000
v 0.300000 1.400000 -0.300000
v 0.300000 1.400000 0.300000
v -0.300000 1.400000 0.300000
v -0.030000 1.700000 -0.030000
v -0.030000 1.820000 -0.030000
v 0.030000 1.820000 -0.030000
v 0.030000 1.700000 -0.030000
v -0.030000 1.700000 0.030000
v 0.030000 1.700000 0.030000
v 0.030000 1.820000 0.030000
v -0.030000 1.820000 0.030000
v -0.110000 0.100000 -0.375000
v -0.110000 0.320000 -0.375000
v 0.110000 0.320000 -0.375000
v 0.110000 0.100000 -0.375000
v -0.110000 0.100000 -0.345000
v 0.110000 0.100000 -0.345000
v 0.110000 0.320000 -0.345000
v -0.110000 0.320000 -0.345000
v -0.200000 0.340000 -0.385000
v -0.200000 0.440000 -0.385000
v 0.200000 0.440000 -0.385000
v 0.200000 0.340000 -0.385000
v -0.200000 0.340000 -0.365000
v 0.200000 0.340000 -0.365000
v 0.200000 0.440000 -0.365000
v -0.200000 0.440000 -0.365000
vn -0.0000 -0.0000 -1.0000
vn -0.0000 -0.0000 1.0000
vn -1.0000 -0.0000 -0.0000
vn 1.0000 -0.0000 -0.0000
vn -0.0000 -1.0000 -0.0000
vn -0.0000 1.0000 -0.0000
vn -0.0000 0.7071 -0.7071
vn 0.7071 0.7071 -0.0000
vn -0.0000 0.7071 0.7071
vn -0.7071 0.7071 -0.0000
vt 0.937500 0.937500
vt 0.062500 0.812500
vt 0.062500 0.937500
vt 0.187500 0.937500
vt 0.687500 0.937500
vt 0.562500 0.937500
vt 0.812500 0.812500
vt 0.562500 0.812500
vt 0.687500 0.812500
s 0
usemtl inkbox_entity_atlas
f 1/1/1 2/1/1 3/1/1 4/1/1
f 5/1/2 6/1/2 7/1/2 8/1/2
f 1/1/3 5/1/3 8/1/3 2/1/3
f 4/1/4 3/1/4 7/1/4 6/1/4
f 1/1/5 4/1/5 6/1/5 5/1/5
f 2/2/6 8/2/6 7/2/6 3/2/6
f 9/3/1 10/3/1 11/3/1 12/3/1
f 13/3/2 14/3/2 15/3/2 16/3/2
f 9/4/3 13/4/3 16/4/3 10/4/3
f 12/4/4 11/4/4 15/4/4 14/4/4
f 9/3/5 12/3/5 14/3/5 13/3/5
f 10/4/6 16/4/6 15/4/6 11/4/6
f 17/5/1 18/5/1 19/5/1 20/5/1
f 21/5/2 22/5/2 23/5/2 24/5/2
f 17/5/3 21/5/3 24/5/3 18/5/3
f 20/5/4 19/5/4 23/5/4 22/5/4
f 17/5/5 20/5/5 22/5/5 21/5/5
f 18/6/6 24/6/6 23/6/6 19/6/6
f 25/3/1 26/3/1 27/3/1 28/3/1
f 29/3/2 30/3/2 31/3/2 32/3/2
f 25/4/3 29/4/3 32/4/3 26/4/3
f 28/4/4 27/4/4 31/4/4 30/4/4
f 25/3/5 28/3/5 30/3/5 29/3/5
f 26/4/6 32/4/6 31/4/6 27/4/6
f 33/5/1 34/5/1 35/5/1 36/5/1
f 37/5/2 38/5/2 39/5/2 40/5/2
f 33/5/3 37/5/3 40/5/3 34/5/3
f 36/5/4 35/5/4 39/5/4 38/5/4
f 33/5/5 36/5/5 38/5/5 37/5/5
f 34/6/6 40/6/6 39/6/6 35/6/6
f 41/3/1 42/3/1 43/3/1 44/3/1
f 45/3/2 46/3/2 47/3/2 48/3/2
f 41/4/3 45/4/3 48/4/3 42/4/3
f 44/4/4 43/4/4 47/4/4 46/4/4
f 41/3/5 44/3/5 46/3/5 45/3/5
f 42/4/6 48/4/6 47/4/6 43/4/6
f 49/5/1 50/5/1 51/5/1 52/5/1
f 53/5/2 54/5/2 55/5/2 56/5/2
f 49/5/3 53/5/3 56/5/3 50/5/3
f 52/5/4 51/5/4 55/5/4 54/5/4
f 49/5/5 52/5/5 54/5/5 53/5/5
f 50/6/6 56/6/6 55/6/6 51/6/6
f 57/5/7 58/5/7 59/5/7
f 59/5/8 58/5/8 60/5/8
f 60/5/9 58/5/9 61/5/9
f 61/5/10 58/5/10 57/5/10
f 62/7/1 63/7/1 64/7/1 65/7/1
f 66/7/2 67/7/2 68/7/2 69/7/2
f 62/7/3 66/7/3 69/7/3 63/7/3
f 65/7/4 64/7/4 68/7/4 67/7/4
f 62/7/5 65/7/5 67/7/5 66/7/5
f 63/7/6 69/7/6 68/7/6 64/7/6
f 70/8/1 71/8/1 72/8/1 73/8/1
f 74/8/2 75/8/2 76/8/2 77/8/2
f 70/8/3 74/8/3 77/8/3 71/8/3
f 73/8/4 72/8/4 76/8/4 75/8/4
f 70/8/5 73/8/5 75/8/5 74/8/5
f 71/9/6 77/9/6 76/9/6 72/9/6
f 78/7/1 79/7/1 80/7/1 81/7/1
f 82/7/2 83/7/2 84/7/2 85/7/2
f 78/7/3 82/7/3 85/7/3 79/7/3
f 81/7/4 80/7/4 84/7/4 83/7/4
f 78/7/5 81/7/5 83/7/5 82/7/5
f 79/7/6 85/7/6 84/7/6 80/7/6
