# Blender 5.2.0 LTS
# www.blender.org
mtllib bld_hut.mtl
o bld_hut
v -0.340000 0.000000 -0.320000
v -0.340000 0.050000 -0.320000
v 0.340000 0.050000 -0.320000
v 0.340000 0.000000 -0.320000
v -0.340000 0.000000 0.320000
v 0.340000 0.000000 0.320000
v 0.340000 0.050000 0.320000
v -0.340000 0.050000 0.320000
v -0.280000 0.050000 -0.260000
v -0.280000 0.460000 -0.260000
v 0.280000 0.460000 -0.260000
v 0.280000 0.050000 -0.260000
v -0.280000 0.050000 0.260000
v 0.280000 0.050000 0.260000
v 0.280000 0.460000 0.260000
v -0.280000 0.460000 0.260000
v -0.280000 0.480000 -0.260000
v -0.230000 0.480000 -0.260000
v -0.230000 0.050000 -0.260000
v -0.280000 0.050000 -0.210000
v -0.230000 0.050000 -0.210000
v -0.230000 0.480000 -0.210000
v -0.280000 0.480000 -0.210000
v 0.230000 0.050000 -0.260000
v 0.230000 0.480000 -0.260000
v 0.280000 0.480000 -0.260000
v 0.230000 0.050000 -0.210000
v 0.280000 0.050000 -0.210000
v 0.280000 0.480000 -0.210000
v 0.230000 0.480000 -0.210000
v -0.280000 0.050000 0.210000
v -0.280000 0.480000 0.210000
v -0.230000 0.480000 0.210000
v -0.230000 0.050000 0.210000
v -0.230000 0.050000 0.260000
v -0.230000 0.480000 0.260000
v -0.280000 0.480000 0.260000
v 0.230000 0.050000 0.210000
v 0.230000 0.480000 0.210000
v 0.280000 0.480000 0.210000
v 0.280000 0.050000 0.210000
v 0.230000 0.050000 0.260000
v 0.280000 0.480000 0.260000
v 0.230000 0.480000 0.260000
v -0.360000 0.460000 -0.320000
v -0.360000 0.760000 0.000000
v 0.360000 0.760000 0.000000
v 0.360000 0.460000 -0.320000
v -0.360000 0.460000 0.320000
v 0.360000 0.460000 0.320000
v -0.360000 0.760000 -0.012000
v 0.360000 0.760000 -0.012000
v 0.360000 0.760000 0.012000
v -0.360000 0.760000 0.012000
v -0.400000 0.420000 -0.360000
v -0.400000 0.500000 -0.360000
v 0.400000 0.500000 -0.360000
v 0.400000 0.420000 -0.360000
v -0.400000 0.420000 0.360000
v 0.400000 0.420000 0.360000
v 0.400000 0.500000 0.360000
v -0.400000 0.500000 0.360000
v -0.090000 0.050000 -0.275000
v -0.090000 0.300000 -0.275000
v 0.090000 0.300000 -0.275000
v 0.090000 0.050000 -0.275000
v -0.090000 0.050000 -0.255000
v 0.090000 0.050000 -0.255000
v 0.090000 0.300000 -0.255000
v -0.090000 0.300000 -0.255000
v 0.130000 0.240000 -0.270000
v 0.130000 0.360000 -0.270000
v 0.210000 0.360000 -0.270000
v 0.210000 0.240000 -0.270000
v 0.130000 0.240000 -0.255000
v 0.210000 0.240000 -0.255000
v 0.210000 0.360000 -0.255000
v 0.130000 0.360000 -0.255000
v 0.300000 0.000000 -0.100000
v 0.300000 0.140000 -0.100000
v 0.440000 0.140000 -0.100000
v 0.440000 0.000000 -0.100000
v 0.300000 0.000000 0.100000
v 0.440000 0.000000 0.100000
v 0.440000 0.140000 0.100000
v 0.300000 0.140000 0.100000
vn -0.0000 -0.0000 -1.0000
vn -0.0000 -0.0000 1.0000
vn -1.0000 -0.0000 -0.0000
vn 1.0000 -0.0000 -0.0000
vn -0.0000 -1.0000 -0.0000
vn -0.0000 1.0000 -0.0000
vn -0.0000 0.7295 -0.6839
vn -0.0000 0.7295 0.6839
vt 0.062500 0.812500
vt 0.937500 0.937500
vt 0.312500 0.937500
vt 0.187500 0.937500
vt 0.187500 0.812500
vt 0.312500 0.812500
vt 0.437500 0.812500
vt 0.562500 0.937500
s 0
usemtl inkbox_entity_atlas
f 1/1/1 2/1/1 3/1/1 4/1/1
f 5/1/2 6/1/2 7/1/2 8/1/2
f 1/1/3 5/1/3 8/1/3 2/1/3
f 4/1/4 3/1/4 7/1/4 6/1/4
f 1/1/5 4/1/5 6/1/5 5/1/5
f 2/2/6 8/2/6 7/2/6 3/2/6
f 9/3/1 10/3/1 11/3/1 12/3/1
f 13/3/2 14/3/2 15/3/2 16/3/2
f 9/3/3 13/3/3 16/3/3 10/3/3
f 12/3/4 11/3/4 15/3/4 14/3/4
f 9/3/5 12/3/5 14/3/5 13/3/5
f 10/4/6 16/4/6 15/4/6 11/4/6
f 9/5/1 17/5/1 18/5/1 19/5/1
f 20/5/2 21/5/2 22/5/2 23/5/2
f 9/5/3 20/5/3 23/5/3 17/5/3
f 19/5/4 18/5/4 22/5/4 21/5/4
f 9/5/5 19/5/5 21/5/5 20/5/5
f 17/6/6 23/6/6 22/6/6 18/6/6
f 24/5/1 25/5/1 26/5/1 12/5/1
f 27/5/2 28/5/2 29/5/2 30/5/2
f 24/5/3 27/5/3 30/5/3 25/5/3
f 12/5/4 26/5/4 29/5/4 28/5/4
f 24/5/5 12/5/5 28/5/5 27/5/5
f 25/6/6 30/6/6 29/6/6 26/6/6
f 31/5/1 32/5/1 33/5/1 34/5/1
f 13/5/2 35/5/2 36/5/2 37/5/2
f 31/5/3 13/5/3 37/5/3 32/5/3
f 34/5/4 33/5/4 36/5/4 35/5/4
f 31/5/5 34/5/5 35/5/5 13/5/5
f 32/6/6 37/6/6 36/6/6 33/6/6
f 38/5/1 39/5/1 40/5/1 41/5/1
f 42/5/2 14/5/2 43/5/2 44/5/2
f 38/5/3 42/5/3 44/5/3 39/5/3
f 41/5/4 40/5/4 43/5/4 14/5/4
f 38/5/5 41/5/5 14/5/5 42/5/5
f 39/6/6 44/6/6 43/6/6 40/6/6
f 45/7/7 46/7/7 47/7/7 48/7/7
f 49/7/8 50/7/8 47/7/8 46/7/8
f 45/7/3 49/7/3 46/7/3
f 48/7/4 47/7/4 50/7/4
f 51/6/5 52/6/5 53/6/5 54/6/5
f 55/7/1 56/7/1 57/7/1 58/7/1
f 59/7/2 60/7/2 61/7/2 62/7/2
f 55/7/3 59/7/3 62/7/3 56/7/3
f 58/7/4 57/7/4 61/7/4 60/7/4
f 55/7/5 58/7/5 60/7/5 59/7/5
f 56/7/6 62/7/6 61/7/6 57/7/6
f 63/8/1 64/8/1 65/8/1 66/8/1
f 67/8/2 68/8/2 69/8/2 70/8/2
f 63/8/3 67/8/3 70/8/3 64/8/3
f 66/8/4 65/8/4 69/8/4 68/8/4
f 63/8/5 66/8/5 68/8/5 67/8/5
f 64/8/6 70/8/6 69/8/6 65/8/6
f 71/8/1 72/8/1 73/8/1 74/8/1
f 75/8/2 76/8/2 77/8/2 78/8/2
f 71/8/3 75/8/3 78/8/3 72/8/3
f 74/8/4 73/8/4 77/8/4 76/8/4
f 71/8/5 74/8/5 76/8/5 75/8/5
f 72/8/6 78/8/6 77/8/6 73/8/6
f 79/6/1 80/6/1 81/6/1 82/6/1
f 83/6/2 84/6/2 85/6/2 86/6/2
f 79/6/3 83/6/3 86/6/3 80/6/3
f 82/6/4 81/6/4 85/6/4 84/6/4
f 79/6/5 82/6/5 84/6/5 83/6/5
f 80/5/6 86/5/6 85/5/6 81/5/6
