# Blender 5.2.0 LTS
# www.blender.org
mtllib terr_terrace.mtl
o terr_terrace
v -0.500000 0.000000 -0.500000
v -0.500000 0.180000 -0.500000
v 0.500000 0.180000 -0.500000
v 0.500000 0.000000 -0.500000
v -0.500000 0.000000 0.500000
v 0.500000 0.000000 0.500000
v 0.500000 0.180000 0.500000
v -0.500000 0.180000 0.500000
v -0.420000 0.180000 -0.420000
v -0.420000 0.360000 -0.420000
v 0.420000 0.360000 -0.420000
v 0.420000 0.180000 -0.420000
v -0.420000 0.180000 0.420000
v 0.420000 0.180000 0.420000
v 0.420000 0.360000 0.420000
v -0.420000 0.360000 0.420000
v -0.320000 0.360000 -0.320000
v -0.320000 0.540000 -0.320000
v 0.320000 0.540000 -0.320000
v 0.320000 0.360000 -0.320000
v -0.320000 0.360000 0.320000
v 0.320000 0.360000 0.320000
v 0.320000 0.540000 0.320000
v -0.320000 0.540000 0.320000
vn -0.0000 -0.0000 -1.0000
vn -0.0000 -0.0000 1.0000
vn -1.0000 -0.0000 -0.0000
vn 1.0000 -0.0000 -0.0000
vn -0.0000 -1.0000 -0.0000
vn -0.0000 1.0000 -0.0000
vt 0.937500 0.937500
vt 0.062500 0.812500
s 0
usemtl inkbox_entity_atlas
f 1/1/1 2/1/1 3/1/1 4/1/1
f 5/1/2 6/1/2 7/1/2 8/1/2
f 1/1/3 5/1/3 8/1/3 2/1/3
f 4/1/4 3/1/4 7/1/4 6/1/4
f 1/1/5 4/1/5 6/1/5 5/1/5
f 2/2/6 8/2/6 7/2/6 3/2/6
f 9/2/1 10/2/1 11/2/1 12/2/1
f 13/2/2 14/2/2 15/2/2 16/2/2
f 9/2/3 13/2/3 16/2/3 10/2/3
f 12/2/4 11/2/4 15/2/4 14/2/4
f 9/2/5 12/2/5 14/2/5 13/2/5
f 10/1/6 16/1/6 15/1/6 11/1/6
f 17/1/1 18/1/1 19/1/1 20/1/1
f 21/1/2 22/1/2 23/1/2 24/1/2
f 17/1/3 21/1/3 24/1/3 18/1/3
f 20/1/4 19/1/4 23/1/4 22/1/4
f 17/1/5 20/1/5 22/1/5 21/1/5
f 18/2/6 24/2/6 23/2/6 19/2/6
