# Blender 5.2.0 LTS
# www.blender.org
mtllib terr_stairs.mtl
o terr_stairs
v -0.300000 0.000000 -0.500000
v -0.300000 0.100000 -0.500000
v 0.300000 0.100000 -0.500000
v 0.300000 0.000000 -0.500000
v -0.300000 0.000000 -0.300000
v 0.300000 0.000000 -0.300000
v 0.300000 0.100000 -0.300000
v -0.300000 0.100000 -0.300000
v -0.300000 0.200000 -0.300000
v 0.300000 0.200000 -0.300000
v -0.300000 0.000000 -0.100000
v 0.300000 0.000000 -0.100000
v 0.300000 0.200000 -0.100000
v -0.300000 0.200000 -0.100000
v -0.300000 0.300000 -0.100000
v 0.300000 0.300000 -0.100000
v -0.300000 0.000000 0.100000
v 0.300000 0.000000 0.100000
v 0.300000 0.300000 0.100000
v -0.300000 0.300000 0.100000
v -0.300000 0.400000 0.100000
v 0.300000 0.400000 0.100000
v -0.300000 0.000000 0.300000
v 0.300000 0.000000 0.300000
v 0.300000 0.400000 0.300000
v -0.300000 0.400000 0.300000
v -0.300000 0.500000 0.300000
v 0.300000 0.500000 0.300000
v -0.300000 0.000000 0.500000
v 0.300000 0.000000 0.500000
v 0.300000 0.500000 0.500000
v -0.300000 0.500000 0.500000
vn -0.0000 -0.0000 -1.0000
vn -0.0000 -0.0000 1.0000
vn -1.0000 -0.0000 -0.0000
vn 1.0000 -0.0000 -0.0000
vn -0.0000 -1.0000 -0.0000
vn -0.0000 1.0000 -0.0000
vt 0.937500 0.937500
vt 0.062500 0.812500
s 0
usemtl inkbox_entity_atlas
f 1/1/1 2/1/1 3/1/1 4/1/1
f 5/1/2 6/1/2 7/1/2 8/1/2
f 1/1/3 5/1/3 8/1/3 2/1/3
f 4/1/4 3/1/4 7/1/4 6/1/4
f 1/1/5 4/1/5 6/1/5 5/1/5
f 2/2/6 8/2/6 7/2/6 3/2/6
f 5/1/1 9/1/1 10/1/1 6/1/1
f 11/1/2 12/1/2 13/1/2 14/1/2
f 5/1/3 11/1/3 14/1/3 9/1/3
f 6/1/4 10/1/4 13/1/4 12/1/4
f 5/1/5 6/1/5 12/1/5 11/1/5
f 9/2/6 14/2/6 13/2/6 10/2/6
f 11/1/1 15/1/1 16/1/1 12/1/1
f 17/1/2 18/1/2 19/1/2 20/1/2
f 11/1/3 17/1/3 20/1/3 15/1/3
f 12/1/4 16/1/4 19/1/4 18/1/4
f 11/1/5 12/1/5 18/1/5 17/1/5
f 15/2/6 20/2/6 19/2/6 16/2/6
f 17/1/1 21/1/1 22/1/1 18/1/1
f 23/1/2 24/1/2 25/1/2 26/1/2
f 17/1/3 23/1/3 26/1/3 21/1/3
f 18/1/4 22/1/4 25/1/4 24/1/4
f 17/1/5 18/1/5 24/1/5 23/1/5
f 21/2/6 26/2/6 25/2/6 22/2/6
f 23/1/1 27/1/1 28/1/1 24/1/1
f 29/1/2 30/1/2 31/1/2 32/1/2
f 23/1/3 29/1/3 32/1/3 27/1/3
f 24/1/4 28/1/4 31/1/4 30/1/4
f 23/1/5 24/1/5 30/1/5 29/1/5
f 27/2/6 32/2/6 31/2/6 28/2/6
