# Blender 5.2.0 LTS
# www.blender.org
mtllib terr_arch.mtl
o terr_arch
v -0.400000 0.000000 -0.130000
v -0.400000 0.620000 -0.130000
v -0.240000 0.620000 -0.130000
v -0.240000 0.000000 -0.130000
v -0.400000 0.000000 0.130000
v -0.240000 0.000000 0.130000
v -0.240000 0.620000 0.130000
v -0.400000 0.620000 0.130000
v 0.320000 0.000000 -0.130000
v 0.320000 0.620000 -0.130000
v 0.480000 0.620000 -0.130000
v 0.480000 0.000000 -0.130000
v 0.320000 0.000000 0.130000
v 0.480000 0.000000 0.130000
v 0.480000 0.620000 0.130000
v 0.320000 0.620000 0.130000
v 0.540000 0.420000 -0.130000
v 0.467650 0.690000 -0.130000
v 0.467650 0.690000 0.130000
v 0.540000 0.420000 0.130000
v 0.400000 0.420000 0.130000
v 0.346410 0.620000 0.130000
v 0.346410 0.620000 -0.130000
v 0.400000 0.420000 -0.130000
v 0.270000 0.887650 -0.130000
v 0.270000 0.887650 0.130000
v 0.200000 0.766410 0.130000
v 0.200000 0.766410 -0.130000
v 0.000000 0.960000 -0.130000
v 0.000000 0.960000 0.130000
v 0.000000 0.820000 0.130000
v 0.000000 0.820000 -0.130000
v -0.270000 0.887650 -0.130000
v -0.270000 0.887650 0.130000
v -0.200000 0.766410 0.130000
v -0.200000 0.766410 -0.130000
v -0.467650 0.690000 -0.130000
v -0.467650 0.690000 0.130000
v -0.346410 0.620000 0.130000
v -0.346410 0.620000 -0.130000
v -0.540000 0.420000 -0.130000
v -0.540000 0.420000 0.130000
v -0.400000 0.420000 0.130000
v -0.400000 0.420000 -0.130000
v -0.140000 0.860000 -0.130000
v -0.140000 0.960000 -0.130000
v 0.140000 0.960000 -0.130000
v 0.140000 0.860000 -0.130000
v -0.140000 0.860000 0.130000
v 0.140000 0.860000 0.130000
v 0.140000 0.960000 0.130000
v -0.140000 0.960000 0.130000
vn -0.0000 -0.0000 -1.0000
vn -0.0000 -0.0000 1.0000
vn -1.0000 -0.0000 -0.0000
vn 1.0000 -0.0000 -0.0000
vn -0.0000 -1.0000 -0.0000
vn -0.0000 1.0000 -0.0000
vn 0.9659 0.2588 -0.0000
vn -0.9659 -0.2588 -0.0000
vn 0.7071 0.7071 -0.0000
vn -0.7071 -0.7071 -0.0000
vn 0.2588 0.9659 -0.0000
vn -0.2588 -0.9659 -0.0000
vn -0.2588 0.9659 -0.0000
vn 0.2588 -0.9659 -0.0000
vn -0.7071 0.7071 -0.0000
vn 0.7071 -0.7071 -0.0000
vn -0.9659 0.2588 -0.0000
vn 0.9659 -0.2588 -0.0000
vt 0.937500 0.937500
vt 0.062500 0.812500
s 0
usemtl inkbox_entity_atlas
f 1/1/1 2/1/1 3/1/1 4/1/1
f 5/1/2 6/1/2 7/1/2 8/1/2
f 1/1/3 5/1/3 8/1/3 2/1/3
f 4/1/4 3/1/4 7/1/4 6/1/4
f 1/1/5 4/1/5 6/1/5 5/1/5
f 2/2/6 8/2/6 7/2/6 3/2/6
f 9/1/1 10/1/1 11/1/1 12/1/1
f 13/1/2 14/1/2 15/1/2 16/1/2
f 9/1/3 13/1/3 16/1/3 10/1/3
f 12/1/4 11/1/4 15/1/4 14/1/4
f 9/1/5 12/1/5 14/1/5 13/1/5
f 10/2/6 16/2/6 15/2/6 11/2/6
f 17/1/7 18/1/7 19/1/7 20/1/7
f 21/2/8 22/2/8 23/2/8 24/2/8
f 17/1/1 24/1/1 23/1/1 18/1/1
f 19/1/2 22/1/2 21/1/2 20/1/2
f 18/1/9 25/1/9 26/1/9 19/1/9
f 22/2/10 27/2/10 28/2/10 23/2/10
f 18/1/1 23/1/1 28/1/1 25/1/1
f 26/1/2 27/1/2 22/1/2 19/1/2
f 25/1/11 29/1/11 30/1/11 26/1/11
f 27/2/12 31/2/12 32/2/12 28/2/12
f 25/1/1 28/1/1 32/1/1 29/1/1
f 30/1/2 31/1/2 27/1/2 26/1/2
f 29/1/13 33/1/13 34/1/13 30/1/13
f 31/2/14 35/2/14 36/2/14 32/2/14
f 29/1/1 32/1/1 36/1/1 33/1/1
f 34/1/2 35/1/2 31/1/2 30/1/2
f 33/1/15 37/1/15 38/1/15 34/1/15
f 35/2/16 39/2/16 40/2/16 36/2/16
f 33/1/1 36/1/1 40/1/1 37/1/1
f 38/1/2 39/1/2 35/1/2 34/1/2
f 37/1/17 41/1/17 42/1/17 38/1/17
f 39/2/18 43/2/18 44/2/18 40/2/18
f 37/1/1 40/1/1 44/1/1 41/1/1
f 42/1/2 43/1/2 39/1/2 38/1/2
f 45/2/1 46/2/1 47/2/1 48/2/1
f 49/2/2 50/2/2 51/2/2 52/2/2
f 45/2/3 49/2/3 52/2/3 46/2/3
f 48/2/4 47/2/4 51/2/4 50/2/4
f 45/2/5 48/2/5 50/2/5 49/2/5
f 46/2/6 52/2/6 51/2/6 47/2/6
