# Blender 5.2.0 LTS
# www.blender.org
mtllib terr_cave.mtl
o terr_cave
v -0.520000 0.000000 -0.520000
v -0.520000 0.640000 -0.520000
v 0.520000 0.640000 -0.520000
v 0.520000 0.000000 -0.520000
v -0.520000 0.000000 0.520000
v 0.520000 0.000000 0.520000
v 0.520000 0.640000 0.520000
v -0.520000 0.640000 0.520000
v 0.000000 1.020000 0.000000
v -0.240000 0.100000 -0.580000
v -0.240000 0.560000 -0.580000
v 0.240000 0.560000 -0.580000
v 0.240000 0.100000 -0.580000
v -0.240000 0.100000 -0.460000
v 0.240000 0.100000 -0.460000
v 0.240000 0.560000 -0.460000
v -0.240000 0.560000 -0.460000
v -0.160000 0.100000 -0.660000
v -0.160000 0.440000 -0.660000
v 0.160000 0.440000 -0.660000
v 0.160000 0.100000 -0.660000
v -0.160000 0.100000 -0.580000
v 0.160000 0.100000 -0.580000
v 0.160000 0.440000 -0.580000
v -0.160000 0.440000 -0.580000
v -0.280000 0.560000 -0.620000
v -0.280000 0.660000 -0.620000
v 0.280000 0.660000 -0.620000
v 0.280000 0.560000 -0.620000
v -0.280000 0.560000 -0.440000
v 0.280000 0.560000 -0.440000
v 0.280000 0.660000 -0.440000
v -0.280000 0.660000 -0.440000
v -0.220000 0.000000 -0.860000
v -0.220000 0.050000 -0.860000
v 0.220000 0.050000 -0.860000
v 0.220000 0.000000 -0.860000
v -0.220000 0.000000 -0.760000
v 0.220000 0.000000 -0.760000
v 0.220000 0.050000 -0.760000
v -0.220000 0.050000 -0.760000
v -0.220000 0.100000 -0.760000
v 0.220000 0.100000 -0.760000
v -0.220000 0.000000 -0.660000
v 0.220000 0.000000 -0.660000
v 0.220000 0.100000 -0.660000
v -0.220000 0.100000 -0.660000
vn -0.0000 -0.0000 -1.0000
vn -0.0000 -0.0000 1.0000
vn -1.0000 -0.0000 -0.0000
vn 1.0000 -0.0000 -0.0000
vn -0.0000 -1.0000 -0.0000
vn -0.0000 1.0000 -0.0000
vn -0.0000 0.8074 -0.5900
vn 0.5900 0.8074 -0.0000
vn -0.0000 0.8074 0.5900
vn -0.5900 0.8074 -0.0000
vt 0.937500 0.937500
vt 0.062500 0.812500
vt 0.562500 0.937500
s 0
usemtl inkbox_entity_atlas
f 1/1/1 2/1/1 3/1/1 4/1/1
f 5/1/2 6/1/2 7/1/2 8/1/2
f 1/1/3 5/1/3 8/1/3 2/1/3
f 4/1/4 3/1/4 7/1/4 6/1/4
f 1/1/5 4/1/5 6/1/5 5/1/5
f 2/2/6 8/2/6 7/2/6 3/2/6
f 2/2/7 9/2/7 3/2/7
f 3/2/8 9/2/8 7/2/8
f 7/2/9 9/2/9 8/2/9
f 8/2/10 9/2/10 2/2/10
f 10/3/1 11/3/1 12/3/1 13/3/1
f 14/3/2 15/3/2 16/3/2 17/3/2
f 10/3/3 14/3/3 17/3/3 11/3/3
f 13/3/4 12/3/4 16/3/4 15/3/4
f 10/3/5 13/3/5 15/3/5 14/3/5
f 11/3/6 17/3/6 16/3/6 12/3/6
f 18/3/1 19/3/1 20/3/1 21/3/1
f 22/3/2 23/3/2 24/3/2 25/3/2
f 18/3/3 22/3/3 25/3/3 19/3/3
f 21/3/4 20/3/4 24/3/4 23/3/4
f 18/3/5 21/3/5 23/3/5 22/3/5
f 19/3/6 25/3/6 24/3/6 20/3/6
f 26/2/1 27/2/1 28/2/1 29/2/1
f 30/2/2 31/2/2 32/2/2 33/2/2
f 26/2/3 30/2/3 33/2/3 27/2/3
f 29/2/4 28/2/4 32/2/4 31/2/4
f 26/2/5 29/2/5 31/2/5 30/2/5
f 27/2/6 33/2/6 32/2/6 28/2/6
f 34/1/1 35/1/1 36/1/1 37/1/1
f 38/1/2 39/1/2 40/1/2 41/1/2
f 34/1/3 38/1/3 41/1/3 35/1/3
f 37/1/4 36/1/4 40/1/4 39/1/4
f 34/1/5 37/1/5 39/1/5 38/1/5
f 35/2/6 41/2/6 40/2/6 36/2/6
f 38/1/1 42/1/1 43/1/1 39/1/1
f 44/1/2 45/1/2 46/1/2 47/1/2
f 38/1/3 44/1/3 47/1/3 42/1/3
f 39/1/4 43/1/4 46/1/4 45/1/4
f 38/1/5 39/1/5 45/1/5 44/1/5
f 42/2/6 47/2/6 46/2/6 43/2/6
