# Blender 5.2.0 LTS
# www.blender.org
mtllib terr_pillar.mtl
o terr_pillar
v -0.410000 0.000000 -0.010000
v -0.410000 1.150000 -0.010000
v -0.190000 1.150000 -0.010000
v -0.190000 0.000000 -0.010000
v -0.410000 0.000000 0.210000
v -0.190000 0.000000 0.210000
v -0.190000 1.150000 0.210000
v -0.410000 1.150000 0.210000
v -0.300000 1.280000 0.100000
v -0.030000 0.000000 -0.250000
v -0.030000 0.800000 -0.250000
v 0.150000 0.800000 -0.250000
v 0.150000 0.000000 -0.250000
v -0.030000 0.000000 -0.070000
v 0.150000 0.000000 -0.070000
v 0.150000 0.800000 -0.070000
v -0.030000 0.800000 -0.070000
v 0.060000 0.930000 -0.160000
v 0.220000 0.000000 0.140000
v 0.220000 0.550000 0.140000
v 0.380000 0.550000 0.140000
v 0.380000 0.000000 0.140000
v 0.220000 0.000000 0.300000
v 0.380000 0.000000 0.300000
v 0.380000 0.550000 0.300000
v 0.220000 0.550000 0.300000
v 0.300000 0.680000 0.220000
vn -0.0000 -0.0000 -1.0000
vn -0.0000 -0.0000 1.0000
vn -1.0000 -0.0000 -0.0000
vn 1.0000 -0.0000 -0.0000
vn -0.0000 -1.0000 -0.0000
vn -0.0000 1.0000 -0.0000
vn -0.0000 0.6459 -0.7634
vn 0.7634 0.6459 -0.0000
vn -0.0000 0.6459 0.7634
vn -0.7634 0.6459 -0.0000
vn -0.0000 0.5692 -0.8222
vn 0.8222 0.5692 -0.0000
vn -0.0000 0.5692 0.8222
vn -0.8222 0.5692 -0.0000
vn -0.0000 0.5241 -0.8517
vn 0.8517 0.5241 -0.0000
vn -0.0000 0.5241 0.8517
vn -0.8517 0.5241 -0.0000
vt 0.062500 0.812500
vt 0.937500 0.937500
s 0
usemtl inkbox_entity_atlas
f 1/1/1 2/1/1 3/1/1 4/1/1
f 5/1/2 6/1/2 7/1/2 8/1/2
f 1/2/3 5/2/3 8/2/3 2/2/3
f 4/2/4 3/2/4 7/2/4 6/2/4
f 1/2/5 4/2/5 6/2/5 5/2/5
f 2/1/6 8/1/6 7/1/6 3/1/6
f 2/1/7 9/1/7 3/1/7
f 3/1/8 9/1/8 7/1/8
f 7/1/9 9/1/9 8/1/9
f 8/1/10 9/1/10 2/1/10
f 10/1/1 11/1/1 12/1/1 13/1/1
f 14/1/2 15/1/2 16/1/2 17/1/2
f 10/2/3 14/2/3 17/2/3 11/2/3
f 13/2/4 12/2/4 16/2/4 15/2/4
f 10/2/5 13/2/5 15/2/5 14/2/5
f 11/1/6 17/1/6 16/1/6 12/1/6
f 11/1/11 18/1/11 12/1/11
f 12/1/12 18/1/12 16/1/12
f 16/1/13 18/1/13 17/1/13
f 17/1/14 18/1/14 11/1/14
f 19/1/1 20/1/1 21/1/1 22/1/1
f 23/1/2 24/1/2 25/1/2 26/1/2
f 19/2/3 23/2/3 26/2/3 20/2/3
f 22/2/4 21/2/4 25/2/4 24/2/4
f 19/2/5 22/2/5 24/2/5 23/2/5
f 20/1/6 26/1/6 25/1/6 21/1/6
f 20/1/15 27/1/15 21/1/15
f 21/1/16 27/1/16 25/1/16
f 25/1/17 27/1/17 26/1/17
f 26/1/18 27/1/18 20/1/18
