# Blender 5.2.0 LTS
# www.blender.org
mtllib terr_cliff.mtl
o terr_cliff
v -0.500000 0.000000 -0.500000
v -0.500000 0.520000 -0.500000
v 0.500000 0.520000 -0.500000
v 0.500000 0.000000 -0.500000
v -0.500000 0.000000 0.300000
v 0.500000 0.000000 0.300000
v 0.500000 0.520000 0.300000
v -0.500000 0.520000 0.300000
v -0.500000 0.560000 -0.500000
v 0.500000 0.560000 -0.500000
v 0.500000 0.560000 0.300000
v -0.500000 0.560000 0.300000
v -0.500000 1.140000 -0.500000
v 0.500000 1.140000 -0.500000
v 0.500000 1.140000 0.300000
v -0.500000 1.140000 0.300000
v -0.500000 1.180000 -0.500000
v 0.500000 1.180000 -0.500000
v 0.500000 1.180000 0.300000
v -0.500000 1.180000 0.300000
v 0.500000 0.000000 0.500000
v -0.500000 0.000000 0.500000
v -0.440000 1.180000 -0.460000
v -0.440000 1.300000 -0.460000
v 0.340000 1.300000 -0.460000
v 0.340000 1.180000 -0.460000
v -0.440000 1.180000 0.240000
v 0.340000 1.180000 0.240000
v 0.340000 1.300000 0.240000
v -0.440000 1.300000 0.240000
vn -0.0000 -0.0000 -1.0000
vn -0.0000 -0.0000 1.0000
vn -1.0000 -0.0000 -0.0000
vn 1.0000 -0.0000 -0.0000
vn -0.0000 -1.0000 -0.0000
vn -0.0000 1.0000 -0.0000
vn -0.0000 0.1671 0.9859
vt 0.937500 0.937500
vt 0.062500 0.812500
vt 0.812500 0.937500
s 0
usemtl inkbox_entity_atlas
f 1/1/1 2/1/1 3/1/1 4/1/1
f 5/1/2 6/1/2 7/1/2 8/1/2
f 1/1/3 5/1/3 8/1/3 2/1/3
f 4/1/4 3/1/4 7/1/4 6/1/4
f 1/1/5 4/1/5 6/1/5 5/1/5
f 2/2/6 8/2/6 7/2/6 3/2/6
f 2/3/1 9/3/1 10/3/1 3/3/1
f 8/3/2 7/3/2 11/3/2 12/3/2
f 2/3/3 8/3/3 12/3/3 9/3/3
f 3/3/4 10/3/4 11/3/4 7/3/4
f 9/3/6 12/3/6 11/3/6 10/3/6
f 9/3/1 13/3/1 14/3/1 10/3/1
f 12/1/2 11/1/2 15/1/2 16/1/2
f 9/1/3 12/1/3 16/1/3 13/1/3
f 10/1/4 14/1/4 15/1/4 11/1/4
f 13/1/6 16/1/6 15/1/6 14/1/6
f 13/1/1 17/1/1 18/1/1 14/1/1
f 16/2/2 15/2/2 19/2/2 20/2/2
f 13/3/3 16/3/3 20/3/3 17/3/3
f 14/3/4 18/3/4 19/3/4 15/3/4
f 17/3/6 20/3/6 19/3/6 18/3/6
f 5/3/5 6/3/5 21/3/5 22/3/5
f 5/3/1 20/3/1 19/3/1 6/3/1
f 20/3/7 22/3/7 21/3/7 19/3/7
f 20/1/3 5/1/3 22/1/3
f 19/1/4 21/1/4 6/1/4
f 23/2/1 24/2/1 25/2/1 26/2/1
f 27/1/2 28/1/2 29/1/2 30/1/2
f 23/1/3 27/1/3 30/1/3 24/1/3
f 26/2/4 25/2/4 29/2/4 28/2/4
f 23/2/5 26/2/5 28/2/5 27/2/5
f 24/2/6 30/2/6 29/2/6 25/2/6
