# Blender 5.2.0 LTS
# www.blender.org
mtllib terr_slab.mtl
o terr_slab
v -0.500000 0.000000 -0.500000
v -0.500000 0.100000 -0.500000
v 0.500000 0.100000 -0.500000
v 0.500000 0.000000 -0.500000
v -0.500000 0.000000 0.500000
v 0.500000 0.000000 0.500000
v 0.500000 0.100000 0.500000
v -0.500000 0.100000 0.500000
v -0.460000 0.100000 -0.460000
v -0.460000 0.160000 -0.460000
v 0.460000 0.160000 -0.460000
v 0.460000 0.100000 -0.460000
v -0.460000 0.100000 0.460000
v 0.460000 0.100000 0.460000
v 0.460000 0.160000 0.460000
v -0.460000 0.160000 0.460000
v -0.100000 0.160000 -0.500000
v -0.100000 0.200000 -0.500000
v 0.100000 0.200000 -0.500000
v 0.100000 0.160000 -0.500000
v -0.100000 0.160000 0.500000
v 0.100000 0.160000 0.500000
v 0.100000 0.200000 0.500000
v -0.100000 0.200000 0.500000
vn -0.0000 -0.0000 -1.0000
vn -0.0000 -0.0000 1.0000
vn -1.0000 -0.0000 -0.0000
vn 1.0000 -0.0000 -0.0000
vn -0.0000 -1.0000 -0.0000
vn -0.0000 1.0000 -0.0000
vt 0.937500 0.937500
vt 0.062500 0.812500
vt 0.812500 0.937500
s 0
usemtl inkbox_entity_atlas
f 1/1/1 2/1/1 3/1/1 4/1/1
f 5/1/2 6/1/2 7/1/2 8/1/2
f 1/1/3 5/1/3 8/1/3 2/1/3
f 4/1/4 3/1/4 7/1/4 6/1/4
f 1/1/5 4/1/5 6/1/5 5/1/5
f 2/2/6 8/2/6 7/2/6 3/2/6
f 9/2/1 10/2/1 11/2/1 12/2/1
f 13/2/2 14/2/2 15/2/2 16/2/2
f 9/2/3 13/2/3 16/2/3 10/2/3
f 12/2/4 11/2/4 15/2/4 14/2/4
f 9/2/5 12/2/5 14/2/5 13/2/5
f 10/1/6 16/1/6 15/1/6 11/1/6
f 17/3/1 18/3/1 19/3/1 20/3/1
f 21/3/2 22/3/2 23/3/2 24/3/2
f 17/3/3 21/3/3 24/3/3 18/3/3
f 20/3/4 19/3/4 23/3/4 22/3/4
f 17/3/5 20/3/5 22/3/5 21/3/5
f 18/3/6 24/3/6 23/3/6 19/3/6
