# Blender 5.2.0 LTS
# www.blender.org
mtllib terr_lair.mtl
o terr_lair
v -0.560000 0.000000 -0.300000
v -0.380000 0.000000 0.440000
v -0.280000 0.460000 0.360000
v -0.440000 0.460000 -0.220000
v -0.160000 0.920000 0.000000
v 0.120000 0.000000 0.520000
v 0.100000 0.460000 0.420000
v 0.540000 0.000000 0.220000
v 0.540000 0.460000 0.220000
v 0.540000 0.000000 -0.480000
v 0.540000 0.460000 -0.400000
v -0.140000 0.000000 -0.480000
v -0.140000 0.460000 -0.400000
v 0.000000 0.020000 -0.500000
v 0.000000 0.300000 -0.500000
v 0.460000 0.300000 -0.500000
v 0.460000 0.020000 -0.500000
v 0.000000 0.020000 -0.420000
v 0.460000 0.020000 -0.420000
v 0.460000 0.300000 -0.420000
v 0.000000 0.300000 -0.420000
v 0.060000 0.020000 -0.495000
v 0.060000 0.240000 -0.495000
v 0.520000 0.240000 -0.495000
v 0.520000 0.020000 -0.495000
v 0.060000 0.020000 -0.430000
v 0.520000 0.020000 -0.430000
v 0.520000 0.240000 -0.430000
v 0.060000 0.240000 -0.430000
v -0.080000 0.020000 -0.498000
v -0.080000 0.200000 -0.498000
v 0.200000 0.200000 -0.498000
v 0.200000 0.020000 -0.498000
v -0.080000 0.020000 -0.440000
v 0.200000 0.020000 -0.440000
v 0.200000 0.200000 -0.440000
v -0.080000 0.200000 -0.440000
v 0.020000 0.300000 -0.520000
v 0.020000 0.380000 -0.520000
v 0.500000 0.380000 -0.520000
v 0.500000 0.300000 -0.520000
v 0.020000 0.300000 -0.380000
v 0.500000 0.300000 -0.380000
v 0.500000 0.380000 -0.380000
v 0.020000 0.380000 -0.380000
v 0.542000 0.282000 -0.180000
v 0.542000 0.398000 -0.218000
v 0.542000 0.398000 -0.182000
v 0.542000 0.282000 -0.144000
v 0.542000 0.172000 -0.040000
v 0.542000 0.288000 -0.078000
v 0.542000 0.288000 -0.042000
v 0.542000 0.172000 -0.004000
v 0.542000 0.062000 0.100000
v 0.542000 0.178000 0.062000
v 0.542000 0.178000 0.098000
v 0.542000 0.062000 0.136000
v -0.400000 0.000000 -0.760000
v -0.400000 0.040000 -0.760000
v 0.400000 0.040000 -0.760000
v 0.400000 0.000000 -0.760000
v -0.400000 0.000000 -0.460000
v 0.400000 0.000000 -0.460000
v 0.400000 0.040000 -0.460000
v -0.400000 0.040000 -0.460000
v -0.180000 0.045000 -0.700000
v -0.180000 0.045000 -0.655000
v -0.130000 0.045000 -0.655000
v -0.130000 0.045000 -0.700000
v -0.080000 0.045000 -0.670000
v -0.080000 0.045000 -0.625000
v -0.030000 0.045000 -0.625000
v -0.030000 0.045000 -0.670000
v 0.020000 0.045000 -0.640000
v 0.020000 0.045000 -0.595000
v 0.070000 0.045000 -0.595000
v 0.070000 0.045000 -0.640000
v 0.120000 0.040000 -0.720000
v 0.120000 0.075000 -0.720000
v 0.340000 0.075000 -0.720000
v 0.340000 0.040000 -0.720000
v 0.120000 0.040000 -0.685000
v 0.340000 0.040000 -0.685000
v 0.340000 0.075000 -0.685000
v 0.120000 0.075000 -0.685000
v 0.160000 0.075000 -0.705000
v 0.160000 0.100000 -0.705000
v 0.220000 0.100000 -0.705000
v 0.220000 0.075000 -0.705000
v 0.160000 0.075000 -0.685000
v 0.220000 0.075000 -0.685000
v 0.220000 0.100000 -0.685000
v 0.160000 0.100000 -0.685000
v -0.020000 0.040000 -0.630000
v -0.020000 0.068000 -0.630000
v 0.120000 0.068000 -0.630000
v 0.120000 0.040000 -0.630000
v -0.020000 0.040000 -0.600000
v 0.120000 0.040000 -0.600000
v 0.120000 0.068000 -0.600000
v -0.020000 0.068000 -0.600000
v 0.340000 0.040000 -0.620000
v 0.340000 0.062000 -0.620000
v 0.440000 0.062000 -0.620000
v 0.440000 0.040000 -0.620000
v 0.340000 0.040000 -0.585000
v 0.440000 0.040000 -0.585000
v 0.440000 0.062000 -0.585000
v 0.340000 0.062000 -0.585000
v -0.480000 0.000000 -0.680000
v -0.480000 0.100000 -0.680000
v -0.340000 0.100000 -0.680000
v -0.340000 0.000000 -0.680000
v -0.480000 0.000000 -0.540000
v -0.340000 0.000000 -0.540000
v -0.340000 0.100000 -0.540000
v -0.480000 0.100000 -0.540000
v 0.400000 0.000000 -0.720000
v 0.400000 0.070000 -0.720000
v 0.500000 0.070000 -0.720000
v 0.500000 0.000000 -0.720000
v 0.400000 0.000000 -0.620000
v 0.500000 0.000000 -0.620000
v 0.500000 0.070000 -0.620000
v 0.400000 0.070000 -0.620000
vn -0.9434 0.2256 0.2430
vn 0.8759 -0.4176 -0.2416
vn -0.1539 0.2026 0.9671
vn 0.1210 -0.6312 -0.7662
vn 0.4999 0.1043 0.8598
vn -0.2832 -0.7290 -0.6231
vn 1.0000 -0.0000 -0.0000
vn -0.5492 -0.8357 -0.0000
vn -0.0000 0.1713 -0.9852
vn -0.0000 -0.6562 0.7546
vn -0.4373 0.2092 -0.8746
vn 0.4169 -0.5861 0.6948
vn -0.0000 -1.0000 -0.0000
vn -0.0000 -0.0000 -1.0000
vn -0.0000 -0.0000 1.0000
vn -1.0000 -0.0000 -0.0000
vn -0.0000 1.0000 -0.0000
vt 0.937500 0.937500
vt 0.062500 0.812500
vt 0.562500 0.937500
vt 0.437500 0.812500
vt 0.437500 0.562500
s 0
usemtl inkbox_entity_atlas
f 1/1/1 2/1/1 3/1/1 4/1/1
f 4/2/2 5/2/2 3/2/2
f 2/1/3 6/1/3 7/1/3 3/1/3
f 3/2/4 5/2/4 7/2/4
f 6/1/5 8/1/5 9/1/5 7/1/5
f 7/2/6 5/2/6 9/2/6
f 8/1/7 10/1/7 11/1/7 9/1/7
f 9/2/8 5/2/8 11/2/8
f 10/1/9 12/1/9 13/1/9 11/1/9
f 11/2/10 5/2/10 13/2/10
f 12/1/11 1/1/11 4/1/11 13/1/11
f 13/2/12 5/2/12 4/2/12
f 12/2/13 10/2/13 8/2/13 6/2/13 2/2/13 1/2/13
f 14/3/14 15/3/14 16/3/14 17/3/14
f 18/3/15 19/3/15 20/3/15 21/3/15
f 14/3/16 18/3/16 21/3/16 15/3/16
f 17/3/7 16/3/7 20/3/7 19/3/7
f 14/3/13 17/3/13 19/3/13 18/3/13
f 15/3/17 21/3/17 20/3/17 16/3/17
f 22/3/14 23/3/14 24/3/14 25/3/14
f 26/3/15 27/3/15 28/3/15 29/3/15
f 22/3/16 26/3/16 29/3/16 23/3/16
f 25/3/7 24/3/7 28/3/7 27/3/7
f 22/3/13 25/3/13 27/3/13 26/3/13
f 23/3/17 29/3/17 28/3/17 24/3/17
f 30/3/14 31/3/14 32/3/14 33/3/14
f 34/3/15 35/3/15 36/3/15 37/3/15
f 30/3/16 34/3/16 37/3/16 31/3/16
f 33/3/7 32/3/7 36/3/7 35/3/7
f 30/3/13 33/3/13 35/3/13 34/3/13
f 31/3/17 37/3/17 36/3/17 32/3/17
f 38/2/14 39/2/14 40/2/14 41/2/14
f 42/2/15 43/2/15 44/2/15 45/2/15
f 38/2/16 42/2/16 45/2/16 39/2/16
f 41/2/7 40/2/7 44/2/7 43/2/7
f 38/2/13 41/2/13 43/2/13 42/2/13
f 39/2/17 45/2/17 44/2/17 40/2/17
f 46/3/7 47/3/7 48/3/7 49/3/7
f 50/3/7 51/3/7 52/3/7 53/3/7
f 54/3/7 55/3/7 56/3/7 57/3/7
f 58/4/14 59/4/14 60/4/14 61/4/14
f 62/4/15 63/4/15 64/4/15 65/4/15
f 58/4/16 62/4/16 65/4/16 59/4/16
f 61/4/7 60/4/7 64/4/7 63/4/7
f 58/4/13 61/4/13 63/4/13 62/4/13
f 59/4/17 65/4/17 64/4/17 60/4/17
f 66/3/17 67/3/17 68/3/17 69/3/17
f 70/3/17 71/3/17 72/3/17 73/3/17
f 74/3/17 75/3/17 76/3/17 77/3/17
f 78/5/14 79/5/14 80/5/14 81/5/14
f 82/5/15 83/5/15 84/5/15 85/5/15
f 78/5/16 82/5/16 85/5/16 79/5/16
f 81/5/7 80/5/7 84/5/7 83/5/7
f 78/5/13 81/5/13 83/5/13 82/5/13
f 79/5/17 85/5/17 84/5/17 80/5/17
f 86/5/14 87/5/14 88/5/14 89/5/14
f 90/5/15 91/5/15 92/5/15 93/5/15
f 86/5/16 90/5/16 93/5/16 87/5/16
f 89/5/7 88/5/7 92/5/7 91/5/7
f 86/5/13 89/5/13 91/5/13 90/5/13
f 87/5/17 93/5/17 92/5/17 88/5/17
f 94/5/14 95/5/14 96/5/14 97/5/14
f 98/5/15 99/5/15 100/5/15 101/5/15
f 94/5/16 98/5/16 101/5/16 95/5/16
f 97/5/7 96/5/7 100/5/7 99/5/7
f 94/5/13 97/5/13 99/5/13 98/5/13
f 95/5/17 101/5/17 100/5/17 96/5/17
f 102/5/14 103/5/14 104/5/14 105/5/14
f 106/5/15 107/5/15 108/5/15 109/5/15
f 102/5/16 106/5/16 109/5/16 103/5/16
f 105/5/7 104/5/7 108/5/7 107/5/7
f 102/5/13 105/5/13 107/5/13 106/5/13
f 103/5/17 109/5/17 108/5/17 104/5/17
f 110/2/14 111/2/14 112/2/14 113/2/14
f 114/2/15 115/2/15 116/2/15 117/2/15
f 110/2/16 114/2/16 117/2/16 111/2/16
f 113/2/7 112/2/7 116/2/7 115/2/7
f 110/2/13 113/2/13 115/2/13 114/2/13
f 111/1/17 117/1/17 116/1/17 112/1/17
f 118/2/14 119/2/14 120/2/14 121/2/14
f 122/2/15 123/2/15 124/2/15 125/2/15
f 118/2/16 122/2/16 125/2/16 119/2/16
f 121/2/7 120/2/7 124/2/7 123/2/7
f 118/2/13 121/2/13 123/2/13 122/2/13
f 119/1/17 125/1/17 124/1/17 120/1/17
