# Blender 5.2.0 LTS
# www.blender.org
mtllib terr_ancientroad.mtl
o terr_ancientroad
v -0.500000 0.000000 -0.500000
v -0.500000 0.050000 -0.500000
v 0.500000 0.050000 -0.500000
v 0.500000 0.000000 -0.500000
v -0.500000 0.000000 0.500000
v 0.500000 0.000000 0.500000
v 0.500000 0.050000 0.500000
v -0.500000 0.050000 0.500000
v -0.340000 0.050000 -0.500000
v -0.340000 0.110000 -0.500000
v 0.340000 0.110000 -0.500000
v 0.340000 0.050000 -0.500000
v -0.340000 0.050000 0.300000
v 0.340000 0.050000 0.300000
v 0.340000 0.110000 0.300000
v -0.340000 0.110000 0.300000
v -0.200000 0.110000 -0.500000
v -0.200000 0.125000 -0.500000
v -0.140000 0.125000 -0.500000
v -0.140000 0.110000 -0.500000
v -0.200000 0.110000 0.300000
v -0.140000 0.110000 0.300000
v -0.140000 0.125000 0.300000
v -0.200000 0.125000 0.300000
v 0.120000 0.110000 -0.500000
v 0.120000 0.125000 -0.500000
v 0.180000 0.125000 -0.500000
v 0.180000 0.110000 -0.500000
v 0.120000 0.110000 0.300000
v 0.180000 0.110000 0.300000
v 0.180000 0.125000 0.300000
v 0.120000 0.125000 0.300000
v -0.300000 0.050000 0.340000
v -0.300000 0.100000 0.340000
v -0.140000 0.100000 0.340000
v -0.140000 0.050000 0.340000
v -0.300000 0.050000 0.460000
v -0.140000 0.050000 0.460000
v -0.140000 0.100000 0.460000
v -0.300000 0.100000 0.460000
v 0.040000 0.050000 0.380000
v 0.040000 0.080000 0.380000
v 0.220000 0.080000 0.380000
v 0.220000 0.050000 0.380000
v 0.040000 0.050000 0.480000
v 0.220000 0.050000 0.480000
v 0.220000 0.080000 0.480000
v 0.040000 0.080000 0.480000
v -0.440000 0.000000 0.280000
v -0.440000 0.140000 0.280000
v -0.380000 0.140000 0.280000
v -0.380000 0.000000 0.280000
v -0.440000 0.000000 0.340000
v -0.380000 0.000000 0.340000
v -0.380000 0.140000 0.340000
v -0.440000 0.140000 0.340000
v 0.440000 0.000000 -0.240000
v 0.440000 0.140000 -0.240000
v 0.500000 0.140000 -0.240000
v 0.500000 0.000000 -0.240000
v 0.440000 0.000000 -0.180000
v 0.500000 0.000000 -0.180000
v 0.500000 0.140000 -0.180000
v 0.440000 0.140000 -0.180000
v -0.460000 0.000000 -0.440000
v -0.460000 0.140000 -0.440000
v -0.400000 0.140000 -0.440000
v -0.400000 0.000000 -0.440000
v -0.460000 0.000000 -0.380000
v -0.400000 0.000000 -0.380000
v -0.400000 0.140000 -0.380000
v -0.460000 0.140000 -0.380000
vn -0.0000 -0.0000 -1.0000
vn -0.0000 -0.0000 1.0000
vn -1.0000 -0.0000 -0.0000
vn 1.0000 -0.0000 -0.0000
vn -0.0000 -1.0000 -0.0000
vn -0.0000 1.0000 -0.0000
vt 0.437500 0.812500
vt 0.062500 0.812500
vt 0.937500 0.937500
vt 0.687500 0.937500
vt 0.312500 0.687500
s 0
usemtl inkbox_entity_atlas
f 1/1/1 2/1/1 3/1/1 4/1/1
f 5/1/2 6/1/2 7/1/2 8/1/2
f 1/1/3 5/1/3 8/1/3 2/1/3
f 4/1/4 3/1/4 7/1/4 6/1/4
f 1/1/5 4/1/5 6/1/5 5/1/5
f 2/1/6 8/1/6 7/1/6 3/1/6
f 9/2/1 10/2/1 11/2/1 12/2/1
f 13/2/2 14/2/2 15/2/2 16/2/2
f 9/2/3 13/2/3 16/2/3 10/2/3
f 12/2/4 11/2/4 15/2/4 14/2/4
f 9/3/5 12/3/5 14/3/5 13/3/5
f 10/2/6 16/2/6 15/2/6 11/2/6
f 17/2/1 18/2/1 19/2/1 20/2/1
f 21/2/2 22/2/2 23/2/2 24/2/2
f 17/2/3 21/2/3 24/2/3 18/2/3
f 20/2/4 19/2/4 23/2/4 22/2/4
f 17/2/5 20/2/5 22/2/5 21/2/5
f 18/4/6 24/4/6 23/4/6 19/4/6
f 25/2/1 26/2/1 27/2/1 28/2/1
f 29/2/2 30/2/2 31/2/2 32/2/2
f 25/2/3 29/2/3 32/2/3 26/2/3
f 28/2/4 27/2/4 31/2/4 30/2/4
f 25/2/5 28/2/5 30/2/5 29/2/5
f 26/4/6 32/4/6 31/4/6 27/4/6
f 33/2/1 34/2/1 35/2/1 36/2/1
f 37/2/2 38/2/2 39/2/2 40/2/2
f 33/2/3 37/2/3 40/2/3 34/2/3
f 36/2/4 35/2/4 39/2/4 38/2/4
f 33/2/5 36/2/5 38/2/5 37/2/5
f 34/3/6 40/3/6 39/3/6 35/3/6
f 41/2/1 42/2/1 43/2/1 44/2/1
f 45/2/2 46/2/2 47/2/2 48/2/2
f 41/2/3 45/2/3 48/2/3 42/2/3
f 44/2/4 43/2/4 47/2/4 46/2/4
f 41/2/5 44/2/5 46/2/5 45/2/5
f 42/3/6 48/3/6 47/3/6 43/3/6
f 49/5/1 50/5/1 51/5/1 52/5/1
f 53/5/2 54/5/2 55/5/2 56/5/2
f 49/5/3 53/5/3 56/5/3 50/5/3
f 52/5/4 51/5/4 55/5/4 54/5/4
f 49/5/5 52/5/5 54/5/5 53/5/5
f 50/5/6 56/5/6 55/5/6 51/5/6
f 57/5/1 58/5/1 59/5/1 60/5/1
f 61/5/2 62/5/2 63/5/2 64/5/2
f 57/5/3 61/5/3 64/5/3 58/5/3
f 60/5/4 59/5/4 63/5/4 62/5/4
f 57/5/5 60/5/5 62/5/5 61/5/5
f 58/5/6 64/5/6 63/5/6 59/5/6
f 65/5/1 66/5/1 67/5/1 68/5/1
f 69/5/2 70/5/2 71/5/2 72/5/2
f 65/5/3 69/5/3 72/5/3 66/5/3
f 68/5/4 67/5/4 71/5/4 70/5/4
f 65/5/5 68/5/5 70/5/5 69/5/5
f 66/5/6 72/5/6 71/5/6 67/5/6
