# Blender 5.2.0 LTS
# www.blender.org
mtllib terr_spiritfield.mtl
o terr_spiritfield
v -0.500000 0.000000 -0.500000
v -0.500000 0.050000 -0.500000
v 0.500000 0.050000 -0.500000
v 0.500000 0.000000 -0.500000
v -0.500000 0.000000 0.500000
v 0.500000 0.000000 0.500000
v 0.500000 0.050000 0.500000
v -0.500000 0.050000 0.500000
v -0.440000 0.050000 -0.440000
v -0.440000 0.075000 -0.440000
v 0.440000 0.075000 -0.440000
v 0.440000 0.050000 -0.440000
v -0.440000 0.050000 -0.360000
v 0.440000 0.050000 -0.360000
v 0.440000 0.075000 -0.360000
v -0.440000 0.075000 -0.360000
v -0.440000 0.050000 -0.340000
v -0.440000 0.075000 -0.340000
v 0.440000 0.075000 -0.340000
v 0.440000 0.050000 -0.340000
v -0.440000 0.050000 -0.260000
v 0.440000 0.050000 -0.260000
v 0.440000 0.075000 -0.260000
v -0.440000 0.075000 -0.260000
v -0.440000 0.050000 -0.240000
v -0.440000 0.075000 -0.240000
v 0.440000 0.075000 -0.240000
v 0.440000 0.050000 -0.240000
v -0.440000 0.050000 -0.160000
v 0.440000 0.050000 -0.160000
v 0.440000 0.075000 -0.160000
v -0.440000 0.075000 -0.160000
v -0.440000 0.050000 -0.140000
v -0.440000 0.075000 -0.140000
v 0.440000 0.075000 -0.140000
v 0.440000 0.050000 -0.140000
v -0.440000 0.050000 -0.060000
v 0.440000 0.050000 -0.060000
v 0.440000 0.075000 -0.060000
v -0.440000 0.075000 -0.060000
v -0.440000 0.050000 -0.040000
v -0.440000 0.075000 -0.040000
v 0.440000 0.075000 -0.040000
v 0.440000 0.050000 -0.040000
v -0.440000 0.050000 0.040000
v 0.440000 0.050000 0.040000
v 0.440000 0.075000 0.040000
v -0.440000 0.075000 0.040000
v -0.440000 0.050000 0.060000
v -0.440000 0.075000 0.060000
v 0.440000 0.075000 0.060000
v 0.440000 0.050000 0.060000
v -0.440000 0.050000 0.140000
v 0.440000 0.050000 0.140000
v 0.440000 0.075000 0.140000
v -0.440000 0.075000 0.140000
v -0.440000 0.050000 0.160000
v -0.440000 0.075000 0.160000
v 0.440000 0.075000 0.160000
v 0.440000 0.050000 0.160000
v -0.440000 0.050000 0.240000
v 0.440000 0.050000 0.240000
v 0.440000 0.075000 0.240000
v -0.440000 0.075000 0.240000
v -0.440000 0.050000 0.260000
v -0.440000 0.075000 0.260000
v 0.440000 0.075000 0.260000
v 0.440000 0.050000 0.260000
v -0.440000 0.050000 0.340000
v 0.440000 0.050000 0.340000
v 0.440000 0.075000 0.340000
v -0.440000 0.075000 0.340000
v -0.440000 0.050000 0.360000
v -0.440000 0.075000 0.360000
v 0.440000 0.075000 0.360000
v 0.440000 0.050000 0.360000
v -0.440000 0.050000 0.440000
v 0.440000 0.050000 0.440000
v 0.440000 0.075000 0.440000
v -0.440000 0.075000 0.440000
v -0.440000 0.065000 0.440000
v 0.440000 0.065000 0.440000
v -0.440000 0.050000 0.500000
v 0.440000 0.050000 0.500000
v 0.440000 0.065000 0.500000
v -0.440000 0.065000 0.500000
v 0.300000 0.075000 -0.420000
v 0.300000 0.120000 -0.420000
v 0.330000 0.120000 -0.420000
v 0.330000 0.075000 -0.420000
v 0.300000 0.075000 -0.390000
v 0.330000 0.075000 -0.390000
v 0.330000 0.120000 -0.390000
v 0.300000 0.120000 -0.390000
v 0.350000 0.075000 -0.350000
v 0.350000 0.145000 -0.350000
v 0.380000 0.145000 -0.350000
v 0.380000 0.075000 -0.350000
v 0.350000 0.075000 -0.320000
v 0.380000 0.075000 -0.320000
v 0.380000 0.145000 -0.320000
v 0.350000 0.145000 -0.320000
v 0.400000 0.075000 -0.280000
v 0.400000 0.127000 -0.280000
v 0.430000 0.127000 -0.280000
v 0.430000 0.075000 -0.280000
v 0.400000 0.075000 -0.250000
v 0.430000 0.075000 -0.250000
v 0.430000 0.127000 -0.250000
v 0.400000 0.127000 -0.250000
vn -0.0000 -0.0000 -1.0000
vn -0.0000 -0.0000 1.0000
vn -1.0000 -0.0000 -0.0000
vn 1.0000 -0.0000 -0.0000
vn -0.0000 -1.0000 -0.0000
vn -0.0000 1.0000 -0.0000
vt 0.437500 0.812500
vt 0.187500 0.687500
vt 0.312500 0.687500
vt 0.062500 0.687500
vt 0.937500 0.812500
s 0
usemtl inkbox_entity_atlas
f 1/1/1 2/1/1 3/1/1 4/1/1
f 5/1/2 6/1/2 7/1/2 8/1/2
f 1/1/3 5/1/3 8/1/3 2/1/3
f 4/1/4 3/1/4 7/1/4 6/1/4
f 1/1/5 4/1/5 6/1/5 5/1/5
f 2/1/6 8/1/6 7/1/6 3/1/6
f 9/2/1 10/2/1 11/2/1 12/2/1
f 13/2/2 14/2/2 15/2/2 16/2/2
f 9/2/3 13/2/3 16/2/3 10/2/3
f 12/2/4 11/2/4 15/2/4 14/2/4
f 9/2/5 12/2/5 14/2/5 13/2/5
f 10/3/6 16/3/6 15/3/6 11/3/6
f 17/2/1 18/2/1 19/2/1 20/2/1
f 21/2/2 22/2/2 23/2/2 24/2/2
f 17/2/3 21/2/3 24/2/3 18/2/3
f 20/2/4 19/2/4 23/2/4 22/2/4
f 17/2/5 20/2/5 22/2/5 21/2/5
f 18/3/6 24/3/6 23/3/6 19/3/6
f 25/2/1 26/2/1 27/2/1 28/2/1
f 29/2/2 30/2/2 31/2/2 32/2/2
f 25/2/3 29/2/3 32/2/3 26/2/3
f 28/2/4 27/2/4 31/2/4 30/2/4
f 25/2/5 28/2/5 30/2/5 29/2/5
f 26/3/6 32/3/6 31/3/6 27/3/6
f 33/2/1 34/2/1 35/2/1 36/2/1
f 37/2/2 38/2/2 39/2/2 40/2/2
f 33/2/3 37/2/3 40/2/3 34/2/3
f 36/2/4 35/2/4 39/2/4 38/2/4
f 33/2/5 36/2/5 38/2/5 37/2/5
f 34/3/6 40/3/6 39/3/6 35/3/6
f 41/2/1 42/2/1 43/2/1 44/2/1
f 45/2/2 46/2/2 47/2/2 48/2/2
f 41/2/3 45/2/3 48/2/3 42/2/3
f 44/2/4 43/2/4 47/2/4 46/2/4
f 41/2/5 44/2/5 46/2/5 45/2/5
f 42/3/6 48/3/6 47/3/6 43/3/6
f 49/2/1 50/2/1 51/2/1 52/2/1
f 53/2/2 54/2/2 55/2/2 56/2/2
f 49/2/3 53/2/3 56/2/3 50/2/3
f 52/2/4 51/2/4 55/2/4 54/2/4
f 49/2/5 52/2/5 54/2/5 53/2/5
f 50/3/6 56/3/6 55/3/6 51/3/6
f 57/2/1 58/2/1 59/2/1 60/2/1
f 61/2/2 62/2/2 63/2/2 64/2/2
f 57/2/3 61/2/3 64/2/3 58/2/3
f 60/2/4 59/2/4 63/2/4 62/2/4
f 57/2/5 60/2/5 62/2/5 61/2/5
f 58/3/6 64/3/6 63/3/6 59/3/6
f 65/2/1 66/2/1 67/2/1 68/2/1
f 69/2/2 70/2/2 71/2/2 72/2/2
f 65/2/3 69/2/3 72/2/3 66/2/3
f 68/2/4 67/2/4 71/2/4 70/2/4
f 65/2/5 68/2/5 70/2/5 69/2/5
f 66/3/6 72/3/6 71/3/6 67/3/6
f 73/2/1 74/2/1 75/2/1 76/2/1
f 77/2/2 78/2/2 79/2/2 80/2/2
f 73/2/3 77/2/3 80/2/3 74/2/3
f 76/2/4 75/2/4 79/2/4 78/2/4
f 73/2/5 76/2/5 78/2/5 77/2/5
f 74/3/6 80/3/6 79/3/6 75/3/6
f 77/4/1 81/4/1 82/4/1 78/4/1
f 83/4/2 84/4/2 85/4/2 86/4/2
f 77/4/3 83/4/3 86/4/3 81/4/3
f 78/4/4 82/4/4 85/4/4 84/4/4
f 77/4/5 78/4/5 84/4/5 83/4/5
f 81/5/6 86/5/6 85/5/6 82/5/6
f 87/3/1 88/3/1 89/3/1 90/3/1
f 91/3/2 92/3/2 93/3/2 94/3/2
f 87/3/3 91/3/3 94/3/3 88/3/3
f 90/3/4 89/3/4 93/3/4 92/3/4
f 87/3/5 90/3/5 92/3/5 91/3/5
f 88/3/6 94/3/6 93/3/6 89/3/6
f 95/3/1 96/3/1 97/3/1 98/3/1
f 99/3/2 100/3/2 101/3/2 102/3/2
f 95/3/3 99/3/3 102/3/3 96/3/3
f 98/3/4 97/3/4 101/3/4 100/3/4
f 95/3/5 98/3/5 100/3/5 99/3/5
f 96/3/6 102/3/6 101/3/6 97/3/6
f 103/3/1 104/3/1 105/3/1 106/3/1
f 107/3/2 108/3/2 109/3/2 110/3/2
f 103/3/3 107/3/3 110/3/3 104/3/3
f 106/3/4 105/3/4 109/3/4 108/3/4
f 103/3/5 106/3/5 108/3/5 107/3/5
f 104/3/6 110/3/6 109/3/6 105/3/6
