# Blender 5.2.0 LTS
# www.blender.org
mtllib terr_battlefield.mtl
o terr_battlefield
v -0.500000 0.000000 -0.500000
v -0.500000 0.060000 -0.500000
v 0.500000 0.060000 -0.500000
v 0.500000 0.000000 -0.500000
v -0.500000 0.000000 0.500000
v 0.500000 0.000000 0.500000
v 0.500000 0.060000 0.500000
v -0.500000 0.060000 0.500000
v -0.460000 0.060000 -0.200000
v -0.460000 0.080000 -0.200000
v 0.020000 0.080000 -0.200000
v 0.020000 0.060000 -0.200000
v -0.460000 0.060000 0.260000
v 0.020000 0.060000 0.260000
v 0.020000 0.080000 0.260000
v -0.460000 0.080000 0.260000
v -0.060000 0.060000 -0.340000
v -0.060000 0.080000 -0.340000
v 0.400000 0.080000 -0.340000
v 0.400000 0.060000 -0.340000
v -0.060000 0.060000 0.060000
v 0.400000 0.060000 0.060000
v 0.400000 0.080000 0.060000
v -0.060000 0.080000 0.060000
v -0.300000 0.060000 0.200000
v -0.300000 0.080000 0.200000
v 0.160000 0.080000 0.200000
v 0.160000 0.060000 0.200000
v -0.300000 0.060000 0.440000
v 0.160000 0.060000 0.440000
v 0.160000 0.080000 0.440000
v -0.300000 0.080000 0.440000
v 0.100000 0.060000 0.140000
v 0.100000 0.080000 0.140000
v 0.460000 0.080000 0.140000
v 0.460000 0.060000 0.140000
v 0.100000 0.060000 0.420000
v 0.460000 0.060000 0.420000
v 0.460000 0.080000 0.420000
v 0.100000 0.080000 0.420000
v -0.030000 0.080000 -0.030000
v -0.030000 0.740000 -0.030000
v 0.030000 0.740000 -0.030000
v 0.030000 0.080000 -0.030000
v -0.030000 0.080000 0.030000
v 0.030000 0.080000 0.030000
v 0.030000 0.740000 0.030000
v -0.030000 0.740000 0.030000
v 0.030000 0.460000 -0.030000
v 0.030000 0.680000 -0.030000
v 0.260000 0.680000 -0.030000
v 0.260000 0.460000 -0.030000
v 0.030000 0.460000 0.010000
v 0.260000 0.460000 0.010000
v 0.260000 0.680000 0.010000
v 0.030000 0.680000 0.010000
v 0.260000 0.520000 -0.030000
v 0.260000 0.620000 -0.030000
v 0.340000 0.620000 -0.030000
v 0.340000 0.520000 -0.030000
v 0.260000 0.520000 0.010000
v 0.340000 0.520000 0.010000
v 0.340000 0.620000 0.010000
v 0.260000 0.620000 0.010000
v -0.340000 0.080000 -0.300000
v -0.340000 0.560000 -0.300000
v -0.290000 0.560000 -0.300000
v -0.290000 0.080000 -0.300000
v -0.340000 0.080000 -0.250000
v -0.290000 0.080000 -0.250000
v -0.290000 0.560000 -0.250000
v -0.340000 0.560000 -0.250000
v -0.180000 0.080000 0.340000
v -0.180000 0.420000 0.340000
v -0.130000 0.420000 0.340000
v -0.130000 0.080000 0.340000
v -0.180000 0.080000 0.390000
v -0.130000 0.080000 0.390000
v -0.130000 0.420000 0.390000
v -0.180000 0.420000 0.390000
v 0.340000 0.080000 0.280000
v 0.340000 0.480000 0.280000
v 0.390000 0.480000 0.280000
v 0.390000 0.080000 0.280000
v 0.340000 0.080000 0.330000
v 0.390000 0.080000 0.330000
v 0.390000 0.480000 0.330000
v 0.340000 0.480000 0.330000
v -0.410000 0.480000 -0.310000
v -0.410000 0.520000 -0.310000
v -0.230000 0.520000 -0.310000
v -0.230000 0.480000 -0.310000
v -0.410000 0.480000 -0.270000
v -0.230000 0.480000 -0.270000
v -0.230000 0.520000 -0.270000
v -0.410000 0.520000 -0.270000
v 0.300000 0.400000 0.270000
v 0.300000 0.460000 0.270000
v 0.430000 0.460000 0.270000
v 0.430000 0.400000 0.270000
v 0.300000 0.400000 0.330000
v 0.430000 0.400000 0.330000
v 0.430000 0.460000 0.330000
v 0.300000 0.460000 0.330000
v 0.100000 0.080000 -0.460000
v 0.100000 0.110000 -0.460000
v 0.260000 0.110000 -0.460000
v 0.260000 0.080000 -0.460000
v 0.100000 0.080000 -0.410000
v 0.260000 0.080000 -0.410000
v 0.260000 0.110000 -0.410000
v 0.100000 0.110000 -0.410000
v 0.160000 0.080000 -0.380000
v 0.160000 0.100000 -0.380000
v 0.200000 0.100000 -0.380000
v 0.200000 0.080000 -0.380000
v 0.160000 0.080000 -0.240000
v 0.200000 0.080000 -0.240000
v 0.200000 0.100000 -0.240000
v 0.160000 0.100000 -0.240000
v -0.460000 0.080000 0.040000
v -0.460000 0.110000 0.040000
v -0.300000 0.110000 0.040000
v -0.300000 0.080000 0.040000
v -0.460000 0.080000 0.090000
v -0.300000 0.080000 0.090000
v -0.300000 0.110000 0.090000
v -0.460000 0.110000 0.090000
v 0.300000 0.080000 0.060000
v 0.300000 0.140000 0.060000
v 0.460000 0.140000 0.060000
v 0.460000 0.080000 0.060000
v 0.300000 0.080000 0.240000
v 0.460000 0.080000 0.240000
v 0.460000 0.140000 0.240000
v 0.300000 0.140000 0.240000
vn -0.0000 -0.0000 -1.0000
vn -0.0000 -0.0000 1.0000
vn -1.0000 -0.0000 -0.0000
vn 1.0000 -0.0000 -0.0000
vn -0.0000 -1.0000 -0.0000
vn -0.0000 1.0000 -0.0000
vt 0.437500 0.812500
vt 0.062500 0.812500
vt 0.812500 0.937500
vt 0.312500 0.812500
vt 0.187500 0.812500
vt 0.562500 0.812500
vt 0.687500 0.812500
vt 0.687500 0.937500
vt 0.437500 0.562500
s 0
usemtl inkbox_entity_atlas
f 1/1/1 2/1/1 3/1/1 4/1/1
f 5/1/2 6/1/2 7/1/2 8/1/2
f 1/1/3 5/1/3 8/1/3 2/1/3
f 4/1/4 3/1/4 7/1/4 6/1/4
f 1/1/5 4/1/5 6/1/5 5/1/5
f 2/1/6 8/1/6 7/1/6 3/1/6
f 9/2/1 10/2/1 11/2/1 12/2/1
f 13/2/2 14/2/2 15/2/2 16/2/2
f 9/2/3 13/2/3 16/2/3 10/2/3
f 12/2/4 11/2/4 15/2/4 14/2/4
f 9/2/5 12/2/5 14/2/5 13/2/5
f 10/3/6 16/3/6 15/3/6 11/3/6
f 17/2/1 18/2/1 19/2/1 20/2/1
f 21/2/2 22/2/2 23/2/2 24/2/2
f 17/2/3 21/2/3 24/2/3 18/2/3
f 20/2/4 19/2/4 23/2/4 22/2/4
f 17/2/5 20/2/5 22/2/5 21/2/5
f 18/3/6 24/3/6 23/3/6 19/3/6
f 25/2/1 26/2/1 27/2/1 28/2/1
f 29/2/2 30/2/2 31/2/2 32/2/2
f 25/2/3 29/2/3 32/2/3 26/2/3
f 28/2/4 27/2/4 31/2/4 30/2/4
f 25/2/5 28/2/5 30/2/5 29/2/5
f 26/3/6 32/3/6 31/3/6 27/3/6
f 33/2/1 34/2/1 35/2/1 36/2/1
f 37/2/2 38/2/2 39/2/2 40/2/2
f 33/2/3 37/2/3 40/2/3 34/2/3
f 36/2/4 35/2/4 39/2/4 38/2/4
f 33/2/5 36/2/5 38/2/5 37/2/5
f 34/3/6 40/3/6 39/3/6 35/3/6
f 41/4/1 42/4/1 43/4/1 44/4/1
f 45/4/2 46/4/2 47/4/2 48/4/2
f 41/4/3 45/4/3 48/4/3 42/4/3
f 44/4/4 43/4/4 47/4/4 46/4/4
f 41/4/5 44/4/5 46/4/5 45/4/5
f 42/5/6 48/5/6 47/5/6 43/5/6
f 49/6/1 50/6/1 51/6/1 52/6/1
f 53/6/2 54/6/2 55/6/2 56/6/2
f 49/6/3 53/6/3 56/6/3 50/6/3
f 52/6/4 51/6/4 55/6/4 54/6/4
f 49/6/5 52/6/5 54/6/5 53/6/5
f 50/7/6 56/7/6 55/7/6 51/7/6
f 57/7/1 58/7/1 59/7/1 60/7/1
f 61/7/2 62/7/2 63/7/2 64/7/2
f 57/7/3 61/7/3 64/7/3 58/7/3
f 60/7/4 59/7/4 63/7/4 62/7/4
f 57/7/5 60/7/5 62/7/5 61/7/5
f 58/7/6 64/7/6 63/7/6 59/7/6
f 65/3/1 66/3/1 67/3/1 68/3/1
f 69/3/2 70/3/2 71/3/2 72/3/2
f 65/3/3 69/3/3 72/3/3 66/3/3
f 68/3/4 67/3/4 71/3/4 70/3/4
f 65/3/5 68/3/5 70/3/5 69/3/5
f 66/8/6 72/8/6 71/8/6 67/8/6
f 73/3/1 74/3/1 75/3/1 76/3/1
f 77/3/2 78/3/2 79/3/2 80/3/2
f 73/3/3 77/3/3 80/3/3 74/3/3
f 76/3/4 75/3/4 79/3/4 78/3/4
f 73/3/5 76/3/5 78/3/5 77/3/5
f 74/8/6 80/8/6 79/8/6 75/8/6
f 81/3/1 82/3/1 83/3/1 84/3/1
f 85/3/2 86/3/2 87/3/2 88/3/2
f 81/3/3 85/3/3 88/3/3 82/3/3
f 84/3/4 83/3/4 87/3/4 86/3/4
f 81/3/5 84/3/5 86/3/5 85/3/5
f 82/8/6 88/8/6 87/8/6 83/8/6
f 89/8/1 90/8/1 91/8/1 92/8/1
f 93/8/2 94/8/2 95/8/2 96/8/2
f 89/8/3 93/8/3 96/8/3 90/8/3
f 92/8/4 91/8/4 95/8/4 94/8/4
f 89/8/5 92/8/5 94/8/5 93/8/5
f 90/8/6 96/8/6 95/8/6 91/8/6
f 97/8/1 98/8/1 99/8/1 100/8/1
f 101/8/2 102/8/2 103/8/2 104/8/2
f 97/8/3 101/8/3 104/8/3 98/8/3
f 100/8/4 99/8/4 103/8/4 102/8/4
f 97/8/5 100/8/5 102/8/5 101/8/5
f 98/8/6 104/8/6 103/8/6 99/8/6
f 105/9/1 106/9/1 107/9/1 108/9/1
f 109/9/2 110/9/2 111/9/2 112/9/2
f 105/9/3 109/9/3 112/9/3 106/9/3
f 108/9/4 107/9/4 111/9/4 110/9/4
f 105/9/5 108/9/5 110/9/5 109/9/5
f 106/9/6 112/9/6 111/9/6 107/9/6
f 113/9/1 114/9/1 115/9/1 116/9/1
f 117/9/2 118/9/2 119/9/2 120/9/2
f 113/9/3 117/9/3 120/9/3 114/9/3
f 116/9/4 115/9/4 119/9/4 118/9/4
f 113/9/5 116/9/5 118/9/5 117/9/5
f 114/9/6 120/9/6 119/9/6 115/9/6
f 121/9/1 122/9/1 123/9/1 124/9/1
f 125/9/2 126/9/2 127/9/2 128/9/2
f 121/9/3 125/9/3 128/9/3 122/9/3
f 124/9/4 123/9/4 127/9/4 126/9/4
f 121/9/5 124/9/5 126/9/5 125/9/5
f 122/9/6 128/9/6 127/9/6 123/9/6
f 129/4/1 130/4/1 131/4/1 132/4/1
f 133/4/2 134/4/2 135/4/2 136/4/2
f 129/4/3 133/4/3 136/4/3 130/4/3
f 132/4/4 131/4/4 135/4/4 134/4/4
f 129/4/5 132/4/5 134/4/5 133/4/5
f 130/5/6 136/5/6 135/5/6 131/5/6
