# Blender 5.2.0 LTS
# www.blender.org
mtllib terr_plankwalk.mtl
o terr_plankwalk
v -0.085000 0.000000 -0.524000
v -0.085000 0.380000 -0.524000
v -0.055000 0.380000 -0.524000
v -0.055000 0.000000 -0.524000
v -0.085000 0.000000 -0.476000
v -0.055000 0.000000 -0.476000
v -0.055000 0.380000 -0.476000
v -0.085000 0.380000 -0.476000
v 0.055000 0.000000 -0.524000
v 0.055000 0.380000 -0.524000
v 0.085000 0.380000 -0.524000
v 0.085000 0.000000 -0.524000
v 0.055000 0.000000 -0.476000
v 0.085000 0.000000 -0.476000
v 0.085000 0.380000 -0.476000
v 0.055000 0.380000 -0.476000
v -0.085000 0.130000 -0.524000
v -0.085000 0.180000 -0.524000
v 0.085000 0.180000 -0.524000
v 0.085000 0.130000 -0.524000
v -0.085000 0.130000 -0.476000
v 0.085000 0.130000 -0.476000
v 0.085000 0.180000 -0.476000
v -0.085000 0.180000 -0.476000
v -0.085000 0.000000 -0.194000
v -0.085000 0.380000 -0.194000
v -0.055000 0.380000 -0.194000
v -0.055000 0.000000 -0.194000
v -0.085000 0.000000 -0.146000
v -0.055000 0.000000 -0.146000
v -0.055000 0.380000 -0.146000
v -0.085000 0.380000 -0.146000
v 0.055000 0.000000 -0.194000
v 0.055000 0.380000 -0.194000
v 0.085000 0.380000 -0.194000
v 0.085000 0.000000 -0.194000
v 0.055000 0.000000 -0.146000
v 0.085000 0.000000 -0.146000
v 0.085000 0.380000 -0.146000
v 0.055000 0.380000 -0.146000
v -0.085000 0.130000 -0.194000
v -0.085000 0.180000 -0.194000
v 0.085000 0.180000 -0.194000
v 0.085000 0.130000 -0.194000
v -0.085000 0.130000 -0.146000
v 0.085000 0.130000 -0.146000
v 0.085000 0.180000 -0.146000
v -0.085000 0.180000 -0.146000
v -0.085000 0.000000 0.146000
v -0.085000 0.380000 0.146000
v -0.055000 0.380000 0.146000
v -0.055000 0.000000 0.146000
v -0.085000 0.000000 0.194000
v -0.055000 0.000000 0.194000
v -0.055000 0.380000 0.194000
v -0.085000 0.380000 0.194000
v 0.055000 0.000000 0.146000
v 0.055000 0.380000 0.146000
v 0.085000 0.380000 0.146000
v 0.085000 0.000000 0.146000
v 0.055000 0.000000 0.194000
v 0.085000 0.000000 0.194000
v 0.085000 0.380000 0.194000
v 0.055000 0.380000 0.194000
v -0.085000 0.130000 0.146000
v -0.085000 0.180000 0.146000
v 0.085000 0.180000 0.146000
v 0.085000 0.130000 0.146000
v -0.085000 0.130000 0.194000
v 0.085000 0.130000 0.194000
v 0.085000 0.180000 0.194000
v -0.085000 0.180000 0.194000
v -0.085000 0.000000 0.476000
v -0.085000 0.380000 0.476000
v -0.055000 0.380000 0.476000
v -0.055000 0.000000 0.476000
v -0.085000 0.000000 0.524000
v -0.055000 0.000000 0.524000
v -0.055000 0.380000 0.524000
v -0.085000 0.380000 0.524000
v 0.055000 0.000000 0.476000
v 0.055000 0.380000 0.476000
v 0.085000 0.380000 0.476000
v 0.085000 0.000000 0.476000
v 0.055000 0.000000 0.524000
v 0.085000 0.000000 0.524000
v 0.085000 0.380000 0.524000
v 0.055000 0.380000 0.524000
v -0.085000 0.130000 0.476000
v -0.085000 0.180000 0.476000
v 0.085000 0.180000 0.476000
v 0.085000 0.130000 0.476000
v -0.085000 0.130000 0.524000
v 0.085000 0.130000 0.524000
v 0.085000 0.180000 0.524000
v -0.085000 0.180000 0.524000
v -0.100000 0.380000 -0.560000
v -0.100000 0.440000 -0.560000
v -0.040000 0.440000 -0.560000
v -0.040000 0.380000 -0.560000
v -0.100000 0.380000 0.560000
v -0.040000 0.380000 0.560000
v -0.040000 0.440000 0.560000
v -0.100000 0.440000 0.560000
v 0.040000 0.380000 -0.560000
v 0.040000 0.440000 -0.560000
v 0.100000 0.440000 -0.560000
v 0.100000 0.380000 -0.560000
v 0.040000 0.380000 0.560000
v 0.100000 0.380000 0.560000
v 0.100000 0.440000 0.560000
v 0.040000 0.440000 0.560000
v -0.120000 0.440000 -0.560000
v -0.120000 0.490000 -0.560000
v -0.045000 0.490000 -0.560000
v -0.045000 0.440000 -0.560000
v -0.120000 0.440000 0.560000
v -0.045000 0.440000 0.560000
v -0.045000 0.490000 0.560000
v -0.120000 0.490000 0.560000
v -0.028000 0.440000 -0.560000
v -0.028000 0.490000 -0.560000
v 0.028000 0.490000 -0.560000
v 0.028000 0.440000 -0.560000
v -0.028000 0.440000 0.560000
v 0.028000 0.440000 0.560000
v 0.028000 0.490000 0.560000
v -0.028000 0.490000 0.560000
v 0.045000 0.440000 -0.560000
v 0.045000 0.490000 -0.560000
v 0.120000 0.490000 -0.560000
v 0.120000 0.440000 -0.560000
v 0.045000 0.440000 0.560000
v 0.120000 0.440000 0.560000
v 0.120000 0.490000 0.560000
v 0.045000 0.490000 0.560000
v -0.148000 0.490000 -0.528000
v -0.148000 0.630000 -0.528000
v -0.120000 0.630000 -0.528000
v -0.120000 0.490000 -0.528000
v -0.148000 0.490000 -0.472000
v -0.120000 0.490000 -0.472000
v -0.120000 0.630000 -0.472000
v -0.148000 0.630000 -0.472000
v -0.148000 0.490000 -0.198000
v -0.148000 0.630000 -0.198000
v -0.120000 0.630000 -0.198000
v -0.120000 0.490000 -0.198000
v -0.148000 0.490000 -0.142000
v -0.120000 0.490000 -0.142000
v -0.120000 0.630000 -0.142000
v -0.148000 0.630000 -0.142000
v -0.148000 0.490000 0.142000
v -0.148000 0.630000 0.142000
v -0.120000 0.630000 0.142000
v -0.120000 0.490000 0.142000
v -0.148000 0.490000 0.198000
v -0.120000 0.490000 0.198000
v -0.120000 0.630000 0.198000
v -0.148000 0.630000 0.198000
v -0.148000 0.490000 0.472000
v -0.148000 0.630000 0.472000
v -0.120000 0.630000 0.472000
v -0.120000 0.490000 0.472000
v -0.148000 0.490000 0.528000
v -0.120000 0.490000 0.528000
v -0.120000 0.630000 0.528000
v -0.148000 0.630000 0.528000
v -0.148000 0.630000 -0.560000
v -0.148000 0.665000 -0.560000
v -0.120000 0.665000 -0.560000
v -0.120000 0.630000 -0.560000
v -0.148000 0.630000 0.560000
v -0.120000 0.630000 0.560000
v -0.120000 0.665000 0.560000
v -0.148000 0.665000 0.560000
v 0.120000 0.490000 -0.528000
v 0.120000 0.630000 -0.528000
v 0.148000 0.630000 -0.528000
v 0.148000 0.490000 -0.528000
v 0.120000 0.490000 -0.472000
v 0.148000 0.490000 -0.472000
v 0.148000 0.630000 -0.472000
v 0.120000 0.630000 -0.472000
v 0.120000 0.490000 -0.198000
v 0.120000 0.630000 -0.198000
v 0.148000 0.630000 -0.198000
v 0.148000 0.490000 -0.198000
v 0.120000 0.490000 -0.142000
v 0.148000 0.490000 -0.142000
v 0.148000 0.630000 -0.142000
v 0.120000 0.630000 -0.142000
v 0.120000 0.490000 0.142000
v 0.120000 0.630000 0.142000
v 0.148000 0.630000 0.142000
v 0.148000 0.490000 0.142000
v 0.120000 0.490000 0.198000
v 0.148000 0.490000 0.198000
v 0.148000 0.630000 0.198000
v 0.120000 0.630000 0.198000
v 0.120000 0.490000 0.472000
v 0.120000 0.630000 0.472000
v 0.148000 0.630000 0.472000
v 0.148000 0.490000 0.472000
v 0.120000 0.490000 0.528000
v 0.148000 0.490000 0.528000
v 0.148000 0.630000 0.528000
v 0.120000 0.630000 0.528000
v 0.120000 0.630000 -0.560000
v 0.120000 0.665000 -0.560000
v 0.148000 0.665000 -0.560000
v 0.148000 0.630000 -0.560000
v 0.120000 0.630000 0.560000
v 0.148000 0.630000 0.560000
v 0.148000 0.665000 0.560000
v 0.120000 0.665000 0.560000
vn -0.0000 -0.0000 -1.0000
vn -0.0000 -0.0000 1.0000
vn -1.0000 -0.0000 -0.0000
vn 1.0000 -0.0000 -0.0000
vn -0.0000 -1.0000 -0.0000
vn -0.0000 1.0000 -0.0000
vt 0.312500 0.812500
vt 0.187500 0.812500
s 0
usemtl inkbox_entity_atlas
f 1/1/1 2/1/1 3/1/1 4/1/1
f 5/1/2 6/1/2 7/1/2 8/1/2
f 1/1/3 5/1/3 8/1/3 2/1/3
f 4/1/4 3/1/4 7/1/4 6/1/4
f 1/1/5 4/1/5 6/1/5 5/1/5
f 2/2/6 8/2/6 7/2/6 3/2/6
f 9/1/1 10/1/1 11/1/1 12/1/1
f 13/1/2 14/1/2 15/1/2 16/1/2
f 9/1/3 13/1/3 16/1/3 10/1/3
f 12/1/4 11/1/4 15/1/4 14/1/4
f 9/1/5 12/1/5 14/1/5 13/1/5
f 10/2/6 16/2/6 15/2/6 11/2/6
f 17/1/1 18/1/1 19/1/1 20/1/1
f 21/1/2 22/1/2 23/1/2 24/1/2
f 17/1/3 21/1/3 24/1/3 18/1/3
f 20/1/4 19/1/4 23/1/4 22/1/4
f 17/1/5 20/1/5 22/1/5 21/1/5
f 18/2/6 24/2/6 23/2/6 19/2/6
f 25/1/1 26/1/1 27/1/1 28/1/1
f 29/1/2 30/1/2 31/1/2 32/1/2
f 25/1/3 29/1/3 32/1/3 26/1/3
f 28/1/4 27/1/4 31/1/4 30/1/4
f 25/1/5 28/1/5 30/1/5 29/1/5
f 26/2/6 32/2/6 31/2/6 27/2/6
f 33/1/1 34/1/1 35/1/1 36/1/1
f 37/1/2 38/1/2 39/1/2 40/1/2
f 33/1/3 37/1/3 40/1/3 34/1/3
f 36/1/4 35/1/4 39/1/4 38/1/4
f 33/1/5 36/1/5 38/1/5 37/1/5
f 34/2/6 40/2/6 39/2/6 35/2/6
f 41/1/1 42/1/1 43/1/1 44/1/1
f 45/1/2 46/1/2 47/1/2 48/1/2
f 41/1/3 45/1/3 48/1/3 42/1/3
f 44/1/4 43/1/4 47/1/4 46/1/4
f 41/1/5 44/1/5 46/1/5 45/1/5
f 42/2/6 48/2/6 47/2/6 43/2/6
f 49/1/1 50/1/1 51/1/1 52/1/1
f 53/1/2 54/1/2 55/1/2 56/1/2
f 49/1/3 53/1/3 56/1/3 50/1/3
f 52/1/4 51/1/4 55/1/4 54/1/4
f 49/1/5 52/1/5 54/1/5 53/1/5
f 50/2/6 56/2/6 55/2/6 51/2/6
f 57/1/1 58/1/1 59/1/1 60/1/1
f 61/1/2 62/1/2 63/1/2 64/1/2
f 57/1/3 61/1/3 64/1/3 58/1/3
f 60/1/4 59/1/4 63/1/4 62/1/4
f 57/1/5 60/1/5 62/1/5 61/1/5
f 58/2/6 64/2/6 63/2/6 59/2/6
f 65/1/1 66/1/1 67/1/1 68/1/1
f 69/1/2 70/1/2 71/1/2 72/1/2
f 65/1/3 69/1/3 72/1/3 66/1/3
f 68/1/4 67/1/4 71/1/4 70/1/4
f 65/1/5 68/1/5 70/1/5 69/1/5
f 66/2/6 72/2/6 71/2/6 67/2/6
f 73/1/1 74/1/1 75/1/1 76/1/1
f 77/1/2 78/1/2 79/1/2 80/1/2
f 73/1/3 77/1/3 80/1/3 74/1/3
f 76/1/4 75/1/4 79/1/4 78/1/4
f 73/1/5 76/1/5 78/1/5 77/1/5
f 74/2/6 80/2/6 79/2/6 75/2/6
f 81/1/1 82/1/1 83/1/1 84/1/1
f 85/1/2 86/1/2 87/1/2 88/1/2
f 81/1/3 85/1/3 88/1/3 82/1/3
f 84/1/4 83/1/4 87/1/4 86/1/4
f 81/1/5 84/1/5 86/1/5 85/1/5
f 82/2/6 88/2/6 87/2/6 83/2/6
f 89/1/1 90/1/1 91/1/1 92/1/1
f 93/1/2 94/1/2 95/1/2 96/1/2
f 89/1/3 93/1/3 96/1/3 90/1/3
f 92/1/4 91/1/4 95/1/4 94/1/4
f 89/1/5 92/1/5 94/1/5 93/1/5
f 90/2/6 96/2/6 95/2/6 91/2/6
f 97/1/1 98/1/1 99/1/1 100/1/1
f 101/1/2 102/1/2 103/1/2 104/1/2
f 97/1/3 101/1/3 104/1/3 98/1/3
f 100/1/4 99/1/4 103/1/4 102/1/4
f 97/1/5 100/1/5 102/1/5 101/1/5
f 98/1/6 104/1/6 103/1/6 99/1/6
f 105/1/1 106/1/1 107/1/1 108/1/1
f 109/1/2 110/1/2 111/1/2 112/1/2
f 105/1/3 109/1/3 112/1/3 106/1/3
f 108/1/4 107/1/4 111/1/4 110/1/4
f 105/1/5 108/1/5 110/1/5 109/1/5
f 106/1/6 112/1/6 111/1/6 107/1/6
f 113/2/1 114/2/1 115/2/1 116/2/1
f 117/2/2 118/2/2 119/2/2 120/2/2
f 113/1/3 117/1/3 120/1/3 114/1/3
f 116/1/4 115/1/4 119/1/4 118/1/4
f 113/2/5 116/2/5 118/2/5 117/2/5
f 114/1/6 120/1/6 119/1/6 115/1/6
f 121/2/1 122/2/1 123/2/1 124/2/1
f 125/2/2 126/2/2 127/2/2 128/2/2
f 121/1/3 125/1/3 128/1/3 122/1/3
f 124/1/4 123/1/4 127/1/4 126/1/4
f 121/2/5 124/2/5 126/2/5 125/2/5
f 122/1/6 128/1/6 127/1/6 123/1/6
f 129/2/1 130/2/1 131/2/1 132/2/1
f 133/2/2 134/2/2 135/2/2 136/2/2
f 129/1/3 133/1/3 136/1/3 130/1/3
f 132/1/4 131/1/4 135/1/4 134/1/4
f 129/2/5 132/2/5 134/2/5 133/2/5
f 130/1/6 136/1/6 135/1/6 131/1/6
f 137/1/1 138/1/1 139/1/1 140/1/1
f 141/1/2 142/1/2 143/1/2 144/1/2
f 137/1/3 141/1/3 144/1/3 138/1/3
f 140/1/4 139/1/4 143/1/4 142/1/4
f 137/1/5 140/1/5 142/1/5 141/1/5
f 138/2/6 144/2/6 143/2/6 139/2/6
f 145/1/1 146/1/1 147/1/1 148/1/1
f 149/1/2 150/1/2 151/1/2 152/1/2
f 145/1/3 149/1/3 152/1/3 146/1/3
f 148/1/4 147/1/4 151/1/4 150/1/4
f 145/1/5 148/1/5 150/1/5 149/1/5
f 146/2/6 152/2/6 151/2/6 147/2/6
f 153/1/1 154/1/1 155/1/1 156/1/1
f 157/1/2 158/1/2 159/1/2 160/1/2
f 153/1/3 157/1/3 160/1/3 154/1/3
f 156/1/4 155/1/4 159/1/4 158/1/4
f 153/1/5 156/1/5 158/1/5 157/1/5
f 154/2/6 160/2/6 159/2/6 155/2/6
f 161/1/1 162/1/1 163/1/1 164/1/1
f 165/1/2 166/1/2 167/1/2 168/1/2
f 161/1/3 165/1/3 168/1/3 162/1/3
f 164/1/4 163/1/4 167/1/4 166/1/4
f 161/1/5 164/1/5 166/1/5 165/1/5
f 162/2/6 168/2/6 167/2/6 163/2/6
f 169/1/1 170/1/1 171/1/1 172/1/1
f 173/1/2 174/1/2 175/1/2 176/1/2
f 169/1/3 173/1/3 176/1/3 170/1/3
f 172/1/4 171/1/4 175/1/4 174/1/4
f 169/1/5 172/1/5 174/1/5 173/1/5
f 170/2/6 176/2/6 175/2/6 171/2/6
f 177/1/1 178/1/1 179/1/1 180/1/1
f 181/1/2 182/1/2 183/1/2 184/1/2
f 177/1/3 181/1/3 184/1/3 178/1/3
f 180/1/4 179/1/4 183/1/4 182/1/4
f 177/1/5 180/1/5 182/1/5 181/1/5
f 178/2/6 184/2/6 183/2/6 179/2/6
f 185/1/1 186/1/1 187/1/1 188/1/1
f 189/1/2 190/1/2 191/1/2 192/1/2
f 185/1/3 189/1/3 192/1/3 186/1/3
f 188/1/4 187/1/4 191/1/4 190/1/4
f 185/1/5 188/1/5 190/1/5 189/1/5
f 186/2/6 192/2/6 191/2/6 187/2/6
f 193/1/1 194/1/1 195/1/1 196/1/1
f 197/1/2 198/1/2 199/1/2 200/1/2
f 193/1/3 197/1/3 200/1/3 194/1/3
f 196/1/4 195/1/4 199/1/4 198/1/4
f 193/1/5 196/1/5 198/1/5 197/1/5
f 194/2/6 200/2/6 199/2/6 195/2/6
f 201/1/1 202/1/1 203/1/1 204/1/1
f 205/1/2 206/1/2 207/1/2 208/1/2
f 201/1/3 205/1/3 208/1/3 202/1/3
f 204/1/4 203/1/4 207/1/4 206/1/4
f 201/1/5 204/1/5 206/1/5 205/1/5
f 202/2/6 208/2/6 207/2/6 203/2/6
f 209/1/1 210/1/1 211/1/1 212/1/1
f 213/1/2 214/1/2 215/1/2 216/1/2
f 209/1/3 213/1/3 216/1/3 210/1/3
f 212/1/4 211/1/4 215/1/4 214/1/4
f 209/1/5 212/1/5 214/1/5 213/1/5
f 210/2/6 216/2/6 215/2/6 211/2/6
