# Blender 5.2.0 LTS
# www.blender.org
mtllib terr_mountainpath.mtl
o terr_mountainpath
v -0.520000 0.000000 -0.520000
v -0.520000 0.880000 -0.520000
v -0.140000 0.880000 -0.520000
v -0.140000 0.000000 -0.520000
v -0.520000 0.000000 0.520000
v -0.140000 0.000000 0.520000
v -0.140000 0.880000 0.520000
v -0.520000 0.880000 0.520000
v -0.140000 0.000000 -0.500000
v -0.140000 0.100000 -0.500000
v 0.500000 0.100000 -0.500000
v 0.500000 0.000000 -0.500000
v -0.140000 0.000000 -0.300000
v 0.500000 0.000000 -0.300000
v 0.500000 0.100000 -0.300000
v -0.140000 0.100000 -0.300000
v -0.140000 0.200000 -0.300000
v 0.500000 0.200000 -0.300000
v -0.140000 0.000000 -0.100000
v 0.500000 0.000000 -0.100000
v 0.500000 0.200000 -0.100000
v -0.140000 0.200000 -0.100000
v -0.140000 0.300000 -0.100000
v 0.500000 0.300000 -0.100000
v -0.140000 0.000000 0.100000
v 0.500000 0.000000 0.100000
v 0.500000 0.300000 0.100000
v -0.140000 0.300000 0.100000
v -0.140000 0.400000 0.100000
v 0.500000 0.400000 0.100000
v -0.140000 0.000000 0.300000
v 0.500000 0.000000 0.300000
v 0.500000 0.400000 0.300000
v -0.140000 0.400000 0.300000
v -0.140000 0.500000 0.300000
v 0.500000 0.500000 0.300000
v -0.140000 0.000000 0.500000
v 0.500000 0.000000 0.500000
v 0.500000 0.500000 0.500000
v -0.140000 0.500000 0.500000
v 0.420000 0.000000 -0.380000
v 0.420000 0.140000 -0.380000
v 0.520000 0.140000 -0.380000
v 0.520000 0.000000 -0.380000
v 0.420000 0.000000 -0.260000
v 0.520000 0.000000 -0.260000
v 0.520000 0.140000 -0.260000
v 0.420000 0.140000 -0.260000
v 0.420000 0.000000 -0.020000
v 0.420000 0.260000 -0.020000
v 0.520000 0.260000 -0.020000
v 0.520000 0.000000 -0.020000
v 0.420000 0.000000 0.100000
v 0.520000 0.000000 0.100000
v 0.520000 0.260000 0.100000
v 0.420000 0.260000 0.100000
v 0.420000 0.000000 0.340000
v 0.420000 0.380000 0.340000
v 0.520000 0.380000 0.340000
v 0.520000 0.000000 0.340000
v 0.420000 0.000000 0.460000
v 0.520000 0.000000 0.460000
v 0.520000 0.380000 0.460000
v 0.420000 0.380000 0.460000
v 0.440000 0.000000 0.140000
v 0.440000 0.140000 0.140000
v 0.500000 0.140000 0.140000
v 0.500000 0.000000 0.140000
v 0.440000 0.000000 0.200000
v 0.500000 0.000000 0.200000
v 0.500000 0.140000 0.200000
v 0.440000 0.140000 0.200000
v 0.060000 0.000000 -0.300000
v 0.060000 0.140000 -0.300000
v 0.120000 0.140000 -0.300000
v 0.120000 0.000000 -0.300000
v 0.060000 0.000000 -0.240000
v 0.120000 0.000000 -0.240000
v 0.120000 0.140000 -0.240000
v 0.060000 0.140000 -0.240000
vn -0.0000 -0.0000 -1.0000
vn -0.0000 -0.0000 1.0000
vn -1.0000 -0.0000 -0.0000
vn 1.0000 -0.0000 -0.0000
vn -0.0000 -1.0000 -0.0000
vn -0.0000 1.0000 -0.0000
vt 0.062500 0.812500
vt 0.937500 0.937500
vt 0.312500 0.687500
s 0
usemtl inkbox_entity_atlas
f 1/1/1 2/1/1 3/1/1 4/1/1
f 5/1/2 6/1/2 7/1/2 8/1/2
f 1/2/3 5/2/3 8/2/3 2/2/3
f 4/2/4 3/2/4 7/2/4 6/2/4
f 1/2/5 4/2/5 6/2/5 5/2/5
f 2/1/6 8/1/6 7/1/6 3/1/6
f 9/2/1 10/2/1 11/2/1 12/2/1
f 13/2/2 14/2/2 15/2/2 16/2/2
f 9/2/3 13/2/3 16/2/3 10/2/3
f 12/2/4 11/2/4 15/2/4 14/2/4
f 9/2/5 12/2/5 14/2/5 13/2/5
f 10/1/6 16/1/6 15/1/6 11/1/6
f 13/2/1 17/2/1 18/2/1 14/2/1
f 19/2/2 20/2/2 21/2/2 22/2/2
f 13/2/3 19/2/3 22/2/3 17/2/3
f 14/2/4 18/2/4 21/2/4 20/2/4
f 13/2/5 14/2/5 20/2/5 19/2/5
f 17/1/6 22/1/6 21/1/6 18/1/6
f 19/2/1 23/2/1 24/2/1 20/2/1
f 25/2/2 26/2/2 27/2/2 28/2/2
f 19/2/3 25/2/3 28/2/3 23/2/3
f 20/2/4 24/2/4 27/2/4 26/2/4
f 19/2/5 20/2/5 26/2/5 25/2/5
f 23/1/6 28/1/6 27/1/6 24/1/6
f 25/2/1 29/2/1 30/2/1 26/2/1
f 31/2/2 32/2/2 33/2/2 34/2/2
f 25/2/3 31/2/3 34/2/3 29/2/3
f 26/2/4 30/2/4 33/2/4 32/2/4
f 25/2/5 26/2/5 32/2/5 31/2/5
f 29/1/6 34/1/6 33/1/6 30/1/6
f 31/2/1 35/2/1 36/2/1 32/2/1
f 37/2/2 38/2/2 39/2/2 40/2/2
f 31/2/3 37/2/3 40/2/3 35/2/3
f 32/2/4 36/2/4 39/2/4 38/2/4
f 31/2/5 32/2/5 38/2/5 37/2/5
f 35/1/6 40/1/6 39/1/6 36/1/6
f 41/1/1 42/1/1 43/1/1 44/1/1
f 45/1/2 46/1/2 47/1/2 48/1/2
f 41/1/3 45/1/3 48/1/3 42/1/3
f 44/1/4 43/1/4 47/1/4 46/1/4
f 41/1/5 44/1/5 46/1/5 45/1/5
f 42/2/6 48/2/6 47/2/6 43/2/6
f 49/1/1 50/1/1 51/1/1 52/1/1
f 53/1/2 54/1/2 55/1/2 56/1/2
f 49/1/3 53/1/3 56/1/3 50/1/3
f 52/1/4 51/1/4 55/1/4 54/1/4
f 49/1/5 52/1/5 54/1/5 53/1/5
f 50/2/6 56/2/6 55/2/6 51/2/6
f 57/1/1 58/1/1 59/1/1 60/1/1
f 61/1/2 62/1/2 63/1/2 64/1/2
f 57/1/3 61/1/3 64/1/3 58/1/3
f 60/1/4 59/1/4 63/1/4 62/1/4
f 57/1/5 60/1/5 62/1/5 61/1/5
f 58/2/6 64/2/6 63/2/6 59/2/6
f 65/3/1 66/3/1 67/3/1 68/3/1
f 69/3/2 70/3/2 71/3/2 72/3/2
f 65/3/3 69/3/3 72/3/3 66/3/3
f 68/3/4 67/3/4 71/3/4 70/3/4
f 65/3/5 68/3/5 70/3/5 69/3/5
f 66/3/6 72/3/6 71/3/6 67/3/6
f 73/3/1 74/3/1 75/3/1 76/3/1
f 77/3/2 78/3/2 79/3/2 80/3/2
f 73/3/3 77/3/3 80/3/3 74/3/3
f 76/3/4 75/3/4 79/3/4 78/3/4
f 73/3/5 76/3/5 78/3/5 77/3/5
f 74/3/6 80/3/6 79/3/6 75/3/6
