# Blender 5.2.0 LTS
# www.blender.org
mtllib terr_immortalcave.mtl
o terr_immortalcave
v -0.560000 0.000000 -0.520000
v -0.560000 0.720000 -0.520000
v 0.560000 0.720000 -0.520000
v 0.560000 0.000000 -0.520000
v -0.560000 0.000000 0.520000
v 0.560000 0.000000 0.520000
v 0.560000 0.720000 0.520000
v -0.560000 0.720000 0.520000
v 0.000000 1.060000 0.000000
v -0.260000 0.100000 -0.600000
v -0.260000 0.620000 -0.600000
v -0.200000 0.620000 -0.600000
v -0.200000 0.100000 -0.600000
v -0.260000 0.100000 -0.540000
v -0.200000 0.100000 -0.540000
v -0.200000 0.620000 -0.540000
v -0.260000 0.620000 -0.540000
v 0.200000 0.100000 -0.600000
v 0.200000 0.620000 -0.600000
v 0.260000 0.620000 -0.600000
v 0.260000 0.100000 -0.600000
v 0.200000 0.100000 -0.540000
v 0.260000 0.100000 -0.540000
v 0.260000 0.620000 -0.540000
v 0.200000 0.620000 -0.540000
v -0.280000 0.620000 -0.620000
v -0.280000 0.700000 -0.620000
v 0.280000 0.700000 -0.620000
v 0.280000 0.620000 -0.620000
v -0.280000 0.620000 -0.520000
v 0.280000 0.620000 -0.520000
v 0.280000 0.700000 -0.520000
v -0.280000 0.700000 -0.520000
v -0.200000 0.100000 -0.560000
v -0.200000 0.580000 -0.560000
v 0.200000 0.580000 -0.560000
v 0.200000 0.100000 -0.560000
v -0.200000 0.100000 -0.460000
v 0.200000 0.100000 -0.460000
v 0.200000 0.580000 -0.460000
v -0.200000 0.580000 -0.460000
v -0.120000 0.100000 -0.600000
v -0.120000 0.260000 -0.600000
v 0.120000 0.260000 -0.600000
v 0.120000 0.100000 -0.600000
v -0.120000 0.100000 -0.560000
v 0.120000 0.100000 -0.560000
v 0.120000 0.260000 -0.560000
v -0.120000 0.260000 -0.560000
v -0.220000 0.000000 -0.860000
v -0.220000 0.033330 -0.860000
v 0.220000 0.033330 -0.860000
v 0.220000 0.000000 -0.860000
v -0.220000 0.000000 -0.780000
v 0.220000 0.000000 -0.780000
v 0.220000 0.033330 -0.780000
v -0.220000 0.033330 -0.780000
v -0.220000 0.066670 -0.780000
v 0.220000 0.066670 -0.780000
v -0.220000 0.000000 -0.700000
v 0.220000 0.000000 -0.700000
v 0.220000 0.066670 -0.700000
v -0.220000 0.066670 -0.700000
v -0.220000 0.100000 -0.700000
v 0.220000 0.100000 -0.700000
v -0.220000 0.000000 -0.620000
v 0.220000 0.000000 -0.620000
v 0.220000 0.100000 -0.620000
v -0.220000 0.100000 -0.620000
v -0.480000 0.000000 -0.720000
v -0.480000 0.300000 -0.720000
v -0.400000 0.300000 -0.720000
v -0.400000 0.000000 -0.720000
v -0.480000 0.000000 -0.640000
v -0.400000 0.000000 -0.640000
v -0.400000 0.300000 -0.640000
v -0.480000 0.300000 -0.640000
v -0.490000 0.300000 -0.730000
v -0.490000 0.360000 -0.730000
v -0.390000 0.360000 -0.730000
v -0.390000 0.300000 -0.730000
v -0.490000 0.300000 -0.630000
v -0.390000 0.300000 -0.630000
v -0.390000 0.360000 -0.630000
v -0.490000 0.360000 -0.630000
v 0.400000 0.000000 -0.720000
v 0.400000 0.300000 -0.720000
v 0.480000 0.300000 -0.720000
v 0.480000 0.000000 -0.720000
v 0.400000 0.000000 -0.640000
v 0.480000 0.000000 -0.640000
v 0.480000 0.300000 -0.640000
v 0.400000 0.300000 -0.640000
v 0.390000 0.300000 -0.730000
v 0.390000 0.360000 -0.730000
v 0.490000 0.360000 -0.730000
v 0.490000 0.300000 -0.730000
v 0.390000 0.300000 -0.630000
v 0.490000 0.300000 -0.630000
v 0.490000 0.360000 -0.630000
v 0.390000 0.360000 -0.630000
v -0.620000 0.000000 -0.700000
v -0.620000 0.090000 -0.700000
v 0.620000 0.090000 -0.700000
v 0.620000 0.000000 -0.700000
v -0.620000 0.000000 -0.520000
v 0.620000 0.000000 -0.520000
v 0.620000 0.090000 -0.520000
v -0.620000 0.090000 -0.520000
vn -0.0000 -0.0000 -1.0000
vn -0.0000 -0.0000 1.0000
vn -1.0000 -0.0000 -0.0000
vn 1.0000 -0.0000 -0.0000
vn -0.0000 -1.0000 -0.0000
vn -0.0000 1.0000 -0.0000
vn -0.0000 0.8370 -0.5472
vn 0.5190 0.8548 -0.0000
vn -0.0000 0.8370 0.5472
vn -0.5190 0.8548 -0.0000
vt 0.062500 0.812500
vt 0.937500 0.937500
vt 0.562500 0.937500
vt 0.312500 0.562500
vt 0.812500 0.812500
vt 0.437500 0.937500
s 0
usemtl inkbox_entity_atlas
f 1/1/1 2/1/1 3/1/1 4/1/1
f 5/1/2 6/1/2 7/1/2 8/1/2
f 1/2/3 5/2/3 8/2/3 2/2/3
f 4/2/4 3/2/4 7/2/4 6/2/4
f 1/2/5 4/2/5 6/2/5 5/2/5
f 2/1/6 8/1/6 7/1/6 3/1/6
f 2/1/7 9/1/7 3/1/7
f 3/1/8 9/1/8 7/1/8
f 7/1/9 9/1/9 8/1/9
f 8/1/10 9/1/10 2/1/10
f 10/1/1 11/1/1 12/1/1 13/1/1
f 14/1/2 15/1/2 16/1/2 17/1/2
f 10/1/3 14/1/3 17/1/3 11/1/3
f 13/1/4 12/1/4 16/1/4 15/1/4
f 10/1/5 13/1/5 15/1/5 14/1/5
f 11/2/6 17/2/6 16/2/6 12/2/6
f 18/1/1 19/1/1 20/1/1 21/1/1
f 22/1/2 23/1/2 24/1/2 25/1/2
f 18/1/3 22/1/3 25/1/3 19/1/3
f 21/1/4 20/1/4 24/1/4 23/1/4
f 18/1/5 21/1/5 23/1/5 22/1/5
f 19/2/6 25/2/6 24/2/6 20/2/6
f 26/1/1 27/1/1 28/1/1 29/1/1
f 30/1/2 31/1/2 32/1/2 33/1/2
f 26/1/3 30/1/3 33/1/3 27/1/3
f 29/1/4 28/1/4 32/1/4 31/1/4
f 26/1/5 29/1/5 31/1/5 30/1/5
f 27/2/6 33/2/6 32/2/6 28/2/6
f 34/3/1 35/3/1 36/3/1 37/3/1
f 38/3/2 39/3/2 40/3/2 41/3/2
f 34/3/3 38/3/3 41/3/3 35/3/3
f 37/3/4 36/3/4 40/3/4 39/3/4
f 34/3/5 37/3/5 39/3/5 38/3/5
f 35/3/6 41/3/6 40/3/6 36/3/6
f 42/4/1 43/4/1 44/4/1 45/4/1
f 46/4/2 47/4/2 48/4/2 49/4/2
f 42/4/3 46/4/3 49/4/3 43/4/3
f 45/4/4 44/4/4 48/4/4 47/4/4
f 42/4/5 45/4/5 47/4/5 46/4/5
f 43/4/6 49/4/6 48/4/6 44/4/6
f 50/2/1 51/2/1 52/2/1 53/2/1
f 54/2/2 55/2/2 56/2/2 57/2/2
f 50/2/3 54/2/3 57/2/3 51/2/3
f 53/2/4 52/2/4 56/2/4 55/2/4
f 50/2/5 53/2/5 55/2/5 54/2/5
f 51/1/6 57/1/6 56/1/6 52/1/6
f 54/2/1 58/2/1 59/2/1 55/2/1
f 60/2/2 61/2/2 62/2/2 63/2/2
f 54/2/3 60/2/3 63/2/3 58/2/3
f 55/2/4 59/2/4 62/2/4 61/2/4
f 54/2/5 55/2/5 61/2/5 60/2/5
f 58/1/6 63/1/6 62/1/6 59/1/6
f 60/2/1 64/2/1 65/2/1 61/2/1
f 66/2/2 67/2/2 68/2/2 69/2/2
f 60/2/3 66/2/3 69/2/3 64/2/3
f 61/2/4 65/2/4 68/2/4 67/2/4
f 60/2/5 61/2/5 67/2/5 66/2/5
f 64/1/6 69/1/6 68/1/6 65/1/6
f 70/1/1 71/1/1 72/1/1 73/1/1
f 74/1/2 75/1/2 76/1/2 77/1/2
f 70/1/3 74/1/3 77/1/3 71/1/3
f 73/1/4 72/1/4 76/1/4 75/1/4
f 70/1/5 73/1/5 75/1/5 74/1/5
f 71/2/6 77/2/6 76/2/6 72/2/6
f 78/5/1 79/5/1 80/5/1 81/5/1
f 82/5/2 83/5/2 84/5/2 85/5/2
f 78/5/3 82/5/3 85/5/3 79/5/3
f 81/5/4 80/5/4 84/5/4 83/5/4
f 78/5/5 81/5/5 83/5/5 82/5/5
f 79/5/6 85/5/6 84/5/6 80/5/6
f 86/1/1 87/1/1 88/1/1 89/1/1
f 90/1/2 91/1/2 92/1/2 93/1/2
f 86/1/3 90/1/3 93/1/3 87/1/3
f 89/1/4 88/1/4 92/1/4 91/1/4
f 86/1/5 89/1/5 91/1/5 90/1/5
f 87/2/6 93/2/6 92/2/6 88/2/6
f 94/5/1 95/5/1 96/5/1 97/5/1
f 98/5/2 99/5/2 100/5/2 101/5/2
f 94/5/3 98/5/3 101/5/3 95/5/3
f 97/5/4 96/5/4 100/5/4 99/5/4
f 94/5/5 97/5/5 99/5/5 98/5/5
f 95/5/6 101/5/6 100/5/6 96/5/6
f 102/6/1 103/6/1 104/6/1 105/6/1
f 106/6/2 107/6/2 108/6/2 109/6/2
f 102/6/3 106/6/3 109/6/3 103/6/3
f 105/6/4 104/6/4 108/6/4 107/6/4
f 102/6/5 105/6/5 107/6/5 106/6/5
f 103/6/6 109/6/6 108/6/6 104/6/6
