# Blender 5.2.0 LTS
# www.blender.org
mtllib terr_array.mtl
o terr_array
v -0.500000 0.000000 -0.500000
v -0.500000 0.080000 -0.500000
v 0.500000 0.080000 -0.500000
v 0.500000 0.000000 -0.500000
v -0.500000 0.000000 0.500000
v 0.500000 0.000000 0.500000
v 0.500000 0.080000 0.500000
v -0.500000 0.080000 0.500000
v -0.420000 0.080000 -0.440000
v -0.420000 0.095000 -0.440000
v 0.420000 0.095000 -0.440000
v 0.420000 0.080000 -0.440000
v -0.420000 0.080000 -0.400000
v 0.420000 0.080000 -0.400000
v 0.420000 0.095000 -0.400000
v -0.420000 0.095000 -0.400000
v -0.420000 0.080000 0.400000
v -0.420000 0.095000 0.400000
v 0.420000 0.095000 0.400000
v 0.420000 0.080000 0.400000
v -0.420000 0.080000 0.440000
v 0.420000 0.080000 0.440000
v 0.420000 0.095000 0.440000
v -0.420000 0.095000 0.440000
v -0.440000 0.080000 -0.400000
v -0.440000 0.095000 -0.400000
v -0.400000 0.095000 -0.400000
v -0.400000 0.080000 -0.400000
v -0.440000 0.080000 0.400000
v -0.400000 0.080000 0.400000
v -0.400000 0.095000 0.400000
v -0.440000 0.095000 0.400000
v 0.400000 0.080000 -0.400000
v 0.400000 0.095000 -0.400000
v 0.440000 0.095000 -0.400000
v 0.440000 0.080000 -0.400000
v 0.400000 0.080000 0.400000
v 0.440000 0.080000 0.400000
v 0.440000 0.095000 0.400000
v 0.400000 0.095000 0.400000
v -0.240000 0.080000 -0.260000
v -0.240000 0.090000 -0.260000
v 0.240000 0.090000 -0.260000
v 0.240000 0.080000 -0.260000
v -0.240000 0.080000 -0.230000
v 0.240000 0.080000 -0.230000
v 0.240000 0.090000 -0.230000
v -0.240000 0.090000 -0.230000
v -0.240000 0.080000 0.230000
v -0.240000 0.090000 0.230000
v 0.240000 0.090000 0.230000
v 0.240000 0.080000 0.230000
v -0.240000 0.080000 0.260000
v 0.240000 0.080000 0.260000
v 0.240000 0.090000 0.260000
v -0.240000 0.090000 0.260000
v -0.260000 0.080000 -0.230000
v -0.260000 0.090000 -0.230000
v -0.230000 0.090000 -0.230000
v -0.230000 0.080000 -0.230000
v -0.260000 0.080000 0.230000
v -0.230000 0.080000 0.230000
v -0.230000 0.090000 0.230000
v -0.260000 0.090000 0.230000
v 0.230000 0.080000 -0.230000
v 0.230000 0.090000 -0.230000
v 0.260000 0.090000 -0.230000
v 0.260000 0.080000 -0.230000
v 0.230000 0.080000 0.230000
v 0.260000 0.080000 0.230000
v 0.260000 0.090000 0.230000
v 0.230000 0.090000 0.230000
v -0.420000 0.080000 -0.420000
v -0.420000 0.420000 -0.420000
v -0.330000 0.420000 -0.420000
v -0.330000 0.080000 -0.420000
v -0.420000 0.080000 -0.330000
v -0.330000 0.080000 -0.330000
v -0.330000 0.420000 -0.330000
v -0.420000 0.420000 -0.330000
v 0.340000 0.080000 0.340000
v 0.340000 0.260000 0.340000
v 0.430000 0.260000 0.340000
v 0.430000 0.080000 0.340000
v 0.340000 0.080000 0.430000
v 0.430000 0.080000 0.430000
v 0.430000 0.260000 0.430000
v 0.340000 0.260000 0.430000
v -0.120000 0.080000 -0.120000
v -0.120000 0.115000 -0.120000
v 0.120000 0.115000 -0.120000
v 0.120000 0.080000 -0.120000
v -0.120000 0.080000 0.120000
v 0.120000 0.080000 0.120000
v 0.120000 0.115000 0.120000
v -0.120000 0.115000 0.120000
vn -0.0000 -0.0000 -1.0000
vn -0.0000 -0.0000 1.0000
vn -1.0000 -0.0000 -0.0000
vn 1.0000 -0.0000 -0.0000
vn -0.0000 -1.0000 -0.0000
vn -0.0000 1.0000 -0.0000
vt 0.937500 0.937500
vt 0.062500 0.812500
vt 0.812500 0.937500
vt 0.312500 0.562500
s 0
usemtl inkbox_entity_atlas
f 1/1/1 2/1/1 3/1/1 4/1/1
f 5/1/2 6/1/2 7/1/2 8/1/2
f 1/1/3 5/1/3 8/1/3 2/1/3
f 4/1/4 3/1/4 7/1/4 6/1/4
f 1/1/5 4/1/5 6/1/5 5/1/5
f 2/2/6 8/2/6 7/2/6 3/2/6
f 9/3/1 10/3/1 11/3/1 12/3/1
f 13/3/2 14/3/2 15/3/2 16/3/2
f 9/3/3 13/3/3 16/3/3 10/3/3
f 12/3/4 11/3/4 15/3/4 14/3/4
f 9/3/5 12/3/5 14/3/5 13/3/5
f 10/3/6 16/3/6 15/3/6 11/3/6
f 17/3/1 18/3/1 19/3/1 20/3/1
f 21/3/2 22/3/2 23/3/2 24/3/2
f 17/3/3 21/3/3 24/3/3 18/3/3
f 20/3/4 19/3/4 23/3/4 22/3/4
f 17/3/5 20/3/5 22/3/5 21/3/5
f 18/3/6 24/3/6 23/3/6 19/3/6
f 25/3/1 26/3/1 27/3/1 28/3/1
f 29/3/2 30/3/2 31/3/2 32/3/2
f 25/3/3 29/3/3 32/3/3 26/3/3
f 28/3/4 27/3/4 31/3/4 30/3/4
f 25/3/5 28/3/5 30/3/5 29/3/5
f 26/3/6 32/3/6 31/3/6 27/3/6
f 33/3/1 34/3/1 35/3/1 36/3/1
f 37/3/2 38/3/2 39/3/2 40/3/2
f 33/3/3 37/3/3 40/3/3 34/3/3
f 36/3/4 35/3/4 39/3/4 38/3/4
f 33/3/5 36/3/5 38/3/5 37/3/5
f 34/3/6 40/3/6 39/3/6 35/3/6
f 41/3/1 42/3/1 43/3/1 44/3/1
f 45/3/2 46/3/2 47/3/2 48/3/2
f 41/3/3 45/3/3 48/3/3 42/3/3
f 44/3/4 43/3/4 47/3/4 46/3/4
f 41/3/5 44/3/5 46/3/5 45/3/5
f 42/3/6 48/3/6 47/3/6 43/3/6
f 49/3/1 50/3/1 51/3/1 52/3/1
f 53/3/2 54/3/2 55/3/2 56/3/2
f 49/3/3 53/3/3 56/3/3 50/3/3
f 52/3/4 51/3/4 55/3/4 54/3/4
f 49/3/5 52/3/5 54/3/5 53/3/5
f 50/3/6 56/3/6 55/3/6 51/3/6
f 57/3/1 58/3/1 59/3/1 60/3/1
f 61/3/2 62/3/2 63/3/2 64/3/2
f 57/3/3 61/3/3 64/3/3 58/3/3
f 60/3/4 59/3/4 63/3/4 62/3/4
f 57/3/5 60/3/5 62/3/5 61/3/5
f 58/3/6 64/3/6 63/3/6 59/3/6
f 65/3/1 66/3/1 67/3/1 68/3/1
f 69/3/2 70/3/2 71/3/2 72/3/2
f 65/3/3 69/3/3 72/3/3 66/3/3
f 68/3/4 67/3/4 71/3/4 70/3/4
f 65/3/5 68/3/5 70/3/5 69/3/5
f 66/3/6 72/3/6 71/3/6 67/3/6
f 73/2/1 74/2/1 75/2/1 76/2/1
f 77/2/2 78/2/2 79/2/2 80/2/2
f 73/2/3 77/2/3 80/2/3 74/2/3
f 76/2/4 75/2/4 79/2/4 78/2/4
f 73/2/5 76/2/5 78/2/5 77/2/5
f 74/1/6 80/1/6 79/1/6 75/1/6
f 81/2/1 82/2/1 83/2/1 84/2/1
f 85/2/2 86/2/2 87/2/2 88/2/2
f 81/2/3 85/2/3 88/2/3 82/2/3
f 84/2/4 83/2/4 87/2/4 86/2/4
f 81/2/5 84/2/5 86/2/5 85/2/5
f 82/1/6 88/1/6 87/1/6 83/1/6
f 89/4/1 90/4/1 91/4/1 92/4/1
f 93/4/2 94/4/2 95/4/2 96/4/2
f 89/4/3 93/4/3 96/4/3 90/4/3
f 92/4/4 91/4/4 95/4/4 94/4/4
f 89/4/5 92/4/5 94/4/5 93/4/5
f 90/4/6 96/4/6 95/4/6 91/4/6
