# Blender 5.2.0 LTS
# www.blender.org
mtllib terr_spring.mtl
o terr_spring
v -0.460000 0.000000 -0.460000
v -0.460000 0.110000 -0.460000
v 0.460000 0.110000 -0.460000
v 0.460000 0.000000 -0.460000
v -0.460000 0.000000 0.460000
v 0.460000 0.000000 0.460000
v 0.460000 0.110000 0.460000
v -0.460000 0.110000 0.460000
v -0.580000 0.000000 0.280000
v -0.580000 0.240000 0.280000
v -0.360000 0.240000 0.280000
v -0.360000 0.000000 0.280000
v -0.580000 0.000000 0.500000
v -0.360000 0.000000 0.500000
v -0.360000 0.240000 0.500000
v -0.580000 0.240000 0.500000
v -0.460000 0.170000 -0.460000
v -0.380000 0.170000 -0.460000
v -0.380000 0.110000 -0.460000
v -0.380000 0.110000 0.460000
v -0.380000 0.170000 0.460000
v -0.460000 0.170000 0.460000
v 0.380000 0.110000 -0.460000
v 0.380000 0.200000 -0.460000
v 0.460000 0.200000 -0.460000
v 0.380000 0.110000 0.460000
v 0.460000 0.200000 0.460000
v 0.380000 0.200000 0.460000
v -0.380000 0.150000 -0.460000
v 0.380000 0.150000 -0.460000
v -0.380000 0.110000 -0.380000
v 0.380000 0.110000 -0.380000
v 0.380000 0.150000 -0.380000
v -0.380000 0.150000 -0.380000
v -0.380000 0.110000 0.380000
v -0.380000 0.185000 0.380000
v 0.380000 0.185000 0.380000
v 0.380000 0.110000 0.380000
v 0.380000 0.185000 0.460000
v -0.380000 0.185000 0.460000
v 0.380000 0.150000 0.380000
v -0.380000 0.150000 0.380000
v -0.050000 0.150000 -0.050000
v -0.050000 0.340000 -0.050000
v 0.050000 0.340000 -0.050000
v 0.050000 0.150000 -0.050000
v -0.050000 0.150000 0.050000
v 0.050000 0.150000 0.050000
v 0.050000 0.340000 0.050000
v -0.050000 0.340000 0.050000
v -0.020000 0.340000 -0.025000
v -0.020000 0.500000 -0.025000
v 0.050000 0.500000 -0.025000
v 0.050000 0.340000 -0.025000
v -0.020000 0.340000 0.045000
v 0.050000 0.340000 0.045000
v 0.050000 0.500000 0.045000
v -0.020000 0.500000 0.045000
v -0.017000 0.500000 -0.002000
v -0.017000 0.660000 -0.002000
v 0.027000 0.660000 -0.002000
v 0.027000 0.500000 -0.002000
v -0.017000 0.500000 0.042000
v 0.027000 0.500000 0.042000
v 0.027000 0.660000 0.042000
v -0.017000 0.660000 0.042000
v -0.440000 0.110000 -0.160000
v -0.440000 0.200000 -0.160000
v -0.300000 0.200000 -0.160000
v -0.300000 0.110000 -0.160000
v -0.440000 0.110000 -0.020000
v -0.300000 0.110000 -0.020000
v -0.300000 0.200000 -0.020000
v -0.440000 0.200000 -0.020000
v 0.260000 0.110000 0.200000
v 0.260000 0.180000 0.200000
v 0.400000 0.180000 0.200000
v 0.400000 0.110000 0.200000
v 0.260000 0.110000 0.340000
v 0.400000 0.110000 0.340000
v 0.400000 0.180000 0.340000
v 0.260000 0.180000 0.340000
vn -0.0000 -0.0000 -1.0000
vn -0.0000 -0.0000 1.0000
vn -1.0000 -0.0000 -0.0000
vn 1.0000 -0.0000 -0.0000
vn -0.0000 -1.0000 -0.0000
vn -0.0000 1.0000 -0.0000
vt 0.062500 0.812500
vt 0.937500 0.937500
vt 0.062500 0.687500
vt 0.937500 0.812500
vt 0.312500 0.562500
s 0
usemtl inkbox_entity_atlas
f 1/1/1 2/1/1 3/1/1 4/1/1
f 5/1/2 6/1/2 7/1/2 8/1/2
f 1/1/3 5/1/3 8/1/3 2/1/3
f 4/1/4 3/1/4 7/1/4 6/1/4
f 1/1/5 4/1/5 6/1/5 5/1/5
f 2/2/6 8/2/6 7/2/6 3/2/6
f 9/2/1 10/2/1 11/2/1 12/2/1
f 13/2/2 14/2/2 15/2/2 16/2/2
f 9/2/3 13/2/3 16/2/3 10/2/3
f 12/2/4 11/2/4 15/2/4 14/2/4
f 9/2/5 12/2/5 14/2/5 13/2/5
f 10/1/6 16/1/6 15/1/6 11/1/6
f 2/1/1 17/1/1 18/1/1 19/1/1
f 8/1/2 20/1/2 21/1/2 22/1/2
f 2/1/3 8/1/3 22/1/3 17/1/3
f 19/1/4 18/1/4 21/1/4 20/1/4
f 2/1/5 19/1/5 20/1/5 8/1/5
f 17/2/6 22/2/6 21/2/6 18/2/6
f 23/1/1 24/1/1 25/1/1 3/1/1
f 26/1/2 7/1/2 27/1/2 28/1/2
f 23/1/3 26/1/3 28/1/3 24/1/3
f 3/1/4 25/1/4 27/1/4 7/1/4
f 23/1/5 3/1/5 7/1/5 26/1/5
f 24/2/6 28/2/6 27/2/6 25/2/6
f 19/1/1 29/1/1 30/1/1 23/1/1
f 31/1/2 32/1/2 33/1/2 34/1/2
f 19/1/3 31/1/3 34/1/3 29/1/3
f 23/1/4 30/1/4 33/1/4 32/1/4
f 19/1/5 23/1/5 32/1/5 31/1/5
f 29/2/6 34/2/6 33/2/6 30/2/6
f 35/1/1 36/1/1 37/1/1 38/1/1
f 20/1/2 26/1/2 39/1/2 40/1/2
f 35/1/3 20/1/3 40/1/3 36/1/3
f 38/1/4 37/1/4 39/1/4 26/1/4
f 35/1/5 38/1/5 26/1/5 20/1/5
f 36/2/6 40/2/6 39/2/6 37/2/6
f 35/3/2 38/3/2 41/3/2 42/3/2
f 31/3/3 35/3/3 42/3/3 34/3/3
f 32/3/4 33/3/4 41/3/4 38/3/4
f 31/3/5 32/3/5 38/3/5 35/3/5
f 34/3/6 42/3/6 41/3/6 33/3/6
f 43/4/1 44/4/1 45/4/1 46/4/1
f 47/5/2 48/5/2 49/5/2 50/5/2
f 43/5/3 47/5/3 50/5/3 44/5/3
f 46/5/4 45/5/4 49/5/4 48/5/4
f 43/5/5 46/5/5 48/5/5 47/5/5
f 44/5/6 50/5/6 49/5/6 45/5/6
f 51/5/1 52/5/1 53/5/1 54/5/1
f 55/5/2 56/5/2 57/5/2 58/5/2
f 51/5/3 55/5/3 58/5/3 52/5/3
f 54/5/4 53/5/4 57/5/4 56/5/4
f 51/5/5 54/5/5 56/5/5 55/5/5
f 52/5/6 58/5/6 57/5/6 53/5/6
f 59/5/1 60/5/1 61/5/1 62/5/1
f 63/5/2 64/5/2 65/5/2 66/5/2
f 59/5/3 63/5/3 66/5/3 60/5/3
f 62/5/4 61/5/4 65/5/4 64/5/4
f 59/5/5 62/5/5 64/5/5 63/5/5
f 60/5/6 66/5/6 65/5/6 61/5/6
f 67/5/1 68/5/1 69/5/1 70/5/1
f 71/1/2 72/1/2 73/1/2 74/1/2
f 67/1/3 71/1/3 74/1/3 68/1/3
f 70/1/4 69/1/4 73/1/4 72/1/4
f 67/1/5 70/1/5 72/1/5 71/1/5
f 68/1/6 74/1/6 73/1/6 69/1/6
f 75/2/1 76/2/1 77/2/1 78/2/1
f 79/1/2 80/1/2 81/1/2 82/1/2
f 75/1/3 79/1/3 82/1/3 76/1/3
f 78/1/4 77/1/4 81/1/4 80/1/4
f 75/1/5 78/1/5 80/1/5 79/1/5
f 76/1/6 82/1/6 81/1/6 77/1/6
